<?xml version="1.0" encoding="iso-8859-1"?>
<!-- Generator: Adobe Illustrator 19.0.0, SVG Export Plug-In . SVG Version: 6.00 Build 0)  -->
<svg version="1.1" id="Capa_1" xmlns="http://www.w3.org/2000/svg" xmlns:xlink="http://www.w3.org/1999/xlink" x="0px" y="0px"
	 viewBox="0 0 512.002 512.002" style="enable-background:new 0 0 512.002 512.002;" xml:space="preserve">
<g>
	<path style="fill:#FD4A4A;" d="M181.485,82.002h149.028h12.244c7.7,0,14-6.3,14-14V24c0-7.701-6.3-14-14-14H169.242
		c-7.701,0-14.001,6.3-14.001,14v44.001c0,7.7,6.3,14,14.001,14L181.485,82.002L181.485,82.002z"/>
	<path style="fill:#66E2E7;" d="M330.847,126.463V85.037c0-1.043-0.116-2.06-0.334-3.035H181.485
		c-0.218,0.975-0.334,1.992-0.334,3.035v41.426c0,0-46.722,14.569-70.948,46.537C101.724,184.189,96,197.509,96,213.083h320
		C416,153.017,330.847,126.463,330.847,126.463z"/>
	<path style="fill:#FFA655;" d="M416,213.083H96V444.5h320V405V213.083L416,213.083z M277.932,260.302v36.555h36.556v43.867h-36.556
		v36.556h-43.866v-36.556H197.51v-43.867h36.556v-36.555H277.932z"/>
	<polygon style="fill:#FD4A4A;" points="277.932,260.302 234.066,260.302 234.066,296.858 197.51,296.858 197.51,340.724 
		234.066,340.724 234.066,377.28 277.932,377.28 277.932,340.724 314.488,340.724 314.488,296.858 277.932,296.858 	"/>
	<path style="fill:#66E2E7;" d="M416,444.5H96c0,31.616,24.275,57.501,53.928,57.501h212.145C391.723,502.001,416,476.116,416,444.5
		z"/>
</g>
<path d="M340.847,119.392v-27.39h1.91c13.233,0,24-10.767,24-24V24c0-13.234-10.767-24-24-24H169.242
	c-13.234,0-24.001,10.767-24.001,24v44.001c0,13.233,10.767,24,24.001,24h1.909v27.39C149.481,127.632,86,156.6,86,213.081V444.5
	c0,37.22,28.678,67.502,63.928,67.502h212.145c35.25,0,63.928-30.281,63.928-67.502V213.083
	C426,156.602,362.517,127.633,340.847,119.392z M106,434.5V223.083h300V395h-55.953c-5.522,0-10,4.477-10,10s4.478,10,10,10H406
	v19.5H106z M165.241,68.002V24c0-2.168,1.832-4,4.001-4h173.516c2.168,0,4,1.832,4,4v44.001c0,2.168-1.832,4-4,4l0,0H169.242l0,0
	C167.073,72.002,165.241,70.17,165.241,68.002z M184.128,136.01c4.178-1.303,7.023-5.17,7.023-9.546V92.002h129.696v34.461
	c0,4.376,2.846,8.244,7.023,9.546c0.729,0.228,68.2,21.799,77.145,67.073H106.99c1.451-7.304,4.427-13.997,8.411-20.083h60.755
	c5.523,0,10-4.477,10-10s-4.477-10-10-10h-42.161C156.225,144.983,183.67,136.154,184.128,136.01z M362.072,492.001H149.927
	c-21.049,0-38.681-16.096-42.94-37.501h298.024C400.753,475.905,383.121,492.001,362.072,492.001z"/>
<path d="M324.488,340.724v-43.867c0-5.523-4.478-10-10-10h-26.556v-26.555c0-5.523-4.478-10-10-10h-43.866c-5.523,0-10,4.477-10,10
	v26.555H197.51c-5.523,0-10,4.477-10,10v43.867c0,5.523,4.477,10,10,10h26.556v26.556c0,5.523,4.477,10,10,10h43.866
	c5.522,0,10-4.477,10-10v-26.556h26.556C320.01,350.724,324.488,346.247,324.488,340.724z M304.488,330.724h-26.556
	c-5.522,0-10,4.477-10,10v26.556h-23.866v-26.556c0-5.523-4.477-10-10-10H207.51v-23.867h26.556c5.523,0,10-4.477,10-10v-26.555
	h23.866v26.555c0,5.523,4.478,10,10,10h26.556V330.724z"/>
<path d="M205.879,183h0.324c5.523,0,10-4.477,10-10s-4.477-10-10-10h-0.324c-5.523,0-10,4.477-10,10S200.356,183,205.879,183z"/>
<path d="M320.324,395H320c-5.523,0-10,4.477-10,10s4.477,10,10,10h0.324c5.522,0,10-4.477,10-10S325.846,395,320.324,395z"/>
<g>
</g>
<g>
</g>
<g>
</g>
<g>
</g>
<g>
</g>
<g>
</g>
<g>
</g>
<g>
</g>
<g>
</g>
<g>
</g>
<g>
</g>
<g>
</g>
<g>
</g>
<g>
</g>
<g>
</g>
</svg>
