<?xml version="1.0" encoding="iso-8859-1"?>
<!-- Generator: Adobe Illustrator 19.0.0, SVG Export Plug-In . SVG Version: 6.00 Build 0)  -->
<svg version="1.1" id="Capa_1" xmlns="http://www.w3.org/2000/svg" xmlns:xlink="http://www.w3.org/1999/xlink" x="0px" y="0px"
	 viewBox="0 0 512.002 512.002" style="enable-background:new 0 0 512.002 512.002;" xml:space="preserve">
<g>
	<path style="fill:#FEC478;" d="M146.358,70.596h217.828V30c0-11-9-20-20-20H166.358c-11,0-20,9-20,20V70.596z"/>
	<polygon style="fill:#66E2E7;" points="364.186,70.596 146.358,70.596 127.801,110.176 96.001,178 416.001,178 	"/>
	<g>
		<ellipse style="fill:#FFCEAC;" cx="256" cy="253.36" rx="25.406" ry="27.534"/>
		<ellipse style="fill:#FFCEAC;" cx="181.43" cy="287.78" rx="25.406" ry="27.535"/>
		<ellipse style="fill:#FFCEAC;" cx="330.57" cy="287.78" rx="25.406" ry="27.535"/>
		<ellipse style="fill:#FFCEAC;" cx="256" cy="375.3" rx="61.701" ry="61.952"/>
	</g>
	<path style="fill:#00A2BB;" d="M256.001,313.345c34.076,0,61.701,27.737,61.701,61.952s-27.625,61.952-61.701,61.952
		S194.3,409.513,194.3,375.297C194.3,341.082,221.925,313.345,256.001,313.345L256.001,313.345z M355.981,287.778
		c0-15.207-11.375-27.535-25.406-27.535s-25.406,12.328-25.406,27.535s11.375,27.535,25.406,27.535
		C344.606,315.313,355.981,302.985,355.981,287.778L355.981,287.778z M256.001,225.826c14.031,0,25.406,12.327,25.406,27.534
		c0,15.207-11.375,27.535-25.406,27.535c-14.031,0-25.406-12.328-25.406-27.535C230.595,238.153,241.97,225.826,256.001,225.826
		L256.001,225.826z M416.001,178h-320v304.249c0,10.864,8.889,19.752,19.753,19.752h280.494c10.864,0,19.753-8.888,19.753-19.752
		v-20.073L416.001,178L416.001,178z M181.427,260.244c-14.032,0-25.406,12.328-25.406,27.535s11.374,27.535,25.406,27.535
		c14.031,0,25.406-12.328,25.406-27.535C206.833,272.572,195.458,260.244,181.427,260.244z"/>
</g>
<path d="M425.978,177.553c-0.006-0.126-0.009-0.252-0.019-0.378c-0.028-0.346-0.073-0.688-0.136-1.023
	c-0.006-0.035-0.009-0.07-0.016-0.105c-0.078-0.395-0.182-0.779-0.305-1.155c-0.02-0.062-0.045-0.121-0.066-0.182
	c-0.109-0.314-0.234-0.621-0.374-0.919c-0.021-0.044-0.033-0.091-0.055-0.135L374.186,68.311V30c0-16.542-13.458-30-30-30H166.358
	c-16.542,0-30,13.458-30,30v38.369L86.947,173.755c-0.017,0.037-0.027,0.075-0.044,0.112c-0.15,0.329-0.285,0.666-0.398,1.013
	c-0.008,0.025-0.019,0.049-0.027,0.074c-0.12,0.374-0.216,0.756-0.291,1.147c-0.016,0.083-0.024,0.167-0.038,0.251
	c-0.048,0.288-0.086,0.579-0.108,0.876c-0.01,0.134-0.016,0.268-0.021,0.402c-0.004,0.124-0.019,0.245-0.019,0.371V482.25
	c0,16.405,13.347,29.752,29.753,29.752h280.494c16.406,0,29.753-13.347,29.753-29.752V178
	C426.001,177.849,425.985,177.702,425.978,177.553z M156.358,30c0-5.514,4.486-10,10-10h177.828c5.514,0,10,4.486,10,10v30.597
	H156.358V30z M134.157,120.176h59.596c5.523,0,10-4.477,10-10s-4.477-10-10-10h-50.219l9.18-19.58h205.194L400.074,168h-288.34
	L134.157,120.176z M396.248,492.001H115.754c-5.378,0-9.753-4.375-9.753-9.752V188h300v264.176h-55.953c-5.523,0-10,4.477-10,10
	s4.477,10,10,10h55.953v10.073C406.001,487.626,401.626,492.001,396.248,492.001z"/>
<path d="M256.001,303.344c-39.536,0-71.7,32.278-71.7,71.952s32.165,71.952,71.7,71.952c39.536,0,71.701-32.277,71.701-71.952
	S295.537,303.344,256.001,303.344z M256.001,427.248c-28.508,0-51.7-23.305-51.7-51.952c0-28.646,23.192-51.952,51.7-51.952
	s51.701,23.306,51.701,51.952C307.702,403.943,284.509,427.248,256.001,427.248z"/>
<path d="M256.001,290.895c19.523,0,35.406-16.838,35.406-37.535c0-20.696-15.883-37.534-35.406-37.534s-35.406,16.838-35.406,37.534
	C220.595,274.057,236.478,290.895,256.001,290.895z M256.001,235.826c8.495,0,15.406,7.866,15.406,17.534
	c0,9.669-6.911,17.535-15.406,17.535c-8.495,0-15.406-7.866-15.406-17.535C240.595,243.691,247.506,235.826,256.001,235.826z"/>
<path d="M365.981,287.778c0-20.696-15.883-37.534-35.406-37.534s-35.406,16.838-35.406,37.534c0,20.697,15.883,37.535,35.406,37.535
	C350.098,325.313,365.981,308.475,365.981,287.778z M330.575,305.313c-8.495,0-15.406-7.866-15.406-17.535
	c0-9.668,6.911-17.534,15.406-17.534s15.406,7.866,15.406,17.534C345.981,297.447,339.07,305.313,330.575,305.313z"/>
<path d="M216.833,287.778c0-20.696-15.883-37.534-35.406-37.534s-35.406,16.838-35.406,37.534c0,20.697,15.883,37.535,35.406,37.535
	C200.949,325.313,216.833,308.475,216.833,287.778z M181.427,305.313c-8.495,0-15.406-7.866-15.406-17.535
	c0-9.668,6.911-17.534,15.406-17.534s15.406,7.866,15.406,17.534C196.833,297.447,189.922,305.313,181.427,305.313z"/>
<path d="M223.801,100.176h-0.324c-5.523,0-10,4.477-10,10s4.477,10,10,10h0.324c5.523,0,10-4.477,10-10
	S229.324,100.176,223.801,100.176z"/>
<path d="M320.325,452.176h-0.324c-5.523,0-10,4.477-10,10s4.477,10,10,10h0.324c5.523,0,10-4.477,10-10
	C330.325,456.653,325.848,452.176,320.325,452.176z"/>
<g>
</g>
<g>
</g>
<g>
</g>
<g>
</g>
<g>
</g>
<g>
</g>
<g>
</g>
<g>
</g>
<g>
</g>
<g>
</g>
<g>
</g>
<g>
</g>
<g>
</g>
<g>
</g>
<g>
</g>
</svg>
