<?xml version="1.0" encoding="iso-8859-1"?>
<!-- Generator: Adobe Illustrator 19.0.0, SVG Export Plug-In . SVG Version: 6.00 Build 0)  -->
<svg version="1.1" id="Capa_1" xmlns="http://www.w3.org/2000/svg" xmlns:xlink="http://www.w3.org/1999/xlink" x="0px" y="0px"
	 viewBox="0 0 512.002 512.002" style="enable-background:new 0 0 512.002 512.002;" xml:space="preserve">
<g>
	<path style="fill:#66E2E7;" d="M148.796,209.691c21.957-25.583,35.203-46.526,60.58-34.823c1.031,0.475,4.771,2.988,9.155,6.015
		c11.166-6.69,23.676-9.345,37.47-9.345c13.793,0,26.303,2.655,37.469,9.345c4.385-3.027,8.125-5.54,9.155-6.015
		c25.378-11.703,38.624,9.241,60.581,34.823c23.911,27.858,3.736,61.833-18.881,73.228c0.033,0.174,0.066,0.348,0.099,0.523
		c1.781,9.425,3.083,23.117,2.685,36.336l-0.064,1.863c17.515,30.979-6.878,81.46-66.911,62.984v4.624
		c0,13.283-10.859,24.152-24.133,24.152c-13.273,0-24.133-10.868-24.133-24.152v-4.716c-60.034,18.477-84.427-32.006-66.912-62.984
		c-0.578-13.756,0.76-28.259,2.621-38.106c0.033-0.175,0.066-0.349,0.1-0.523C145.057,271.52,124.886,237.548,148.796,209.691
		L148.796,209.691z M414.375,10H97.628c-16.02,0-29.127,13.107-29.127,29.126v433.749c0,16.02,13.107,29.126,29.127,29.126h316.747
		c16.02,0,29.126-13.106,29.126-29.126V39.126C443.501,23.107,430.394,10,414.375,10z"/>
	<g>
		<path style="fill:#E0AC91;" d="M209.376,174.868c-25.377-11.703-38.623,9.241-60.58,34.823
			c-23.91,27.857-3.738,61.829,18.881,73.227c11.085-58.293,28.205-88.466,50.855-102.036
			C214.147,177.855,210.407,175.343,209.376,174.868z"/>
		<path style="fill:#E0AC91;" d="M293.469,180.882c22.65,13.57,39.77,43.743,50.855,102.037c0.371-0.188,0.741-0.38,1.111-0.579
			c22.158-11.933,41.287-45.249,17.77-72.649c-21.957-25.583-35.203-46.526-60.581-34.823
			C301.594,175.342,297.854,177.855,293.469,180.882z"/>
	</g>
	<path style="fill:#FFCEAC;" d="M344.325,282.919c-11.086-58.294-28.205-88.466-50.855-102.037
		c-11.166-6.69-23.676-9.345-37.469-9.345s-26.304,2.655-37.47,9.345c-22.649,13.57-39.77,43.743-50.855,102.036l-0.1,0.523
		c-1.861,9.847-3.199,24.35-2.621,38.106c8.955-15.84,28.865-26.581,60.568-20.398c0-5.927,4.801-10.73,10.723-10.73l39.538,0.031
		c2.706,0,5.414,1.022,7.497,3.071c2.15,2.117,3.217,4.922,3.193,7.721c31.703-6.182,51.614,4.559,60.569,20.399l0.064-1.863
		c0.398-13.219-0.903-26.911-2.685-36.336L344.325,282.919z"/>
	<path style="fill:#9D7463;" d="M283.282,293.521c-2.083-2.049-4.791-3.071-7.497-3.071l-39.538-0.031
		c-5.922,0-10.723,4.804-10.723,10.73c0,3.211,1.41,6.093,3.645,8.06l19.225,19.64c4.218,4.292,11.008,4.24,15.244,0l19.77-20.197
		c2.025-2.06,3.045-4.732,3.068-7.41C286.499,298.443,285.432,295.638,283.282,293.521z"/>
	<path style="fill:#E0AC91;" d="M263.637,328.849c-4.236,4.24-11.026,4.292-15.244,0l-19.225-19.64
		c-2.234-1.966-3.645-4.848-3.645-8.06c-31.703-6.182-51.613,4.559-60.568,20.398c-17.515,30.978,6.878,81.461,66.912,62.984
		c7.468-2.299,15.487-5.664,24.047-10.267l0.085,0.046c8.592,4.627,16.64,8.008,24.134,10.314
		c60.033,18.476,84.426-32.006,66.911-62.984c-8.955-15.84-28.866-26.581-60.569-20.399c-0.023,2.678-1.044,5.35-3.068,7.41
		L263.637,328.849z"/>
	<path style="fill:#FF8D8D;" d="M255.915,374.265c-8.56,4.603-16.579,7.968-24.047,10.267v4.716
		c0,13.284,10.859,24.152,24.133,24.152c13.273,0,24.133-10.869,24.133-24.152v-4.624c-7.494-2.306-15.542-5.686-24.134-10.314
		L255.915,374.265z"/>
</g>
<path d="M414.375,0H97.628C76.053,0,58.501,17.552,58.501,39.126v433.749c0,21.574,17.552,39.127,39.127,39.127h316.747
	c21.574,0,39.126-17.552,39.126-39.127V39.126C453.501,17.552,435.949,0,414.375,0z M433.501,472.875
	c0,10.546-8.58,19.126-19.126,19.126H97.628c-10.547,0-19.127-8.58-19.127-19.126V39.126C78.501,28.58,87.081,20,97.628,20h316.747
	c10.546,0,19.126,8.58,19.126,19.126V472.875z"/>
<path d="M386.001,72.871h-260c-5.523,0-10,4.477-10,10s4.477,10,10,10h260c5.523,0,10-4.477,10-10S391.524,72.871,386.001,72.871z"
	/>
<path d="M268.208,261.782c4.822,2.693,10.914,0.967,13.607-3.854c1.18-2.113,3.326-3.426,5.6-3.426c2.272,0,4.417,1.313,5.598,3.426
	c1.831,3.278,5.233,5.126,8.74,5.126c1.65,0,3.324-0.41,4.867-1.272c4.822-2.693,6.547-8.785,3.854-13.607
	c-4.711-8.434-13.546-13.673-23.059-13.673c-9.514,0-18.35,5.239-23.061,13.673C261.661,252.997,263.386,259.088,268.208,261.782z"
	/>
<path d="M201.528,248.173c-2.694,4.822-0.969,10.914,3.852,13.608c4.822,2.693,10.914,0.969,13.608-3.852
	c1.181-2.114,3.327-3.427,5.599-3.427c2.273,0,4.419,1.313,5.6,3.427c1.832,3.278,5.233,5.124,8.739,5.124
	c1.65,0,3.325-0.41,4.869-1.272c4.821-2.694,6.546-8.786,3.852-13.608c-4.712-8.433-13.548-13.671-23.06-13.671
	C215.075,234.502,206.24,239.741,201.528,248.173z"/>
<path d="M357.121,319.335c0.26-10.165-0.401-21.39-1.81-31.291c13.918-9.355,24.461-24.562,27.641-40.462
	c3.209-16.043-0.995-31.398-12.158-44.403c-2.364-2.755-4.626-5.456-6.813-8.066c-18.506-22.091-35.988-42.957-65.541-29.328
	c-0.855,0.394-1.96,0.985-5.643,3.452c-10.75-5.143-22.947-7.699-36.797-7.699s-26.047,2.557-36.797,7.699
	c-3.682-2.465-4.787-3.057-5.641-3.45c-29.553-13.628-47.036,7.235-65.543,29.325c-2.187,2.61-4.449,5.311-6.814,8.066
	c-11.163,13.005-15.367,28.359-12.158,44.402c3.181,15.904,13.728,31.115,27.651,40.47c-1.207,8.579-2.109,19.803-1.825,31.2
	c-10.247,20.796-5.995,46.481,10.612,62.991c6.265,6.228,19.866,16.313,42.212,16.312c4.646-0.001,9.677-0.447,15.091-1.444
	c3.559,15.054,17.093,26.292,33.21,26.292c16.085,0,29.599-11.194,33.189-26.203c5.421,1,10.458,1.447,15.11,1.447
	c22.328-0.001,35.933-10.074,42.197-16.297C363.119,365.836,367.377,340.14,357.121,319.335z M348.65,207.956
	c2.236,2.669,4.549,5.431,6.967,8.248c7.111,8.285,9.709,17.522,7.723,27.455c-1.754,8.768-6.629,16.411-12.374,22.126
	c-8.082-35.416-19.163-60.909-33.708-77.649c-1.831-2.108-3.73-4.078-5.689-5.931C323.182,179.145,331.159,187.078,348.65,207.956z
	 M287.64,189.008c0.448,0.321,0.914,0.607,1.402,0.847c18.218,11.404,34.492,37.444,45.411,94.7
	c0.002,0.009,0.004,0.019,0.006,0.029c0.046,0.24,0.093,0.474,0.139,0.715c0.612,3.24,1.215,7.392,1.686,12.079
	c-11.65-6.525-26.408-9.109-43.024-7.278c-0.832-1.317-1.807-2.568-2.964-3.707c-3.895-3.832-9.048-5.942-14.502-5.942
	l-39.546-0.031c-7.328,0-13.765,3.835-17.45,9.595c-16.636-1.843-31.413,0.737-43.074,7.267c0.467-4.615,1.065-8.725,1.681-11.982
	c0.043-0.226,0.087-0.444,0.13-0.669c0.005-0.03,0.012-0.059,0.017-0.089c10.919-57.244,27.191-83.281,45.408-94.685
	c0.489-0.24,0.956-0.527,1.404-0.849c10.169-5.921,20.909-7.47,31.639-7.47C266.731,181.538,277.471,183.086,287.64,189.008z
	 M236.239,300.419l39.546,0.031c0.281,0,0.434,0.15,0.481,0.197c0.138,0.136,0.207,0.314,0.208,0.496c0,0.001,0,0.002,0,0.003
	c-0.001,0.182-0.071,0.365-0.213,0.511l-19.716,20.142c-0.364,0.35-0.839,0.225-1.006,0.055l-19.225-19.64
	c-0.173-0.177-0.354-0.348-0.54-0.512c-0.167-0.147-0.251-0.333-0.251-0.553C235.524,300.747,235.848,300.419,236.239,300.419z
	 M156.383,216.204c2.418-2.817,4.732-5.579,6.968-8.249c17.491-20.878,25.466-28.809,37.079-25.751
	c-1.958,1.854-3.857,3.823-5.688,5.931c-14.544,16.74-25.626,42.233-33.708,77.649c-5.745-5.715-10.621-13.358-12.374-22.126
	C146.674,233.726,149.272,224.489,156.383,216.204z M256.001,403.4c-6.984,0-12.785-5.104-13.918-11.779
	c4.409-1.671,9.016-3.687,13.825-6.089c4.873,2.441,9.536,4.483,13.997,6.176C268.737,398.341,262.954,403.4,256.001,403.4z
	 M332.403,368.158c-14.896,14.797-40.979,13.848-71.66-2.65c-2.97-1.637-6.572-1.66-9.564-0.05
	c-30.603,16.458-56.696,17.405-71.59,2.599c-10.621-10.558-13.285-27.736-6.335-40.844c7.273-13.717,23.226-19.841,44.259-17.221
	c1.135,2.406,2.728,4.6,4.728,6.435l19.021,19.431c3.923,3.992,9.151,6.19,14.722,6.19c5.547,0,10.777-2.177,14.728-6.131
	c0.025-0.024,0.048-0.049,0.072-0.073l19.755-20.182c1.644-1.673,2.926-3.563,3.885-5.57c21.069-2.641,37.046,3.484,44.325,17.218
	C345.699,340.423,343.029,357.602,332.403,368.158z"/>
<path d="M201.954,122.469c0-5.523-4.477-10-10-10h-65.953c-5.523,0-10,4.477-10,10s4.477,10,10,10h65.953
	C197.477,132.469,201.954,127.992,201.954,122.469z"/>
<path d="M221.677,132.469h0.324c5.523,0,10-4.477,10-10s-4.477-10-10-10h-0.324c-5.523,0-10,4.477-10,10
	S216.154,132.469,221.677,132.469z"/>
<path d="M386.001,452.469h-65.952c-5.523,0-10,4.477-10,10s4.477,10,10,10h65.952c5.523,0,10-4.477,10-10
	C396.001,456.946,391.524,452.469,386.001,452.469z"/>
<path d="M290.325,452.469h-0.324c-5.523,0-10,4.477-10,10s4.477,10,10,10h0.324c5.523,0,10-4.477,10-10
	C300.325,456.946,295.848,452.469,290.325,452.469z"/>
<g>
</g>
<g>
</g>
<g>
</g>
<g>
</g>
<g>
</g>
<g>
</g>
<g>
</g>
<g>
</g>
<g>
</g>
<g>
</g>
<g>
</g>
<g>
</g>
<g>
</g>
<g>
</g>
<g>
</g>
</svg>
