<?xml version="1.0" encoding="iso-8859-1"?>
<!-- Generator: Adobe Illustrator 19.0.0, SVG Export Plug-In . SVG Version: 6.00 Build 0)  -->
<svg version="1.1" id="Capa_1" xmlns="http://www.w3.org/2000/svg" xmlns:xlink="http://www.w3.org/1999/xlink" x="0px" y="0px"
	 viewBox="0 0 512 512" style="enable-background:new 0 0 512 512;" xml:space="preserve">
<g>
	<g>
		<path style="fill:#F0F0F0;" d="M10,239.471h127.768l17.057,18.742l46.015-75.147l43.677,54.279l59.387-116.691l71.881,160.668
			l23.128-41.85H502V76.001c0-11.001-9-20-20-20H30c-11,0-20,8.999-20,20V239.471z"/>
		<polygon style="fill:#F0F0F0;" points="200.839,183.066 154.824,258.213 137.768,239.471 10,239.471 10,336.001 502,336.001 
			502,239.471 398.911,239.471 375.783,281.322 303.902,120.654 244.516,237.345 		"/>
	</g>
	<path style="fill:#66E2E7;" d="M502,336.001H10v20c0,11,9,19.999,20,19.999h181h90h181c11,0,20-8.999,20-19.999V336.001z"/>
	<polygon style="fill:#00A2BB;" points="301,376 211,376 190.999,455.999 321,455.999 	"/>
</g>
<path d="M482,46.001H30c-16.542,0-30,13.458-30,30v280C0,372.542,13.458,386,30,386h168.192l-16.895,67.573
	c-0.747,2.987-0.076,6.152,1.819,8.58c1.895,2.427,4.803,3.846,7.882,3.846H321c0.008,0.001,0.016,0.001,0.02,0
	c5.523,0,10-4.478,10-10c0-1.069-0.168-2.1-0.479-3.065L313.808,386H482c16.542,0,30-13.458,30-29.999v-280
	C512,59.459,498.542,46.001,482,46.001z M20,249.471h113.347l14.081,15.473c2.118,2.326,5.205,3.525,8.339,3.225
	c3.132-0.297,5.942-2.05,7.585-4.733l38.599-63.036l34.773,43.216c2.127,2.643,5.448,4.031,8.823,3.677
	c3.374-0.35,6.341-2.387,7.88-5.411l49.894-98.038l63.334,141.564c1.548,3.46,4.92,5.748,8.707,5.907
	c0.142,0.006,0.282,0.009,0.423,0.009c3.627,0,6.985-1.969,8.75-5.163l20.275-36.688H492v76.529H20V249.471z M30,66.001h452
	c5.514,0,10,4.486,10,10v153.471h-93.089c-3.64,0-6.992,1.977-8.752,5.163l-13.434,24.308L313.03,116.57
	c-1.573-3.517-5.026-5.816-8.878-5.913c-3.842-0.101-7.415,2.028-9.162,5.462l-52.375,102.913l-33.985-42.235
	c-2.04-2.534-5.187-3.907-8.431-3.71c-3.247,0.208-6.189,1.983-7.888,4.758l-39.058,63.785l-8.089-8.889
	c-1.895-2.082-4.581-3.27-7.396-3.27H20V76.001C20,70.487,24.486,66.001,30,66.001z M308.192,445.999H203.807L218.808,386h74.385
	L308.192,445.999z M482,366H301h-90H30c-5.514,0-10-4.485-10-9.999v-10h472v10C492,361.514,487.514,366,482,366z"/>
<path d="M140.676,101.001H141c5.523,0,10-4.478,10-10s-4.477-10-10-10h-0.324c-5.523,0-10,4.478-10,10
	S135.153,101.001,140.676,101.001z"/>
<path d="M45,101.001h65.952c5.523,0,10-4.478,10-10s-4.477-10-10-10H45c-5.523,0-10,4.478-10,10S39.477,101.001,45,101.001z"/>
<g>
</g>
<g>
</g>
<g>
</g>
<g>
</g>
<g>
</g>
<g>
</g>
<g>
</g>
<g>
</g>
<g>
</g>
<g>
</g>
<g>
</g>
<g>
</g>
<g>
</g>
<g>
</g>
<g>
</g>
</svg>
