<?xml version="1.0" encoding="iso-8859-1"?>
<!-- Generator: Adobe Illustrator 19.0.0, SVG Export Plug-In . SVG Version: 6.00 Build 0)  -->
<svg version="1.1" id="Capa_1" xmlns="http://www.w3.org/2000/svg" xmlns:xlink="http://www.w3.org/1999/xlink" x="0px" y="0px"
	 viewBox="0 0 511.998 511.998" style="enable-background:new 0 0 511.998 511.998;" xml:space="preserve">
<g>
	<g>
		<ellipse style="fill:#FFCEAC;" cx="192.049" cy="303.29" rx="21.788" ry="23.612"/>
		<ellipse style="fill:#FFCEAC;" cx="256.699" cy="273.77" rx="21.788" ry="23.613"/>
		<ellipse style="fill:#FFCEAC;" cx="319.949" cy="303.29" rx="21.788" ry="23.612"/>
		<ellipse style="fill:#FFCEAC;" cx="255.999" cy="378.34" rx="43.32" ry="43.501"/>
	</g>
	<path style="fill:#F0F0F0;" d="M207.594,198.895h96.809c0-26.733-21.672-48.404-48.404-48.404
		c-13.367,0-25.468,5.418-34.227,14.178C213.012,173.427,207.594,185.528,207.594,198.895z"/>
	<path style="fill:#66E2E7;" d="M255.999,150.49c26.732,0,48.404,21.671,48.404,48.404h81.596V90.645
		c-79.94-32.676-166.061-35.324-260,0v108.25h81.596c0-13.366,5.418-25.468,14.178-34.227
		C230.531,155.908,242.632,150.49,255.999,150.49z"/>
	<path style="fill:#00A2BB;" d="M125.999,90.645c93.939-35.324,180.06-32.676,260,0v108.25h-81.596h-96.809h-81.595V90.645
		L125.999,90.645z M465.999,72.9c0-34.596-28.306-62.9-62.9-62.9h-294.2c-34.596,0-62.9,28.305-62.9,62.9v366.198
		c0,34.596,28.305,62.9,62.9,62.9h294.199c34.595,0,62.9-28.305,62.9-62.9V72.9H465.999z M255.999,334.842
		c23.928,0,43.324,19.477,43.324,43.501c0,24.025-19.396,43.501-43.324,43.501s-43.324-19.476-43.324-43.501
		C212.674,354.318,232.072,334.842,255.999,334.842L255.999,334.842z M256.704,250.161c12.033,0,21.788,10.571,21.788,23.612
		s-9.755,23.613-21.788,23.613s-21.787-10.572-21.787-23.613C234.917,260.733,244.671,250.161,256.704,250.161L256.704,250.161z
		 M298.164,303.29c0-13.041,9.755-23.613,21.788-23.613s21.788,10.572,21.788,23.613s-9.755,23.612-21.788,23.612
		S298.164,316.331,298.164,303.29L298.164,303.29z M192.046,279.677c12.033,0,21.788,10.572,21.788,23.613
		s-9.755,23.612-21.788,23.612c-12.033,0-21.788-10.571-21.788-23.612S180.012,279.677,192.046,279.677z"/>
</g>
<path d="M403.098,0H108.899c-40.197,0-72.9,32.703-72.9,72.9v366.198c0,40.197,32.703,72.9,72.9,72.9h294.199
	c40.197,0,72.9-32.703,72.9-72.9V72.9C475.999,32.703,443.295,0,403.098,0z M455.999,439.099c0,29.17-23.731,52.9-52.9,52.9h-294.2
	c-29.169,0-52.9-23.731-52.9-52.9V72.9c0-29.17,23.731-52.9,52.9-52.9h294.199c29.169,0,52.9,23.73,52.9,52.9v366.199H455.999z"/>
<path d="M389.782,81.388c-42.618-17.42-86.713-26.253-131.061-26.253c-44.26,0-90.099,8.798-136.243,26.149
	c-3.899,1.467-6.48,5.195-6.48,9.36v108.25c0,5.522,4.477,10,10,10h260c5.523,0,10-4.478,10-10V90.645
	C395.999,86.583,393.542,82.925,389.782,81.388z M255.999,160.49c17.717,0,32.663,12.063,37.075,28.404h-74.15
	C223.335,172.553,238.281,160.49,255.999,160.49z M375.999,188.895h-62.47c-4.759-27.454-28.737-48.404-57.53-48.404
	c-12.498,0-24.082,3.959-33.591,10.671l-33.68-33.68c-3.905-3.904-10.236-3.904-14.142,0c-3.905,3.905-3.905,10.237,0,14.143
	l33.679,33.679c-4.88,6.915-8.294,14.927-9.797,23.592h-62.469v-91.27c41.682-14.928,82.937-22.491,122.723-22.491
	c39.592,0,79.013,7.497,117.277,22.294V188.895z"/>
<path d="M255.999,324.842c-29.403,0-53.324,24-53.324,53.501s23.921,53.501,53.324,53.501s53.324-24,53.324-53.501
	S285.401,324.842,255.999,324.842z M255.999,411.844c-18.375,0-33.324-15.028-33.324-33.501s14.949-33.501,33.324-33.501
	s33.324,15.028,33.324,33.501C289.323,396.815,274.374,411.844,255.999,411.844z"/>
<path d="M319.952,269.677c-17.528,0-31.788,15.079-31.788,33.613s14.26,33.612,31.788,33.612c17.528,0,31.788-15.078,31.788-33.612
	S337.48,269.677,319.952,269.677z M319.952,316.902c-6.5,0-11.788-6.107-11.788-13.612c0-7.507,5.288-13.613,11.788-13.613
	s11.788,6.107,11.788,13.613C331.74,310.796,326.452,316.902,319.952,316.902z"/>
<path d="M288.492,273.773c0-18.534-14.26-33.612-31.788-33.612c-17.527,0-31.787,15.078-31.787,33.612s14.26,33.613,31.787,33.613
	C274.231,307.387,288.492,292.308,288.492,273.773z M244.917,273.773c0-7.506,5.288-13.612,11.787-13.612
	c6.5,0,11.788,6.106,11.788,13.612c0,7.507-5.288,13.613-11.788,13.613C250.204,287.387,244.917,281.28,244.917,273.773z"/>
<path d="M223.835,303.29c0-18.534-14.26-33.613-31.788-33.613s-31.788,15.079-31.788,33.613s14.26,33.612,31.788,33.612
	C209.574,336.902,223.835,321.824,223.835,303.29z M192.046,316.902c-6.5,0-11.788-6.107-11.788-13.612
	c0-7.507,5.288-13.613,11.788-13.613s11.788,6.107,11.788,13.613C203.835,310.796,198.546,316.902,192.046,316.902z"/>
<path d="M174.852,456.999h-65.953c-5.523,0-10,4.477-10,10c0,5.522,4.477,10,10,10h65.953c5.523,0,10-4.478,10-10
	S180.376,456.999,174.852,456.999z"/>
<path d="M204.899,456.999h-0.324c-5.523,0-10,4.477-10,10c0,5.522,4.477,10,10,10h0.324c5.523,0,10-4.478,10-10
	S210.423,456.999,204.899,456.999z"/>
<g>
</g>
<g>
</g>
<g>
</g>
<g>
</g>
<g>
</g>
<g>
</g>
<g>
</g>
<g>
</g>
<g>
</g>
<g>
</g>
<g>
</g>
<g>
</g>
<g>
</g>
<g>
</g>
<g>
</g>
</svg>
