<?xml version="1.0" encoding="iso-8859-1"?>
<!-- Generator: Adobe Illustrator 19.0.0, SVG Export Plug-In . SVG Version: 6.00 Build 0)  -->
<svg version="1.1" id="Capa_1" xmlns="http://www.w3.org/2000/svg" xmlns:xlink="http://www.w3.org/1999/xlink" x="0px" y="0px"
	 viewBox="0 0 512 512" style="enable-background:new 0 0 512 512;" xml:space="preserve">
<g>
	<path style="fill:#66E2E7;" d="M66,63.475h280V42.897C346,24.804,331.196,10,313.102,10H98.898C80.804,10,66,24.804,66,42.897
		V63.475z"/>
	<path style="fill:#F0F0F0;" d="M346,63.475H66v352.962h280V218.476h-18.389l-36.148,26.354
		C273.449,258.975,266,255.322,266,240.761v-22.285c-11,0-20-9-20-20v-80c0-11,9-20,20-20h80V63.475L346,63.475z M122.701,242.584
		c2.212-7.134,6.85-14.763,12.527-19.472c2.833-2.35,9.26-5.985,13.107-5.279c6.997,1.284,14.035,11.523,18.804,18.622
		c10.683,14.989,11.914,21.331,4.841,30.754c-4.955,3.563,0.564,18.485,12.95,30.784c18.966,18.833,50.585,34.964,58.35,21.724
		c9.444-16.103,49.47,3.279,48.005,19.027c-4.053,17.307-25.214,23.464-42.913,26.086c-50.835,4.247-105.877-44.126-122.203-81.635
		C121.203,271.79,118.607,255.789,122.701,242.584z"/>
	<path style="fill:#FD4A4A;" d="M266,98.476c-11,0-20,9-20,20v80c0,11,9,20,20,20v22.285c0,14.561,7.449,18.214,25.463,4.068
		l36.148-26.354H346h80c11,0,20-9,20-20v-80c0-11-9-20-20-20h-80h-80V98.476z"/>
	<path style="fill:#FF8D8D;" d="M243.28,319.717c-7.765,13.24-39.384-2.891-58.35-21.724c-12.386-12.299-17.905-27.222-12.95-30.784
		c7.073-9.423,5.842-15.765-4.841-30.754c-4.768-7.099-11.807-17.338-18.804-18.622c-3.848-0.706-10.274,2.93-13.107,5.279
		c-5.678,4.709-10.315,12.338-12.527,19.472c-4.094,13.205-1.498,29.206,3.468,40.611c16.326,37.509,71.368,85.882,122.203,81.635
		c17.699-2.622,38.86-8.779,42.913-26.086C292.75,322.996,252.725,303.613,243.28,319.717z"/>
	<path style="fill:#66E2E7;" d="M346,416.437H66v52.665C66,487.195,80.804,502,98.898,502h214.203
		C331.196,502,346,487.195,346,469.102V416.437z"/>
</g>
<path d="M206.258,442.923c-8.974,0-16.293,7.319-16.293,16.294c0,8.974,7.319,16.293,16.293,16.293
	c8.975,0,16.294-7.319,16.294-16.293C222.552,450.242,215.232,442.923,206.258,442.923z"/>
<path d="M176.953,98.477c0-5.522-4.477-10-10-10H101c-5.523,0-10,4.478-10,10s4.477,10,10,10h65.953
	C172.476,108.477,176.953,103.999,176.953,98.477z"/>
<path d="M196.676,108.477H197c5.523,0,10-4.478,10-10s-4.477-10-10-10h-0.324c-5.523,0-10,4.478-10,10
	S191.153,108.477,196.676,108.477z"/>
<path d="M255.943,303.662c-9.455,0-16.949,3.813-21.138,10.743c-0.236,0.064-0.71,0.153-1.507,0.153
	c-8.448,0-27.068-9.508-41.321-23.661c-7.869-7.814-11.014-15.119-11.67-18.128c11.67-15.946,4.691-28.474-4.943-42.005
	c-7.049-10.487-14.808-20.855-25.222-22.768c-0.917-0.168-1.876-0.253-2.852-0.253c-9.089,0-18.066,7.357-18.444,7.671
	c-6.903,5.726-12.77,14.774-15.695,24.208c-5.17,16.675-1.4,35.504,3.85,47.564c8.686,19.957,26.827,41.782,48.526,58.382
	c24.886,19.038,52.059,29.523,76.516,29.523c2.401,0,4.811-0.1,7.163-0.297l0.633-0.073c29.76-4.41,46.98-15.748,51.184-33.697
	l0.157-0.67l0.064-0.684c0.41-4.412-0.539-11.25-7.389-18.769C284.75,310.913,268.807,303.662,255.943,303.662z M247.228,354.89
	c-1.702,0.134-3.445,0.202-5.187,0.202c-45.645,0-92.911-44.199-106.704-75.889c-3.643-8.366-6.636-22.201-3.085-33.657
	c1.768-5.703,5.442-11.487,9.36-14.736c1.443-1.197,3.98-2.521,5.354-2.947c2.365,1.193,6.354,5.952,11.872,14.168l0.158,0.229
	c8.752,12.28,8.354,14.356,5.59,18.137c-2.516,2.453-4.043,5.847-4.353,9.754c-0.779,9.804,6.15,23.518,17.651,34.939
	c14.747,14.645,38.517,29.47,55.413,29.47c8.301,0,14.909-3.475,18.609-9.783c0.621-1.059,3.472-1.113,4.037-1.113
	c4.913,0,11.695,2.32,17.275,5.912c5.288,3.402,7.569,6.634,8.023,7.988C278.458,346.085,267.025,351.912,247.228,354.89z"/>
<path d="M426,88.476h-70V42.897C356,19.244,336.756,0,313.102,0H98.898C75.244,0,56,19.244,56,42.897v426.204
	C56,492.756,75.244,512,98.898,512h214.203C336.756,512,356,492.756,356,469.102V228.476h70c16.542,0,30-13.458,30-30v-80
	C456,101.934,442.542,88.476,426,88.476z M98.898,20h214.203C325.728,20,336,30.271,336,42.897v10.577H76V42.897
	C76,30.271,86.272,20,98.898,20z M313.102,492H98.898C86.272,492,76,481.728,76,469.102v-42.665h260v42.665
	C336,481.728,325.728,492,313.102,492z M336,406.437H76V73.475h260v15.001h-70c-16.542,0-30,13.458-30,30v80
	c0,13.037,8.359,24.159,20,28.286v13.999c0,21.884,14.769,22.992,17.729,22.992c6.67,0,14.226-3.479,23.765-10.946l33.375-24.331
	H336V406.437z M436,198.476c0,5.514-4.486,10-10,10h-98.389c-2.117,0-4.18,0.672-5.891,1.92l-36.148,26.354
	c-0.096,0.069-0.191,0.142-0.285,0.215c-4.391,3.448-7.366,5.148-9.201,5.983c-0.052-0.598-0.086-1.32-0.086-2.186v-22.285
	c0-5.522-4.477-10-10-10c-5.514,0-10-4.486-10-10v-80c0-5.514,4.486-10,10-10h160c5.514,0,10,4.486,10,10V198.476z"/>
<path d="M370.82,148.476H356v-14.82c0-5.522-4.477-10-10-10s-10,4.478-10,10v14.82h-14.82c-5.523,0-10,4.478-10,10s4.477,10,10,10
	H336v14.819c0,5.522,4.477,10,10,10s10-4.478,10-10v-14.819h14.82c5.523,0,10-4.478,10-10
	C380.82,152.953,376.343,148.476,370.82,148.476z"/>
<g>
</g>
<g>
</g>
<g>
</g>
<g>
</g>
<g>
</g>
<g>
</g>
<g>
</g>
<g>
</g>
<g>
</g>
<g>
</g>
<g>
</g>
<g>
</g>
<g>
</g>
<g>
</g>
<g>
</g>
</svg>
