<?xml version="1.0" encoding="iso-8859-1"?>
<!-- Generator: Adobe Illustrator 19.0.0, SVG Export Plug-In . SVG Version: 6.00 Build 0)  -->
<svg version="1.1" id="Capa_1" xmlns="http://www.w3.org/2000/svg" xmlns:xlink="http://www.w3.org/1999/xlink" x="0px" y="0px"
	 viewBox="0 0 512.002 512.002" style="enable-background:new 0 0 512.002 512.002;" xml:space="preserve">
<g>
	<path style="fill:#00A2BB;" d="M204.723,70.001h102.558h6.758c10.607,0,19.286-8.679,19.286-19.286v-21.43
		c0-10.606-8.679-19.285-19.286-19.285H197.964c-10.607,0-19.285,8.679-19.285,19.285v21.43c0,10.607,8.678,19.286,19.285,19.286
		H204.723z"/>
	<path style="fill:#66E2E7;" d="M339.261,122.536c-14.975-23.38-28.428-44.836-31.98-52.535H204.723
		c-3.503,7.59-16.625,28.546-31.341,51.536c33.565,19.757,42.328-17.812,77.461-2.887
		C298.192,138.766,291.785,109.314,339.261,122.536z"/>
	<path style="fill:#F0F0F0;" d="M339.261,122.536c-47.477-13.222-41.069,16.229-88.418-3.886
		c-35.133-14.925-43.896,22.644-77.461,2.887c-11.129,17.386-23.168,35.934-32.648,50.745
		c-20.644,32.25-17.395,35.027-17.395,72.339v230.381c0,14.85,12.152,26.999,27,26.999h105.662h105.662
		c14.849,0,27-12.149,27-26.999v-11.383V244.621c0-37.312,3.249-40.089-17.393-72.339
		C361.97,157.754,350.209,139.631,339.261,122.536L339.261,122.536z M256.001,315.31c21.396,0,38.743,17.416,38.743,38.9
		c0,21.484-17.347,38.901-38.743,38.901c-21.397,0-38.742-17.417-38.742-38.901C217.259,332.726,234.605,315.31,256.001,315.31
		L256.001,315.31z M197.799,265.978c10.761,0,19.483,9.454,19.483,21.116c0,11.661-8.723,21.116-19.483,21.116
		c-10.761,0-19.483-9.455-19.483-21.116C178.316,275.432,187.039,265.978,197.799,265.978L197.799,265.978z M256.001,239.583
		c10.761,0,19.484,9.454,19.484,21.116c0,11.662-8.724,21.115-19.484,21.115c-10.761,0-19.484-9.453-19.484-21.115
		C236.517,249.037,245.241,239.583,256.001,239.583L256.001,239.583z M314.204,266.123c10.761,0,19.483,9.454,19.483,21.116
		s-8.723,21.115-19.483,21.115c-10.761,0-19.483-9.453-19.483-21.115S303.443,266.123,314.204,266.123z"/>
	<g>
		<ellipse style="fill:#00A2BB;" cx="197.801" cy="287.09" rx="19.483" ry="21.12"/>
		<ellipse style="fill:#00A2BB;" cx="256.001" cy="260.7" rx="19.484" ry="21.11"/>
		<ellipse style="fill:#00A2BB;" cx="314.201" cy="287.24" rx="19.483" ry="21.11"/>
		<ellipse style="fill:#00A2BB;" cx="256.001" cy="354.21" rx="38.743" ry="38.9"/>
	</g>
</g>
<path d="M256.001,305.31c-26.877,0-48.742,21.937-48.742,48.9c0,26.964,21.866,48.901,48.742,48.901
	c26.877,0,48.743-21.938,48.743-48.901C304.745,327.246,282.878,305.31,256.001,305.31z M256.001,383.111
	c-15.849,0-28.742-12.965-28.742-28.901c0-15.935,12.894-28.9,28.742-28.9c15.849,0,28.743,12.965,28.743,28.9
	C284.745,370.147,271.851,383.111,256.001,383.111z"/>
<path d="M226.517,260.699c0,17.157,13.227,31.115,29.484,31.115c16.258,0,29.484-13.958,29.484-31.115s-13.227-31.116-29.484-31.116
	C239.744,229.583,226.517,243.542,226.517,260.699z M256.001,249.583c5.23,0,9.484,4.986,9.484,11.116
	c0,6.129-4.254,11.115-9.484,11.115c-5.23,0-9.484-4.986-9.484-11.115C246.517,254.569,250.771,249.583,256.001,249.583z"/>
<path d="M314.204,318.354c16.257,0,29.483-13.958,29.483-31.115c0-17.157-13.226-31.116-29.483-31.116s-29.483,13.959-29.483,31.116
	C284.72,304.397,297.946,318.354,314.204,318.354z M314.204,276.123c5.229,0,9.483,4.986,9.483,11.116
	c0,6.129-4.254,11.115-9.483,11.115s-9.483-4.986-9.483-11.115C304.72,281.109,308.975,276.123,314.204,276.123z"/>
<path d="M227.283,287.094c0-17.157-13.226-31.116-29.483-31.116s-29.483,13.959-29.483,31.116s13.226,31.116,29.483,31.116
	S227.283,304.251,227.283,287.094z M197.799,298.21c-5.229,0-9.483-4.986-9.483-11.116s4.254-11.116,9.483-11.116
	s9.483,4.986,9.483,11.116C207.283,293.224,203.028,298.21,197.799,298.21z"/>
<path d="M379.692,166.892c-4.556-7.118-9.702-15.097-15.054-23.396C350.2,121.108,333.15,94.67,323.43,78.447
	c11.554-3.925,19.893-14.869,19.893-27.732v-21.43C343.325,13.138,330.187,0,314.039,0H197.964
	c-16.148,0-29.285,13.138-29.285,29.285v21.43c0,12.863,8.339,23.808,19.893,27.732c-9.715,16.217-26.755,42.64-41.186,65.016
	c-5.359,8.311-10.513,16.302-15.075,23.428c-18.812,29.39-19.442,37.041-19.079,64.717c0.05,3.816,0.107,8.143,0.107,13.014v230.381
	c0,20.401,16.598,36.999,37,36.999h211.324c20.402,0,37-16.598,37-36.999V244.621c0-4.871,0.057-9.197,0.107-13.015
	C399.134,203.932,398.503,196.28,379.692,166.892z M301.222,80.001c3.843,6.918,10.099,17.134,17.601,29.039
	c-11.125-0.354-18.653,2.02-25.163,4.078c-9.693,3.064-17.35,5.486-38.907-3.672c-21.148-8.985-35.204-2.368-46.497,2.946
	c-7.57,3.563-13.006,6.116-20.104,4.591c9.709-15.274,17.955-28.568,22.629-36.982C210.781,80.001,301.222,80.001,301.222,80.001z
	 M188.679,29.285c0-5.12,4.165-9.285,9.285-9.285h116.074c5.121,0,9.286,4.165,9.286,9.285v21.43c0,5.12-4.165,9.286-9.286,9.286
	H197.964c-5.12,0-9.285-4.166-9.285-9.286V29.285z M361.664,492.001H150.339c-9.374,0-17-7.626-17-16.999V244.621
	c0-5.003-0.058-9.398-0.109-13.276c-0.3-22.897-0.361-27.653,13.008-49.063h60.447c5.523,0,10-4.477,10-10c0-5.522-4.477-10-10-10
	h-47.637c1.686-2.615,3.403-5.277,5.145-7.979c4.288-6.649,8.603-13.34,12.811-19.889c5.575,2.17,10.644,3.032,15.295,3.032
	c9.689,0,17.573-3.71,24.473-6.958c10.014-4.714,17.251-8.118,30.16-2.634c28.361,12.048,40.763,8.126,52.758,4.332
	c8.328-2.633,16.222-5.13,33.256-0.967c4.856,7.567,9.888,15.371,14.884,23.116c5.339,8.278,10.472,16.237,15.017,23.337
	c16.295,25.458,16.246,29.217,15.925,53.671c-0.051,3.879-0.109,8.274-0.109,13.277v208.998H322.71c-5.523,0-10,4.478-10,10
	s4.477,10,10,10h55.953v1.383C378.664,484.375,371.038,492.001,361.664,492.001z"/>
<path d="M236.409,182.282h0.324c5.523,0,10-4.477,10-10c0-5.522-4.477-10-10-10h-0.324c-5.523,0-10,4.478-10,10
	C226.409,177.805,230.886,182.282,236.409,182.282z"/>
<path d="M292.988,453.619h-0.324c-5.523,0-10,4.478-10,10s4.477,10,10,10h0.324c5.523,0,10-4.478,10-10
	S298.511,453.619,292.988,453.619z"/>
<g>
</g>
<g>
</g>
<g>
</g>
<g>
</g>
<g>
</g>
<g>
</g>
<g>
</g>
<g>
</g>
<g>
</g>
<g>
</g>
<g>
</g>
<g>
</g>
<g>
</g>
<g>
</g>
<g>
</g>
</svg>
