<?xml version="1.0" encoding="iso-8859-1"?>
<!-- Generator: Adobe Illustrator 19.0.0, SVG Export Plug-In . SVG Version: 6.00 Build 0)  -->
<svg version="1.1" id="Capa_1" xmlns="http://www.w3.org/2000/svg" xmlns:xlink="http://www.w3.org/1999/xlink" x="0px" y="0px"
	 viewBox="0 0 512.002 512.002" style="enable-background:new 0 0 512.002 512.002;" xml:space="preserve">
<g>
	<polygon style="fill:#FFA655;" points="81.557,69.3 425.244,69.3 456.001,10 56.001,10 	"/>
	<path style="fill:#FEC478;" d="M425.244,69.3H81.557v373.401h343.687V69.3L425.244,69.3z M313.992,160.177
		c8.292,8.292,10.316,20.477,6.077,30.671c10.194-4.239,22.379-2.216,30.671,6.077c10.974,10.973,10.974,28.764,0,39.737
		c-10.836,10.836-28.319,10.971-39.322,0.406l-77.017,77.017c9.12,11.038,8.516,27.409-1.814,37.74
		c-10.973,10.973-28.765,10.973-39.737,0c-8.292-8.292-10.317-20.477-6.077-30.671c-10.194,4.239-22.379,2.215-30.671-6.077
		c-10.974-10.973-10.974-28.765,0-39.738c10.974-10.973,28.765-10.973,39.737,0.001c0.364,0.363,0.715,0.735,1.055,1.113
		l76.955-76.954c-10.564-11.003-10.43-28.486,0.406-39.322C285.227,149.203,303.018,149.203,313.992,160.177z"/>
	<path style="fill:#F0F0F0;" d="M313.992,160.177c-10.974-10.974-28.765-10.974-39.737,0c-10.836,10.836-10.971,28.319-0.406,39.322
		l-76.955,76.954c-0.34-0.378-0.69-0.75-1.055-1.113c-10.973-10.974-28.764-10.974-39.737-0.001
		c-10.974,10.974-10.974,28.766,0,39.738c8.292,8.292,20.477,10.316,30.671,6.077c-4.24,10.194-2.215,22.379,6.077,30.671
		c10.973,10.973,28.765,10.973,39.737,0c10.33-10.331,10.935-26.702,1.814-37.74l77.017-77.017
		c11.003,10.564,28.486,10.43,39.322-0.406c10.974-10.974,10.974-28.765,0-39.737c-8.292-8.293-20.477-10.316-30.671-6.077
		C324.308,180.653,322.284,168.469,313.992,160.177z"/>
	<polygon style="fill:#FFA655;" points="425.244,442.701 81.557,442.701 63.801,502.002 442.999,502.002 	"/>
</g>
<path d="M464.878,14.604c1.607-3.101,1.482-6.814-0.332-9.799C462.733,1.822,459.494,0,456.001,0H56.002
	c-3.365,0-6.504,1.692-8.354,4.504c-1.85,2.811-2.161,6.363-0.83,9.453l24.738,57.406v369.873l-17.335,57.898
	c-0.906,3.027-0.328,6.305,1.558,8.84c1.888,2.534,4.861,4.028,8.021,4.028h379.198c0.005-0.001,0.012-0.001,0.02,0
	c5.523,0,10-4.477,10-10c0-1.23-0.222-2.408-0.628-3.497l-17.147-57.269V71.739L464.878,14.604z M91.557,432.701V79.3h323.687
	v353.401H91.557z M71.201,20H439.55l-20.384,39.3H88.137L71.201,20z M77.234,492.002l11.767-39.301h328.798l11.768,39.301
	L77.234,492.002L77.234,492.002z"/>
<path d="M357.811,243.733c7.195-7.196,11.159-16.764,11.159-26.941c0-10.177-3.964-19.744-11.159-26.938
	c-6.876-6.877-15.918-10.801-25.589-11.136c-0.321-9.444-4.168-18.621-11.159-25.613c-7.196-7.195-16.764-11.159-26.94-11.159
	c-10.177,0-19.744,3.964-26.939,11.159c-12.157,12.158-14.331,30.85-6.412,45.328l-64.512,64.512
	c-6.019-3.801-12.997-5.836-20.289-5.836c-10.177,0-19.744,3.964-26.939,11.159c-7.196,7.195-11.16,16.763-11.16,26.94
	s3.964,19.744,11.159,26.94c6.877,6.876,15.918,10.8,25.589,11.134c0.321,9.445,4.168,18.622,11.159,25.614
	c7.195,7.195,16.764,11.158,26.939,11.158c10.177,0,19.744-3.963,26.941-11.159c11.722-11.723,14.349-29.107,7.458-43.384
	l65.348-65.349c5.58,3.085,11.882,4.729,18.409,4.729C341.048,254.892,350.615,250.929,357.811,243.733z M304.346,229.996
	l-77.017,77.017c-3.646,3.646-3.922,9.466-0.638,13.44c5.964,7.219,5.458,17.666-1.177,24.301
	c-3.418,3.418-7.963,5.301-12.798,5.301c-4.834,0-9.38-1.883-12.798-5.3c-5.205-5.206-6.741-12.962-3.914-19.761
	c1.555-3.739,0.701-8.047-2.162-10.911c-1.913-1.913-4.471-2.929-7.073-2.929c-1.293,0-2.597,0.251-3.838,0.767
	c-2.21,0.919-4.553,1.385-6.964,1.385c-4.834,0-9.379-1.882-12.796-5.3c-3.419-3.418-5.302-7.964-5.302-12.798
	s1.883-9.379,5.302-12.797c3.418-3.419,7.964-5.302,12.798-5.302s9.379,1.883,12.807,5.312c0.235,0.234,0.462,0.475,0.681,0.719
	c1.835,2.041,4.428,3.237,7.171,3.31c2.781,0.099,5.395-0.986,7.336-2.925l76.955-76.954c3.849-3.85,3.912-10.07,0.142-13.997
	c-6.769-7.05-6.65-18.411,0.265-25.326c3.418-3.418,7.963-5.301,12.797-5.301c4.834,0,9.38,1.883,12.798,5.302
	c5.206,5.205,6.742,12.961,3.915,19.76c-1.555,3.739-0.701,8.047,2.162,10.911c2.863,2.864,7.172,3.716,10.911,2.162
	c2.21-0.919,4.554-1.386,6.965-1.386c4.834,0,9.378,1.883,12.796,5.301s5.301,7.963,5.301,12.797s-1.883,9.38-5.302,12.798
	c-3.418,3.418-7.962,5.301-12.796,5.301c-4.696,0-9.147-1.789-12.529-5.037C314.418,226.083,308.197,226.148,304.346,229.996z"/>
<path d="M294.569,397.701h-0.324c-5.522,0-10,4.478-10,10s4.478,10,10,10h0.324c5.522,0,10-4.478,10-10
	S300.091,397.701,294.569,397.701z"/>
<path d="M390.244,397.701h-65.953c-5.522,0-10,4.478-10,10s4.478,10,10,10h65.952c5.522,0,10-4.478,10-10
	C400.244,402.179,395.766,397.701,390.244,397.701z"/>
<path d="M192.509,104.301c0-5.522-4.478-10-10-10h-65.952c-5.522,0-10,4.478-10,10s4.478,10,10,10h65.952
	C188.032,114.301,192.509,109.823,192.509,104.301z"/>
<path d="M212.233,114.301h0.324c5.522,0,10-4.478,10-10s-4.478-10-10-10h-0.324c-5.522,0-10,4.478-10,10
	C202.233,109.823,206.71,114.301,212.233,114.301z"/>
<g>
</g>
<g>
</g>
<g>
</g>
<g>
</g>
<g>
</g>
<g>
</g>
<g>
</g>
<g>
</g>
<g>
</g>
<g>
</g>
<g>
</g>
<g>
</g>
<g>
</g>
<g>
</g>
<g>
</g>
</svg>
