<?xml version="1.0" encoding="iso-8859-1"?>
<!-- Generator: Adobe Illustrator 19.0.0, SVG Export Plug-In . SVG Version: 6.00 Build 0)  -->
<svg version="1.1" id="Capa_1" xmlns="http://www.w3.org/2000/svg" xmlns:xlink="http://www.w3.org/1999/xlink" x="0px" y="0px"
	 viewBox="0 0 512.002 512.002" style="enable-background:new 0 0 512.002 512.002;" xml:space="preserve">
<g>
	<rect x="119.61" y="10" style="fill:#F0F0F0;" width="39.2" height="39.2"/>
	<path style="fill:#66E2E7;" d="M158.808,49.203h-39.203c-12.754,0-23.188,10.435-23.188,23.189v110.435
		c0,12.754,10.435,23.188,23.188,23.188h39.203c12.755,0,23.189-10.435,23.189-23.188v-17.735V73.613v-1.221
		C181.998,59.638,171.563,49.203,158.808,49.203z"/>
	<rect x="119.61" y="206.02" style="fill:#FFA655;" width="39.2" height="37.24"/>
	<path style="fill:#66E2E7;" d="M273.809,63.864v220.807v35.034v102.297h141.777V63.864c0-21.002-15.4-38.187-34.213-38.187h-73.352
		C289.208,25.678,273.809,42.867,273.809,63.864L273.809,63.864z M344.697,278.068c16.568,0,30,13.432,30,30s-13.432,30-30,30
		s-30-13.432-30-30S328.128,278.068,344.697,278.068z"/>
	<circle style="fill:#FFA655;" cx="344.701" cy="308.07" r="30"/>
	<path style="fill:#F0F0F0;" d="M273.809,319.705v-35.034H114.264c-9.634,0-17.517,7.883-17.517,17.517
		c0,9.635,7.883,17.517,17.517,17.517H273.809z"/>
	<path style="fill:#66E2E7;" d="M194.755,368.571c0-8.816-7.214-16.03-16.031-16.03h-63.49c-8.817,0-16.031,7.214-16.031,16.03
		c0,8.817,7.214,16.031,16.031,16.031h10.745h41.999h10.746C187.541,384.603,194.755,377.389,194.755,368.571z"/>
	<rect x="125.98" y="384.6" style="fill:#FFA655;" width="41.999" height="37.4"/>
	<g>
		<path style="fill:#00A2BB;" d="M167.978,422.002h-41.999H66.001c-11.001,0-20,8.999-20,20v60H466v-60c0-11.001-8.999-20-19.999-20
			h-30.416H273.809H167.978z"/>
		<rect x="182" y="73.61" style="fill:#00A2BB;" width="91.81" height="91.48"/>
	</g>
</g>
<path d="M446.001,412.002h-20.416V63.864c0-26.57-19.834-48.187-44.213-48.187h-73.352c-24.302,0-44.082,21.48-44.207,47.936H190.81
	c-2.979-10.845-11.328-19.487-22.002-22.868V10c0-5.523-4.477-10-10-10h-39.202c-5.522,0-10,4.477-10,10v30.745
	c-13.429,4.253-23.189,16.83-23.189,31.647v110.435c0,14.816,9.761,27.393,23.188,31.645v28.786c0,5.522,4.478,10,10,10h39.203
	c5.523,0,10-4.478,10-10v-28.785c13.429-4.253,23.189-16.83,23.189-31.646v-7.735h71.811v99.579H114.264
	c-15.173,0-27.517,12.345-27.517,27.517c0,15.173,12.344,27.517,27.517,27.517h149.544v82.297h-85.83v-17.399h0.746
	c14.354,0,26.031-11.678,26.031-26.031c0-14.354-11.678-26.03-26.031-26.03h-63.49c-14.354,0-26.031,11.677-26.031,26.03
	c0,14.354,11.678,26.031,26.031,26.031h0.745v17.399H66.001c-16.542,0-30,13.458-30,30v60c0,5.523,4.478,10,10,10H466
	c5.522,0,10-4.477,10-10v-60C476,425.46,462.542,412.002,446.001,412.002z M148.808,20v19.203h-19.202V20H148.808z M129.605,233.259
	v-17.243h19.203v17.243H129.605z M171.998,182.827c0,7.272-5.917,13.188-13.189,13.188h-39.203c-7.272,0-13.188-5.916-13.188-13.188
	V72.393c0-7.272,5.916-13.189,13.188-13.189h39.203c7.273,0,13.189,5.917,13.189,13.189V182.827z M191.998,155.092V83.613h71.811
	v71.479H191.998z M114.264,309.705c-4.145,0-7.517-3.372-7.517-7.517s3.372-7.517,7.517-7.517h149.544v15.034H114.264z
	 M283.809,319.705v-35.034V63.864c0-15.542,10.861-28.187,24.213-28.187h73.352c13.352,0,24.213,12.645,24.213,28.187v348.138
	H283.809V319.705z M109.203,368.571c0-3.269,2.762-6.03,6.031-6.03h63.49c3.27,0,6.031,2.762,6.031,6.03
	c0,3.27-2.762,6.031-6.031,6.031h-10.746h-41.999h-10.745C111.964,374.603,109.203,371.841,109.203,368.571z M135.979,394.603
	h21.999v17.399h-21.999V394.603z M456,492.002H56.001v-50c0-5.514,4.486-10,10-10h380c5.514,0,9.999,4.486,9.999,10V492.002z"/>
<path d="M344.697,268.068c-22.056,0-40,17.944-40,40s17.944,40,40,40s40-17.944,40-40
	C384.697,286.013,366.753,268.068,344.697,268.068z M344.697,328.068c-11.028,0-20-8.972-20-20s8.972-20,20-20s20,8.972,20,20
	C364.697,319.097,355.725,328.068,344.697,328.068z"/>
<path d="M374.697,179.613c5.523,0,10-4.478,10-10V103.66c0-5.522-4.477-10-10-10c-5.522,0-10,4.478-10,10v65.953
	C364.697,175.136,369.173,179.613,374.697,179.613z"/>
<path d="M374.697,83.938c5.523,0,10-4.478,10-10v-0.324c0-5.522-4.477-10-10-10c-5.522,0-10,4.477-10,10v0.324
	C364.697,79.46,369.173,83.938,374.697,83.938z"/>
<path d="M146.954,457.001H81.001c-5.522,0-10,4.478-10,10c0,5.523,4.478,10,10,10h65.952c5.522,0,10-4.477,10-10
	C156.954,461.478,152.476,457.001,146.954,457.001z"/>
<path d="M177,457.001h-0.324c-5.523,0-10,4.478-10,10c0,5.523,4.477,10,10,10H177c5.523,0,10-4.477,10-10
	S182.523,457.001,177,457.001z"/>
<g>
</g>
<g>
</g>
<g>
</g>
<g>
</g>
<g>
</g>
<g>
</g>
<g>
</g>
<g>
</g>
<g>
</g>
<g>
</g>
<g>
</g>
<g>
</g>
<g>
</g>
<g>
</g>
<g>
</g>
</svg>
