<?xml version="1.0" encoding="iso-8859-1"?>
<!-- Generator: Adobe Illustrator 19.0.0, SVG Export Plug-In . SVG Version: 6.00 Build 0)  -->
<svg version="1.1" id="Capa_1" xmlns="http://www.w3.org/2000/svg" xmlns:xlink="http://www.w3.org/1999/xlink" x="0px" y="0px"
	 viewBox="0 0 512.001 512.001" style="enable-background:new 0 0 512.001 512.001;" xml:space="preserve">
<g>
	<path style="fill:#F0F0F0;" d="M215.396,130.68v40.002v40.001v48.051h81.208v-6.003V103.675c0-21.843-18.272-39.716-40.604-39.716
		c-22.333,0-40.605,17.872-40.605,39.716L215.396,130.68L215.396,130.68z"/>
	<path style="fill:#FD4A4A;" d="M296.604,258.733h-81.208v58.957c-19.429,12.79-32.211,34.499-32.211,59.129
		c0,39.336,32.601,71.223,72.815,71.223s72.815-31.887,72.815-71.223c0-24.63-12.782-46.339-32.211-59.129V258.733z"/>
	<path style="fill:#00A2BB;" d="M296.604,258.733v58.957c19.429,12.79,32.211,34.499,32.211,59.129
		c0,39.336-32.601,71.223-72.815,71.223c-40.215,0-72.815-31.887-72.815-71.223c0-24.63,12.782-46.339,32.211-59.129v-58.957
		v-48.051v-40.001V130.68v-27.005c0-21.844,18.272-39.716,40.605-39.716c22.332,0,40.604,17.873,40.604,39.716V252.73
		L296.604,258.733L296.604,258.733z M366,10H146.001c-22,0-40,17.999-40,40v412.001c0,22.001,18,40,40,40H366
		c22.001,0,40-17.999,40-40V50C406,27.999,388.001,10,366,10z"/>
</g>
<path d="M366,0H146.001c-27.57,0-50,22.43-50,50v412.001c0,27.57,22.43,50,50,50H366c27.57,0,50-22.43,50-50V50
	C416,22.43,393.57,0,366,0z M396,462.001c0,16.542-13.458,30-30,30H146.001c-16.542,0-30-13.458-30-30V50c0-16.542,13.458-30,30-30
	H366c16.542,0,30,13.458,30,30V462.001z"/>
<path d="M306.604,312.518V103.675c0-27.413-22.701-49.716-50.604-49.716c-27.903,0-50.605,22.303-50.605,49.716v208.844
	c-20.268,15.347-32.211,38.998-32.211,64.301c0,44.786,37.151,81.223,82.815,81.223s82.815-36.437,82.815-81.223
	C338.815,351.517,326.872,327.865,306.604,312.518z M256.001,73.959c16.875,0,30.603,13.33,30.603,29.716v145.059h-61.208v-28.051
	h15.316c5.523,0,10-4.478,10-10c0-5.523-4.477-10-10-10h-15.316v-20.001h15.316c5.523,0,10-4.477,10-10c0-5.522-4.477-10-10-10
	h-15.316V140.68h15.316c5.523,0,10-4.478,10-10s-4.477-10-10-10h-15.316v-17.005C225.396,87.289,239.125,73.959,256.001,73.959z
	 M256.001,438.042c-34.637,0-62.815-27.464-62.815-61.223c0-20.372,10.358-39.354,27.709-50.776c2.81-1.85,4.501-4.988,4.501-8.353
	v-48.957h61.208v48.957c0,3.364,1.691,6.503,4.502,8.353c17.351,11.422,27.709,30.404,27.709,50.776
	C318.815,410.578,290.637,438.042,256.001,438.042z"/>
<path d="M141.001,135.675c-5.523,0-10,4.477-10,10v0.324c0,5.523,4.477,10,10,10s10-4.477,10-10v-0.324
	C151.001,140.152,146.524,135.675,141.001,135.675z"/>
<path d="M141.001,40c-5.523,0-10,4.478-10,10v65.952c0,5.522,4.477,10,10,10s10-4.478,10-10V50
	C151.001,44.478,146.524,40,141.001,40z"/>
<path d="M371.001,386.049c-5.522,0-10,4.478-10,10v65.953c0,5.523,4.478,10,10,10c5.522,0,10-4.477,10-10v-65.953
	C381.001,390.526,376.523,386.049,371.001,386.049z"/>
<path d="M371.001,356.002c-5.522,0-10,4.478-10,10v0.324c0,5.522,4.478,10,10,10c5.522,0,10-4.478,10-10v-0.324
	C381.001,360.479,376.523,356.002,371.001,356.002z"/>
<g>
</g>
<g>
</g>
<g>
</g>
<g>
</g>
<g>
</g>
<g>
</g>
<g>
</g>
<g>
</g>
<g>
</g>
<g>
</g>
<g>
</g>
<g>
</g>
<g>
</g>
<g>
</g>
<g>
</g>
</svg>
