<?xml version="1.0" encoding="iso-8859-1"?>
<!-- Generator: Adobe Illustrator 19.0.0, SVG Export Plug-In . SVG Version: 6.00 Build 0)  -->
<svg version="1.1" id="Capa_1" xmlns="http://www.w3.org/2000/svg" xmlns:xlink="http://www.w3.org/1999/xlink" x="0px" y="0px"
	 viewBox="0 0 512 512" style="enable-background:new 0 0 512 512;" xml:space="preserve">
<g>
	<path style="fill:#66E2E7;" d="M116,63.476h280V42.897C396,24.805,381.196,10,363.102,10H148.898C130.804,10,116,24.805,116,42.897
		V63.476z"/>
	<path style="fill:#F0F0F0;" d="M396,63.476H116v352.961h280V63.476L396,63.476z M192.047,203.631
		c12.033,0,21.787,10.572,21.787,23.613s-9.754,23.612-21.787,23.612s-21.788-10.571-21.788-23.612S180.014,203.631,192.047,203.631
		L192.047,203.631z M256.705,174.115c12.033,0,21.787,10.571,21.787,23.612s-9.754,23.613-21.787,23.613
		c-12.033,0-21.787-10.572-21.787-23.613S244.672,174.115,256.705,174.115L256.705,174.115z M319.953,203.631
		c12.033,0,21.787,10.572,21.787,23.613s-9.754,23.612-21.787,23.612s-21.788-10.571-21.788-23.612S307.92,203.631,319.953,203.631
		L319.953,203.631z M256,258.797c23.928,0,43.324,19.476,43.324,43.501c0,24.024-19.397,43.5-43.324,43.5
		c-23.928,0-43.324-19.476-43.324-43.5C212.676,278.272,232.072,258.797,256,258.797z"/>
	<g>
		<ellipse style="fill:#FF8D8D;" cx="256.7" cy="197.73" rx="21.787" ry="23.612"/>
		<ellipse style="fill:#FF8D8D;" cx="192.05" cy="227.24" rx="21.788" ry="23.613"/>
		<ellipse style="fill:#FF8D8D;" cx="256" cy="302.3" rx="43.32" ry="43.5"/>
		<ellipse style="fill:#FF8D8D;" cx="319.95" cy="227.24" rx="21.788" ry="23.612"/>
	</g>
	<path style="fill:#66E2E7;" d="M396,416.437H116v52.665C116,487.195,130.804,502,148.898,502h214.203
		C381.196,502,396,487.195,396,469.102V416.437z"/>
</g>
<path d="M363.102,0H148.898C125.244,0,106,19.244,106,42.897l0,0v426.204l0,0C106,492.756,125.244,512,148.898,512h214.203
	C386.756,512,406,492.756,406,469.102l0,0V42.897l0,0C406,19.244,386.756,0,363.102,0z M148.898,20h214.203
	C375.728,20,386,30.271,386,42.897v10.578H126V42.897C126,30.271,136.272,20,148.898,20z M386,406.437H126V73.476h260V406.437z
	 M363.102,492H148.898C136.272,492,126,481.728,126,469.102v-42.665h260v42.665C386,481.728,375.728,492,363.102,492z"/>
<path d="M256.258,442.923c-8.974,0-16.293,7.319-16.293,16.294c0,8.974,7.319,16.293,16.293,16.293
	c8.975,0,16.294-7.319,16.294-16.293C272.552,450.242,265.232,442.923,256.258,442.923z"/>
<path d="M256,248.797c-29.403,0-53.324,24.001-53.324,53.501s23.921,53.5,53.324,53.5s53.324-24,53.324-53.5
	S285.403,248.797,256,248.797z M256,335.798c-18.375,0-33.324-15.028-33.324-33.5c0-18.473,14.949-33.501,33.324-33.501
	s33.324,15.028,33.324,33.501C289.324,320.77,274.375,335.798,256,335.798z"/>
<path d="M319.953,260.857c17.527,0,31.787-15.078,31.787-33.612s-14.26-33.613-31.787-33.613c-17.528,0-31.788,15.079-31.788,33.613
	S302.425,260.857,319.953,260.857z M319.953,213.631c6.499,0,11.787,6.106,11.787,13.613c0,7.506-5.288,13.612-11.787,13.612
	c-6.5,0-11.788-6.107-11.788-13.612C308.165,219.737,313.453,213.631,319.953,213.631z"/>
<path d="M256.705,231.341c17.527,0,31.787-15.079,31.787-33.613s-14.26-33.612-31.787-33.612c-17.527,0-31.787,15.078-31.787,33.612
	S239.178,231.341,256.705,231.341z M256.705,184.115c6.5,0,11.787,6.106,11.787,13.612c0,7.507-5.288,13.613-11.787,13.613
	s-11.787-6.106-11.787-13.613C244.918,190.222,250.206,184.115,256.705,184.115z"/>
<path d="M223.834,227.244c0-18.534-14.26-33.613-31.787-33.613c-17.528,0-31.788,15.079-31.788,33.613s14.26,33.612,31.788,33.612
	C209.574,260.857,223.834,245.778,223.834,227.244z M192.047,240.857c-6.5,0-11.788-6.107-11.788-13.612
	c0-7.507,5.288-13.613,11.788-13.613c6.499,0,11.787,6.106,11.787,13.613C203.834,234.75,198.546,240.857,192.047,240.857z"/>
<path d="M246.676,108.477H247c5.523,0,10-4.478,10-10s-4.477-10-10-10h-0.324c-5.523,0-10,4.478-10,10
	S241.153,108.477,246.676,108.477z"/>
<path d="M151,108.477h65.953c5.523,0,10-4.478,10-10s-4.477-10-10-10H151c-5.523,0-10,4.478-10,10S145.477,108.477,151,108.477z"/>
<g>
</g>
<g>
</g>
<g>
</g>
<g>
</g>
<g>
</g>
<g>
</g>
<g>
</g>
<g>
</g>
<g>
</g>
<g>
</g>
<g>
</g>
<g>
</g>
<g>
</g>
<g>
</g>
<g>
</g>
</svg>
