<?xml version="1.0" encoding="iso-8859-1"?>
<!-- Generator: Adobe Illustrator 19.0.0, SVG Export Plug-In . SVG Version: 6.00 Build 0)  -->
<svg version="1.1" id="Capa_1" xmlns="http://www.w3.org/2000/svg" xmlns:xlink="http://www.w3.org/1999/xlink" x="0px" y="0px"
	 viewBox="0 0 512 512" style="enable-background:new 0 0 512 512;" xml:space="preserve">
<g>
	<path style="fill:#FFA655;" d="M123.252,104.133h122.612V80.895c0-12.78-10.456-23.237-23.237-23.237h-38.068H146.49
		c-12.781,0-23.238,10.457-23.238,23.237C123.252,80.895,123.252,104.133,123.252,104.133z"/>
	<path style="fill:#F0F0F0;" d="M245.864,104.133H123.252h-14.034C82.699,104.133,61,125.83,61,152.35v20.01v48.5v48.499v50.767
		l247.117-0.064l-0.001-167.711c0-26.52-21.697-48.217-48.217-48.217h-14.035V104.133z"/>
	<path style="fill:#FD4A4A;" d="M308.117,320.061L61,320.125v31.176c0,26.52,21.699,48.217,48.218,48.217h14.034h122.612h14.035
		c26.52,0,48.217-21.697,48.217-48.217L308.117,320.061z"/>
	<path style="fill:#FFA655;" d="M245.864,399.518H123.252v23.237c0,12.781,10.457,23.238,23.238,23.238l38.068-0.001l38.068,0.001
		c12.781,0,23.237-10.457,23.237-23.238L245.864,399.518L245.864,399.518z"/>
	<path style="fill:#F0F0F0;" d="M394.265,236.52c0,15.601,12.766,28.367,28.368,28.367c15.602,0,28.367-12.766,28.367-28.367
		v-83.926c0-15.602-12.766-28.367-28.367-28.367c-15.603,0-28.368,12.766-28.368,28.367V236.52z"/>
</g>
<path d="M432.633,115.557V84.038c0-5.522-4.477-10-10-10s-10,4.478-10,10v31.519c-16.321,4.412-28.368,19.341-28.368,37.037v83.926
	c0,17.696,12.047,32.625,28.368,37.037v172.435c0,25.369-20.634,46.008-45.997,46.008H240.555c-21.928,0-40.31-15.433-44.889-36.007
	h26.961c18.327,0,33.237-14.911,33.237-33.238v-13.237h4.035c32.101,0,58.217-26.116,58.217-58.217v-31.224
	c0-0.007,0.001-0.013,0.001-0.02s-0.001-0.013-0.001-0.02V152.35c0-32.101-26.116-58.217-58.217-58.217h-4.035V80.895
	c0-18.327-14.91-33.237-33.237-33.237h-28.068V10c0-5.522-4.477-10-10-10s-10,4.478-10,10v37.657H146.49
	c-18.328,0-33.238,14.91-33.238,33.237v13.238h-4.034C77.117,94.133,51,120.249,51,152.35v198.951
	c0,32.101,26.117,58.217,58.218,58.217h4.034v13.237c0,18.327,14.911,33.238,33.238,33.238h28.825
	c4.833,31.668,32.248,56.007,65.24,56.007h126.081c36.391,0,65.997-29.611,65.997-66.008V273.557
	C448.954,269.145,461,254.216,461,236.52v-83.926C461,134.898,448.954,119.969,432.633,115.557z M133.252,80.895
	c0-7.299,5.938-13.237,13.238-13.237h76.137c7.299,0,13.237,5.938,13.237,13.237v13.238H133.252V80.895z M109.218,114.133
	L109.218,114.133H259.9l0,0c21.073,0,38.217,17.144,38.217,38.217v157.714L71,310.122v-30.764h61.677c5.523,0,10-4.478,10-10
	s-4.477-10-10-10H71v-28.499h40.859c5.523,0,10-4.478,10-10s-4.477-10-10-10H71v-28.5h61.677c5.523,0,10-4.478,10-10
	s-4.477-10-10-10H71v-10.01C71,131.276,88.145,114.133,109.218,114.133z M71,351.301v-21.179l227.116-0.059V351.3
	c0,21.073-17.144,38.217-38.217,38.217l0,0H109.218l0,0C88.145,389.518,71,372.374,71,351.301z M133.252,422.755v-13.237h102.612
	v13.237c0,7.3-5.938,13.238-13.237,13.238l0,0c-0.007,0-0.001,0-0.007,0s0.014,0,0.007,0H146.49
	C139.19,435.993,133.252,430.055,133.252,422.755z M441,236.52c0,10.128-8.239,18.367-18.367,18.367s-18.368-8.239-18.368-18.367
	v-83.926c0-10.128,8.24-18.367,18.368-18.367c10.128,0,18.367,8.239,18.367,18.367V236.52z"/>
<path d="M162.395,182.359h0.324c5.523,0,10-4.478,10-10s-4.477-10-10-10h-0.324c-5.523,0-10,4.478-10,10
	C152.395,177.882,156.872,182.359,162.395,182.359z"/>
<path d="M162.395,279.358h0.324c5.523,0,10-4.478,10-10s-4.477-10-10-10h-0.324c-5.523,0-10,4.478-10,10
	C152.395,274.881,156.872,279.358,162.395,279.358z"/>
<g>
</g>
<g>
</g>
<g>
</g>
<g>
</g>
<g>
</g>
<g>
</g>
<g>
</g>
<g>
</g>
<g>
</g>
<g>
</g>
<g>
</g>
<g>
</g>
<g>
</g>
<g>
</g>
<g>
</g>
</svg>
