<?xml version="1.0" encoding="iso-8859-1"?>
<!-- Generator: Adobe Illustrator 19.0.0, SVG Export Plug-In . SVG Version: 6.00 Build 0)  -->
<svg version="1.1" id="Capa_1" xmlns="http://www.w3.org/2000/svg" xmlns:xlink="http://www.w3.org/1999/xlink" x="0px" y="0px"
	 viewBox="0 0 512 512" style="enable-background:new 0 0 512 512;" xml:space="preserve">
<g>
	<path style="fill:#FD4A4A;" d="M186,76h140.001C337,76,346,67,346,56s-9-20-19.999-20H186c-11,0-20,9-20,20S175,76,186,76z"/>
	<path style="fill:#66E2E7;" d="M398.374,116H113.627H30c-11,0-20,9-20,20v320c0,11,9,20,20,20h452c11.001,0,20-9,20-20V136
		c0-11-8.999-20-20-20H398.374L398.374,116z M256.001,190.327c14.813,0,26.82,13.015,26.82,29.067
		c0,16.055-12.008,29.068-26.82,29.068c-14.814,0-26.822-13.014-26.822-29.068C229.179,203.342,241.188,190.327,256.001,190.327
		L256.001,190.327z M307.907,255.73c0-16.054,12.008-29.068,26.82-29.068c14.813,0,26.822,13.015,26.822,29.068
		s-12.009,29.067-26.822,29.067C319.915,284.798,307.907,271.784,307.907,255.73L307.907,255.73z M256,294.572
		c29.456,0,53.334,23.975,53.334,53.55S285.456,401.673,256,401.673c-29.455,0-53.333-23.976-53.333-53.551
		S226.545,294.572,256,294.572L256,294.572z M177.273,226.662c14.813,0,26.821,13.015,26.821,29.068s-12.008,29.067-26.821,29.067
		s-26.821-13.014-26.821-29.067S162.46,226.662,177.273,226.662z"/>
	<g>
		<ellipse style="fill:#FFCEAC;" cx="256" cy="219.4" rx="26.821" ry="29.07"/>
		<ellipse style="fill:#FFCEAC;" cx="177.27" cy="255.73" rx="26.821" ry="29.07"/>
		<ellipse style="fill:#FFCEAC;" cx="256" cy="348.12" rx="53.33" ry="53.55"/>
		<ellipse style="fill:#FFCEAC;" cx="334.73" cy="255.73" rx="26.821" ry="29.07"/>
	</g>
</g>
<path d="M482,106h-73.626V77.391c0-17.609-14.327-31.937-31.938-31.937h-22.355C349.804,34.101,338.832,26,326.001,26H186
	c-12.832,0-23.803,8.101-28.081,19.454h-22.355c-17.61,0-31.938,14.327-31.938,31.937V106H30c-16.542,0-30,13.458-30,30v320
	c0,16.542,13.458,30,30,30h452c16.542,0,30-13.458,30-30V136C512,119.458,498.542,106,482,106z M186,46h140.001
	c5.514,0,9.999,4.486,9.999,10s-4.485,10-9.999,10H186c-5.514,0-10-4.486-10-10S180.486,46,186,46z M123.627,77.391
	c0-6.582,5.355-11.937,11.938-11.937h21.971C161.505,77.376,172.761,86,186,86h140.001c13.238,0,24.494-8.624,28.464-20.546h21.972
	c6.582,0,11.938,5.354,11.938,11.937V106H123.627V77.391z M492,456c0,5.514-4.486,10-10,10H30c-5.514,0-10-4.486-10-10V136
	c0-5.514,4.486-10,10-10h452c5.514,0,10,4.486,10,10V456z"/>
<path d="M256,284.572c-34.922,0-63.333,28.509-63.333,63.55c0,35.042,28.411,63.551,63.333,63.551
	c34.923,0,63.334-28.509,63.334-63.551C319.334,313.081,290.923,284.572,256,284.572z M256,391.673
	c-23.893,0-43.333-19.537-43.333-43.551s19.439-43.55,43.333-43.55c23.895,0,43.334,19.536,43.334,43.55
	S279.895,391.673,256,391.673z"/>
<path d="M256.001,258.463c20.303,0,36.82-17.526,36.82-39.068s-16.518-39.067-36.82-39.067c-20.304,0-36.822,17.525-36.822,39.067
	S235.697,258.463,256.001,258.463z M256.001,200.327c9.274,0,16.82,8.554,16.82,19.067c0,10.515-7.546,19.068-16.82,19.068
	c-9.276,0-16.822-8.554-16.822-19.068C239.179,208.881,246.725,200.327,256.001,200.327z"/>
<path d="M334.728,216.662c-20.303,0-36.82,17.526-36.82,39.068s16.518,39.067,36.82,39.067c20.304,0,36.822-17.525,36.822-39.067
	S355.031,216.662,334.728,216.662z M334.728,274.798c-9.275,0-16.82-8.554-16.82-19.067c0-10.515,7.546-19.068,16.82-19.068
	c9.276,0,16.822,8.554,16.822,19.068C351.55,266.244,344.004,274.798,334.728,274.798z"/>
<path d="M214.094,255.73c0-21.542-16.518-39.068-36.821-39.068s-36.821,17.526-36.821,39.068s16.518,39.067,36.821,39.067
	S214.094,277.272,214.094,255.73z M177.273,274.798c-9.275,0-16.821-8.554-16.821-19.067c0-10.515,7.546-19.068,16.821-19.068
	s16.821,8.554,16.821,19.068C194.094,266.244,186.548,274.798,177.273,274.798z"/>
<path d="M110.953,141H45.001c-5.522,0-10,4.478-10,10c0,5.523,4.478,10,10,10h65.952c5.522,0,10-4.477,10-10
	C120.953,145.478,116.476,141,110.953,141z"/>
<path d="M141,161c5.523,0,10-4.477,10-10c0-5.522-4.477-10-10-10h-0.324c-5.522,0-10,4.478-10,10c0,5.523,4.478,10,10,10H141z"/>
<path d="M467,430.999h-65.952c-5.523,0-10,4.477-10,10c0,5.522,4.477,10,10,10H467c5.522,0,10-4.478,10-10
	S472.522,430.999,467,430.999z"/>
<path d="M371.324,430.999h-0.323c-5.523,0-10,4.477-10,10c0,5.522,4.477,10,10,10h0.323c5.523,0,10-4.478,10-10
	S376.847,430.999,371.324,430.999z"/>
<g>
</g>
<g>
</g>
<g>
</g>
<g>
</g>
<g>
</g>
<g>
</g>
<g>
</g>
<g>
</g>
<g>
</g>
<g>
</g>
<g>
</g>
<g>
</g>
<g>
</g>
<g>
</g>
<g>
</g>
</svg>
