<?xml version="1.0" encoding="iso-8859-1"?>
<!-- Generator: Adobe Illustrator 19.0.0, SVG Export Plug-In . SVG Version: 6.00 Build 0)  -->
<svg version="1.1" id="Capa_1" xmlns="http://www.w3.org/2000/svg" xmlns:xlink="http://www.w3.org/1999/xlink" x="0px" y="0px"
	 viewBox="0 0 512.001 512.001" style="enable-background:new 0 0 512.001 512.001;" xml:space="preserve">
<g>
	<path style="fill:#00A2BB;" d="M83.297,429.618C58.019,431.187,10,433.952,10,469.702c0,8.649,3.477,16.565,9.108,22.396
		c5.724,5.925,13.673,9.695,22.46,9.894C77.31,502.798,81.158,454.854,83.297,429.618z"/>
	<path style="fill:#66E2E7;" d="M112.908,359.569c-10.72,10.721-10.72,28.263,0,38.983c10.721,10.721,28.264,10.721,38.983,0
		l18.313-18.314c27.628,12.123,61.187,6.922,83.72-15.611l114.555-114.555l-106.55-106.551l-35.955,35.955l-34.295,34.295
		l-34.294,34.294l-10.011,10.012c-22.329,22.328-27.639,55.482-15.938,82.964L112.908,359.569z"/>
	<path style="fill:#FFA655;" d="M261.929,143.521L368.48,250.073l7.534,7.533c13.59,13.591,35.828,13.591,49.42-0.001
		c13.59-13.59,13.59-35.828,0-49.419l-7.57-7.569l-106.48-106.48l-7.569-7.569c-13.591-13.591-35.829-13.591-49.42,0
		c-13.59,13.591-13.591,35.829,0,49.419L261.929,143.521z"/>
	<path style="fill:#FD4A4A;" d="M311.384,94.137l106.48,106.479l26.309-26.308c14.221-2.356,17.714,0.984,37.78-19.082
		c20.066-20.065,35.765-73.77-7.821-117.357C430.545-5.716,376.84,9.982,356.773,30.048s-16.726,23.56-19.081,37.78L311.384,94.137z
		"/>
</g>
<path d="M247.786,143.521L140.303,251.005c-12.246,12.246-20.371,27.745-23.495,44.821c-2.631,14.375-1.59,29.006,2.991,42.709
	l-13.962,13.963c-14.646,14.647-14.646,38.478,0,53.125c7.074,7.073,16.508,10.969,26.564,10.969s19.489-3.896,26.563-10.969
	l13.693-13.694c8.976,3.104,18.361,4.672,27.993,4.672c0.001,0,0.004,0,0.006,0c22.854-0.002,44.283-8.846,60.341-24.902
	L368.48,264.214l0.462,0.462c8.462,8.463,19.748,13.123,31.78,13.123s23.319-4.661,31.782-13.123
	c17.522-17.523,17.523-46.037,0-63.561l-0.498-0.499l16.889-16.889c1.01-0.127,1.979-0.235,2.933-0.341
	c11.57-1.283,19.002-2.896,37.195-21.088c13.11-13.11,21.877-34.748,22.877-56.47c0.891-19.333-3.713-48.044-30.698-75.03
	C454.217,3.813,425.511-0.784,406.172,0.1c-21.721,1-43.358,9.767-56.47,22.877c-18.193,18.193-19.805,25.626-21.088,37.196
	c-0.105,0.953-0.213,1.923-0.341,2.932l-16.89,16.89l-0.498-0.498c-8.462-8.462-19.749-13.122-31.781-13.122
	c-12.031,0-23.318,4.66-31.781,13.123c-17.523,17.524-17.523,46.038,0,63.561L247.786,143.521 M354.338,250.073L246.854,357.556
	c-12.279,12.28-28.688,19.044-46.2,19.045c-9.189,0.001-18.082-1.856-26.43-5.52c-3.774-1.656-8.176-0.829-11.09,2.086
	l-18.314,18.314c-3.296,3.296-7.707,5.111-12.42,5.111c-4.714,0-9.125-1.815-12.421-5.111c-6.849-6.85-6.849-17.993,0-24.842
	l18.528-18.528c2.885-2.886,3.728-7.234,2.129-10.988c-10.39-24.403-4.841-53.327,13.809-71.976l2.939-2.939l24.384,24.383
	c1.953,1.952,4.512,2.929,7.071,2.929s5.118-0.977,7.071-2.929c3.905-3.905,3.905-10.237,0-14.143l-24.384-24.383l20.151-20.152
	l19.208,19.207c1.953,1.952,4.512,2.929,7.071,2.929c2.56,0,5.118-0.977,7.071-2.929c3.905-3.905,3.905-10.237,0-14.143
	l-19.208-19.207l20.151-20.152l24.385,24.385c1.953,1.952,4.512,2.929,7.071,2.929c2.56,0,5.118-0.977,7.071-2.929
	c3.905-3.905,3.905-10.237,0-14.143l-24.385-24.385l21.813-21.813L354.338,250.073L354.338,250.073z M418.361,250.535
	c-4.685,4.685-10.948,7.265-17.639,7.265c-6.689,0-12.954-2.58-17.638-7.265l0,0L261.468,128.918c-0.003-0.003,0,0-0.003-0.003l0,0
	c-4.684-4.684-7.264-10.947-7.263-17.638c0-6.69,2.58-12.954,7.265-17.64c4.684-4.684,10.948-7.264,17.638-7.264
	s12.954,2.58,17.639,7.265l0,0l0,0c0.001,0.001,0,0,0,0l121.619,121.617c0.007,0.007,0.001,0.001,0.007,0.007
	c0.006,0.006-7.565-7.564-7.558-7.558l7.551,7.551C428.088,224.983,428.088,240.809,418.361,250.535z M491.922,104.909
	c-0.934,20.277-9.764,35.971-17.041,43.247c-14.116,14.117-17.378,14.479-25.258,15.353c-2.045,0.227-4.362,0.484-7.086,0.936
	c-2.06,0.341-3.96,1.318-5.437,2.794l-19.236,19.236l-92.338-92.337L344.764,74.9c1.476-1.477,2.453-3.378,2.794-5.438
	c0.451-2.723,0.708-5.04,0.935-7.085c0.874-7.88,1.235-11.142,15.353-25.258c7.277-7.277,22.971-16.107,43.248-17.041
	c15.3-0.711,38.142,3.036,59.967,24.862C488.886,66.767,492.627,89.599,491.922,104.909z"/>
<path d="M271.589,239.234c1.954,1.963,4.52,2.944,7.086,2.944c2.552,0,5.104-0.971,7.056-2.914
	c3.914-3.896,3.928-10.229,0.03-14.142l-0.229-0.23c-3.896-3.914-10.228-3.927-14.142-0.03c-3.914,3.896-3.928,10.229-0.03,14.142
	L271.589,239.234z"/>
<path d="M216.928,293.466c-3.906-3.904-10.236-3.904-14.143,0c-3.905,3.905-3.905,10.237,0,14.143l0.229,0.229
	c1.953,1.952,4.512,2.929,7.071,2.929s5.118-0.977,7.071-2.929c3.905-3.905,3.905-10.237,0-14.143L216.928,293.466z"/>
<path d="M82.677,419.637l-0.453,0.028c-12.87,0.798-32.321,2.005-48.691,7.856C5.817,437.428,0,455.927,0,469.702
	c0,10.968,4.232,21.389,11.916,29.344c7.821,8.096,18.272,12.692,29.427,12.942c0.375,0.009,0.743,0.013,1.112,0.013
	c13.472,0,31.689-5.728,41.978-33.017c6.086-16.143,7.714-35.362,8.791-48.08l0.037-0.441c0.246-2.896-0.781-5.757-2.813-7.836
	C88.415,420.548,85.581,419.464,82.677,419.637z M42.455,492c-0.219,0-0.438-0.002-0.662-0.007
	c-5.854-0.132-11.355-2.563-15.492-6.844C22.237,480.944,20,475.457,20,469.702c0-21.182,25.267-26.886,52.218-29.252
	C69.277,467.073,63.109,492,42.455,492z"/>
<g>
</g>
<g>
</g>
<g>
</g>
<g>
</g>
<g>
</g>
<g>
</g>
<g>
</g>
<g>
</g>
<g>
</g>
<g>
</g>
<g>
</g>
<g>
</g>
<g>
</g>
<g>
</g>
<g>
</g>
</svg>
