<?xml version="1.0" encoding="iso-8859-1"?>
<!-- Generator: Adobe Illustrator 19.0.0, SVG Export Plug-In . SVG Version: 6.00 Build 0)  -->
<svg version="1.1" id="Capa_1" xmlns="http://www.w3.org/2000/svg" xmlns:xlink="http://www.w3.org/1999/xlink" x="0px" y="0px"
	 viewBox="0 0 512.001 512.001" style="enable-background:new 0 0 512.001 512.001;" xml:space="preserve">
<g>
	<path style="fill:#FFCEAC;" d="M85.139,134.447c-8.819-30.34,3.756-60.641,28.084-67.68c20.525-5.938,42.861,6.579,54.639,28.854
		c11.06-5.498,22.897-9.993,35.339-13.335c-19.669-51.32-67.236-82.009-110.565-69.474C46.345,26.205,22.42,83.858,39.199,141.585
		c8.03,27.626,23.93,50.257,43.398,64.884c2.232-16.62,7.711-32.404,15.884-46.887C92.635,152.692,87.961,144.158,85.139,134.447z"
		/>
	<path style="fill:#9D7463;" d="M113.223,66.767c-24.328,7.039-36.903,37.34-28.084,67.68c2.822,9.711,7.496,18.245,13.343,25.135
		c15.093-26.742,39.375-49.043,69.38-63.96C156.084,73.346,133.749,60.83,113.223,66.767z"/>
	<path style="fill:#FFCEAC;" d="M419.523,13.947c-43.05-12.454-90.277,17.764-110.176,68.485
		c12.469,3.391,24.325,7.938,35.397,13.494c11.89-21.756,33.921-33.889,54.19-28.024c24.329,7.038,36.903,37.339,28.084,67.679
		c-2.776,9.552-7.344,17.966-13.056,24.794c8.112,14.598,13.494,30.5,15.587,47.235c19.473-14.628,35.377-37.261,43.408-64.891
		C489.737,84.992,465.814,27.339,419.523,13.947z"/>
	<path style="fill:#9D7463;" d="M398.936,67.901c-20.269-5.864-42.301,6.269-54.19,28.024
		c30.022,15.063,54.262,37.535,69.219,64.448c5.712-6.829,10.279-15.243,13.056-24.794
		C435.839,105.24,423.265,74.939,398.936,67.901z"/>
	<path style="fill:#FFCEAC;" d="M413.964,160.375c-14.958-26.913-39.197-49.387-69.219-64.448
		c-11.072-5.556-22.929-10.104-35.397-13.494c-16.815-4.572-34.741-7.041-53.348-7.041c-18.404,0-36.144,2.416-52.801,6.896
		c-12.441,3.342-24.278,7.837-35.339,13.335c-30.005,14.918-54.288,37.218-69.38,63.96c-8.173,14.482-13.651,30.267-15.884,46.887
		c-0.051,0.38-0.1,0.759-0.147,1.14c-41.162,31.259-66.444,73.62-66.444,120.267c0,25.208,7.383,49.166,20.666,70.796
		c36.309-50.956,105.467-80.408,180.615-87.208c-0.01-0.224-0.016-0.448-0.016-0.674c0-12.582,17.34-22.781,38.728-22.781
		c21.388,0,38.727,10.2,38.727,22.781c0,0.54-0.031,1.075-0.092,1.605c72.99,8.311,138.393,32.364,182.029,84.057
		c12.44-21.044,19.328-44.227,19.328-68.576c0-46.646-25.282-89.006-66.442-120.266
		C427.458,190.875,422.076,174.971,413.964,160.375z"/>
	<path style="fill:#E0AC91;" d="M476.664,396.451c-43.637-51.692-109.039-75.746-182.029-84.057
		c-1.402,11.832-18.161,21.176-38.631,21.177c-0.002,0-0.003,0-0.005,0c-21.005,0-38.106-9.838-38.712-22.108
		c-75.148,6.8-144.306,36.252-180.615,87.208C74.063,459.557,158.199,502.001,256,502.001
		C354.984,502,439.972,458.521,476.664,396.451z"/>
	<path style="fill:#9D7463;" d="M256.004,333.572c20.469-0.001,37.228-9.346,38.629-21.177c0.063-0.53,0.094-1.065,0.094-1.605
		c0-12.582-17.34-22.781-38.727-22.781s-38.728,10.2-38.728,22.781l0.016,0.67c0,0,0,0.003,0,0.004
		c0.605,12.272,17.707,22.108,38.712,22.108C256.001,333.572,256.003,333.572,256.004,333.572z"/>
	<path style="fill:#F0F0F0;" d="M280.573,401.651v-21.644c-10.137,0-19.504-5.571-24.573-14.615
		c-5.068,9.044-14.437,14.615-24.573,14.615v21.644c0,6.325,5.188,11.5,11.527,11.5h26.093
		C275.387,413.151,280.573,407.976,280.573,401.651z"/>
</g>
<path d="M445.253,207.423c17.174-16.062,30.243-37.612,37.307-61.914c10.004-34.42,6.886-70.251-8.557-98.306
	C462.224,25.8,443.862,10.578,422.301,4.34c-45.316-13.107-95.069,15.197-118.806,66.359c-15.363-3.493-31.312-5.309-47.496-5.309
	c-15.965,0-31.703,1.764-46.875,5.166C185.572,18.697,135.62-10.024,89.856,3.208c-21.56,6.238-39.922,21.46-51.703,42.863
	c-15.442,28.056-18.56,63.886-8.556,98.305c7.142,24.567,20.415,46.327,37.867,62.44C27.747,240.315,6.007,282.929,6.007,327.875
	c0,49.8,26.429,96.4,74.42,131.219C127.45,493.212,189.803,512.001,256,512.001s128.551-18.789,175.573-52.907
	c47.991-34.818,74.42-81.42,74.42-131.219C505.993,283.201,484.515,240.83,445.253,207.423z M417.417,132.789
	c-0.897,3.086-2.038,6.079-3.385,8.943c-9.382-13.297-21.084-25.456-34.864-36.033c-6.349-4.873-13.045-9.336-20.034-13.37
	c10.122-12.501,24.367-18.484,37.023-14.822c9.503,2.748,15.06,9.799,18.049,15.229C420.383,103.96,421.554,118.558,417.417,132.789
	z M416.744,23.552c16.663,4.82,30.404,16.334,39.74,33.294c12.901,23.439,15.406,53.722,6.873,83.081
	c-5.439,18.712-14.945,35.455-27.35,48.531c-2.456-9.329-5.896-18.406-10.248-27.136c4.742-6.883,8.463-14.694,10.863-22.951
	c5.607-19.29,3.823-39.438-4.896-55.278c-6.803-12.36-17.462-21.166-30.011-24.796c-21.7-6.281-45.569,3.823-60.69,24.824
	c-5.839-2.595-11.835-4.909-17.956-6.951C343.1,35.809,381.852,13.455,416.744,23.552z M48.802,138.794
	c-8.534-29.358-6.029-59.64,6.872-83.08C65.01,38.753,78.751,27.24,95.414,22.42c35.292-10.213,74.252,12.536,94.14,53.54
	c-6.079,2.006-12.031,4.29-17.834,6.84c-15.082-21.596-39.186-32.029-61.276-25.637C97.895,60.793,87.236,69.6,80.433,81.961
	c-8.719,15.841-10.503,35.988-4.896,55.278c2.443,8.402,6.248,16.332,11.105,23.298c-4.38,8.656-7.857,17.658-10.369,26.912
	C63.81,174.356,54.259,157.566,48.802,138.794z M98.389,141.134c-1.46-3.024-2.694-6.196-3.648-9.479
	c-4.136-14.231-2.966-28.828,3.212-40.053c2.989-5.431,8.546-12.481,18.049-15.23c12.972-3.758,27.465,2.518,37.608,15.537
	c-7.257,4.146-14.205,8.744-20.776,13.788C119.259,116.117,107.699,128.071,98.389,141.134z M88.498,215.572
	c2.144-1.628,3.541-4.052,3.875-6.723c0.036-0.288,0.082-0.574,0.12-0.862c0.005-0.033,0.009-0.066,0.014-0.101
	c1.994-14.95,6.761-29.108,13.856-42.13c0.635-0.81,1.126-1.699,1.478-2.634c13.938-24.203,35.984-44.296,63.092-57.988
	c0.544-0.176,1.082-0.391,1.605-0.667c0.365-0.193,0.708-0.411,1.039-0.641c9.86-4.772,20.362-8.705,31.364-11.696
	c0.581-0.104,1.162-0.26,1.735-0.472c15.595-4.079,32.168-6.269,49.326-6.269c17.354,0,34.11,2.244,49.86,6.413
	c0.599,0.223,1.205,0.391,1.813,0.494c10.987,3.026,21.471,6.991,31.31,11.796c0.308,0.217,0.628,0.422,0.966,0.607
	c0.554,0.303,1.126,0.541,1.706,0.73c27.132,13.834,49.139,34.1,62.949,58.478c0.333,0.884,0.795,1.726,1.381,2.5
	c7.052,13.123,11.76,27.383,13.643,42.44c0.003,0.028,0.011,0.056,0.015,0.084c0.03,0.225,0.073,0.447,0.118,0.67
	c0.02,0.098,0.036,0.197,0.059,0.295c0.053,0.227,0.121,0.452,0.19,0.676c0.028,0.092,0.052,0.184,0.083,0.273
	c0.072,0.21,0.158,0.416,0.244,0.622c0.043,0.103,0.081,0.206,0.127,0.307c0.08,0.175,0.174,0.347,0.266,0.519
	c0.067,0.126,0.13,0.255,0.203,0.378c0.083,0.142,0.177,0.277,0.268,0.415c0.096,0.146,0.19,0.294,0.293,0.436
	c0.022,0.029,0.039,0.061,0.062,0.091c0.053,0.071,0.115,0.131,0.17,0.2c0.155,0.196,0.316,0.388,0.486,0.572
	c0.102,0.11,0.206,0.216,0.311,0.32c0.151,0.15,0.307,0.294,0.468,0.434c0.124,0.108,0.249,0.216,0.377,0.317
	c0.046,0.036,0.088,0.078,0.135,0.113c40.298,30.603,62.49,70.487,62.49,112.302c0,17.913-4.056,35.159-11.524,51.309
	c-20.147-20.703-44.903-37.562-73.809-50.192c-27.996-12.232-60.644-20.826-97.14-25.583c-4.854-14.713-23.984-25.401-47.522-25.401
	c-22.92,0-41.669,10.136-47.118,24.252c-73.124,8.061-134.085,36.176-170.684,78.376c-7.901-16.566-12.192-34.312-12.192-52.761
	C26.006,286.058,48.199,246.175,88.498,215.572z M241.459,388.643c5.358-1.485,10.327-4.156,14.575-7.774
	c4.247,3.618,9.216,6.289,14.574,7.774v13.008c0,0.799-0.714,1.5-1.527,1.5h-26.093c-0.813,0-1.527-0.701-1.527-1.5v-13.008H241.459
	z M255.999,323.572c-17.271,0-28.728-7.694-28.728-12.783c0-5.089,11.458-12.783,28.728-12.783s28.727,7.694,28.727,12.783
	C284.728,315.877,273.27,323.572,255.999,323.572z M255.999,492.001c-91.058,0-169.923-37.959-207.162-92.865
	c32.409-41.233,90.484-68.922,161.383-76.899c5.675,10.553,19.053,18.416,35.802,20.675l0.035,19.532
	c-3.448,4.713-8.857,7.564-14.598,7.564c-6.492,0-12.565-3.642-15.851-9.504c-2.7-4.818-8.794-6.533-13.612-3.835
	c-4.818,2.7-6.535,8.795-3.835,13.612c5.12,9.136,13.589,15.673,23.297,18.362v13.008c0,11.855,9.657,21.499,21.526,21.499h26.093
	c11.87,0,21.526-9.645,21.526-21.499v-13.008c9.709-2.691,18.178-9.228,23.297-18.361c2.7-4.817,0.984-10.912-3.833-13.612
	c-4.819-2.699-10.912-0.983-13.613,3.833c-3.286,5.863-9.36,9.505-15.852,9.505c-5.712,0-11.1-2.822-14.55-7.495l-0.035-19.607
	c16.173-2.191,29.191-9.614,35.161-19.632c71.873,9.417,126.655,34.361,163.065,74.218
	C427.477,453.28,347.962,492.001,255.999,492.001z"/>
<path d="M150.702,159.376c2.439,0,4.884-0.887,6.811-2.68c15.445-14.376,36.255-25.432,58.597-31.134
	c5.351-1.366,8.582-6.811,7.217-12.162c-1.366-5.352-6.813-8.583-12.162-7.217c-25.901,6.61-49.166,19.015-67.278,35.872
	c-4.042,3.763-4.27,10.091-0.507,14.133C145.35,158.305,148.022,159.376,150.702,159.376z"/>
<path d="M127.278,179.318c1.648,1.03,3.48,1.521,5.29,1.521c3.305,0,6.536-1.638,8.44-4.623c2.981-4.585,1.725-10.728-2.838-13.77
	c-4.595-3.063-10.803-1.822-13.867,2.773c-0.055,0.081-0.153,0.235-0.206,0.318C121.171,170.222,122.594,176.391,127.278,179.318z"
	/>
<path d="M285.949,246.115c4.818,2.7,10.913,0.98,13.611-3.838c4.242-7.573,12.094-12.278,20.492-12.278s16.252,4.704,20.492,12.277
	c1.833,3.273,5.232,5.116,8.734,5.116c1.654,0,3.331-0.411,4.876-1.277c4.819-2.698,6.538-8.792,3.839-13.61
	C350.219,218.624,335.681,210,320.051,210c-15.629,0-30.167,8.623-37.941,22.504C279.412,237.322,281.13,243.417,285.949,246.115z"
	/>
<path d="M191.948,210c-15.63,0-30.168,8.623-37.942,22.504c-2.699,4.818-0.98,10.913,3.838,13.611
	c4.818,2.7,10.913,0.98,13.611-3.838c4.242-7.573,12.095-12.278,20.493-12.278s16.251,4.704,20.491,12.277
	c1.833,3.273,5.232,5.116,8.734,5.116c1.654,0,3.331-0.411,4.877-1.277c4.819-2.698,6.538-8.792,3.839-13.61
	C222.115,218.624,207.578,210,191.948,210z"/>
<g>
</g>
<g>
</g>
<g>
</g>
<g>
</g>
<g>
</g>
<g>
</g>
<g>
</g>
<g>
</g>
<g>
</g>
<g>
</g>
<g>
</g>
<g>
</g>
<g>
</g>
<g>
</g>
<g>
</g>
</svg>
