<?xml version="1.0" encoding="iso-8859-1"?>
<!-- Generator: Adobe Illustrator 19.0.0, SVG Export Plug-In . SVG Version: 6.00 Build 0)  -->
<svg version="1.1" id="Capa_1" xmlns="http://www.w3.org/2000/svg" xmlns:xlink="http://www.w3.org/1999/xlink" x="0px" y="0px"
	 viewBox="0 0 512 512" style="enable-background:new 0 0 512 512;" xml:space="preserve">
<g>
	<polygon style="fill:#FD4A4A;" points="314.49,90.422 314.49,46.555 277.934,46.555 277.934,10 234.066,10 234.066,46.555 
		197.51,46.555 197.51,90.422 234.066,90.422 234.066,126.978 277.934,126.978 277.934,90.422 	"/>
	<path style="fill:#66E2E7;" d="M234.066,90.422H197.51V46.555H75.999c-22,0-40,18-40,40v40.422l-0.001,44.747
		C39.131,170.607,42.499,170,46,170h30h60h60h60h60h60h60h30c3.502,0,6.869,0.607,9.999,1.726v-44.749V86.555
		c0-21.999-17.999-40-40-40H314.49v43.867h-36.556v36.556h-43.867L234.066,90.422L234.066,90.422z"/>
	<path style="fill:#FFA655;" d="M75.999,260v-90H46c-3.503,0-6.869,0.607-10.001,1.724C24.376,175.865,16,187.002,16,200v60
		c0,12.998,8.378,24.134,20,28.273c3.13,1.119,6.498,1.727,10,1.727C62.5,290,75.999,276.5,75.999,260z"/>
	<path style="fill:#FF8D8D;" d="M75.999,170v90c0,16.5,13.5,30,30,30s30-13.5,30-30v-90H75.999z"/>
	<path style="fill:#FFA655;" d="M135.999,170v90c0,16.5,13.5,30,30,30c16.501,0,30-13.5,30-30v-90H135.999z"/>
	<path style="fill:#FF8D8D;" d="M195.999,170v90c0,16.5,13.5,30,30,30c16.501,0,30-13.5,30-30v-90H195.999z"/>
	<path style="fill:#FFA655;" d="M255.999,170v90c0,16.5,13.5,30,30.001,30c16.5,0,30-13.5,30-30v-90H255.999z"/>
	<path style="fill:#FF8D8D;" d="M316,170v90c0,16.5,13.5,30,30.001,30c16.5,0,30-13.5,30-30v-90H316z"/>
	<path style="fill:#FFA655;" d="M376,170v90c0,16.5,13.499,30,30,30c16.5,0,30-13.5,30-30v-90H376z"/>
	<path style="fill:#FF8D8D;" d="M436,170v90c0,16.5,13.499,30,30,30c3.502,0,6.869-0.608,10-1.725c11.622-4.142,20-15.277,20-28.275
		v-60c0-12.998-8.378-24.135-20-28.276c-3.131-1.116-6.498-1.724-10-1.724H436z"/>
	<path style="fill:#00A2BB;" d="M436,260c0,16.5-13.5,30-30,30c-16.501,0-30-13.5-30-30c0,16.5-13.5,30-30,30s-30-13.5-30-30
		c0,16.5-13.499,30-29.999,30C269.5,290,256,276.5,256,260c0,16.5-13.499,30-30,30c-16.5,0-30-13.5-30-30c0,16.5-13.499,30-30,30
		c-16.5,0-30-13.5-30-30c0,16.5-13.5,30-30,30s-30-13.5-30-30c0,16.5-13.5,30-30,30c-3.502,0-6.869-0.608-10-1.727V502h40V362
		c0-11,9-20,20-20h80c11.001,0,20,9,20,20v140h280V288.273c-3.13,1.119-6.497,1.727-10,1.727C449.5,290,436,276.5,436,260L436,260z
		 M276,342h140c11,0,20,9,20,20v40c0,11-9,20-20,20H276c-11,0-20-9-20-20v-40C255.999,351,265,342,276,342z"/>
	<g>
		<path style="fill:#F0F0F0;" d="M416,342H276c-11,0-20,9-20,20v40c0,11,9,20,20,20h140c11,0,20-9,20-20v-40
			C436,351,427,342,416,342z"/>
		<path style="fill:#F0F0F0;" d="M195.999,502V362c0-11-8.999-20-20-20h-80c-11,0-20,9-20,20v140H195.999z"/>
	</g>
</g>
<path d="M486,165.381V86.555c0-27.57-22.43-50-50-50H287.934l0,0V10c0-5.522-4.478-10-10-10h-43.867c-5.522,0-10,4.478-10,10v26.555
	l0,0H75.999c-27.57,0-50,22.43-50,50v78.827C14.057,172.309,6,185.228,6,200v60c0,14.772,8.057,27.691,20,34.618V502
	c0,5.522,4.478,10,10,10h440c5.522,0,10-4.478,10-10V294.619C497.944,287.691,506,274.773,506,260v-60
	C506,185.227,497.944,172.309,486,165.381z M234.066,56.555c5.522,0,10-4.477,10-10V20h23.867v26.555c0,5.523,4.478,10,10,10h26.556
	v23.867h-26.556c-5.522,0-10,4.478-10,10v26.556h-23.867V90.422c0-5.522-4.478-10-10-10H207.51V56.555H234.066z M466,160H46v-23.023
	h55.953c5.522,0,10-4.477,10-10s-4.478-10-10-10H46V86.555c0-16.542,13.458-30,30-30h111.51v33.867c0,5.522,4.477,10,10,10h26.556
	v26.556c0,5.522,4.478,10,10,10h43.867c5.522,0,10-4.478,10-10v-26.556h26.556c5.522,0,10-4.478,10-10V56.555H436
	c16.542,0,30,13.458,30,30v30.422h-55.952c-5.522,0-10,4.478-10,10s4.478,10,10,10H466V160 M85.999,180h40v80
	c0,11.028-8.972,20-20,20s-20-8.972-20-20V180z M145.999,180h40v80c0,11.028-8.972,20-20,20s-20-8.972-20-20V180z M205.999,180h40
	v80c0,11.028-8.972,20-20,20s-20-8.972-20-20V180z M266,180h40v80c0,11.028-8.972,20-20,20s-20-8.972-20-20V180z M326,180h40v80
	c0,11.028-8.973,20-20.001,20c-11.028,0-20-8.972-20-20v-80H326z M386,180h40v80c0,11.028-8.973,20-20.001,20
	C394.972,280,386,271.028,386,260V180z M26,200c0-11.028,8.972-20,20-20h20v80c0,11.028-8.972,20-20,20s-20-8.972-20-20V200z
	 M185.999,492h-100V362c0-5.514,4.486-10,10-10h80c5.514,0,10,4.486,10,10V492z M205.999,492V362c0-16.542-13.458-30-30-30h-80
	c-16.542,0-30,13.458-30,30v130H46V300c11.938,0,22.665-5.264,30-13.585c7.335,8.321,18.062,13.585,30,13.585
	s22.665-5.264,30-13.585c7.335,8.321,18.062,13.585,30,13.585c11.939,0,22.665-5.264,30-13.585c7.335,8.321,18.062,13.585,30,13.585
	c11.939,0,22.665-5.264,30-13.585c7.336,8.321,18.062,13.585,30,13.585c11.939,0,22.664-5.264,29.999-13.585
	C323.336,294.736,334.063,300,346,300c11.939,0,22.664-5.264,30-13.585c7.336,8.321,18.062,13.585,30,13.585
	c11.939,0,22.664-5.264,30-13.585c7.336,8.32,18.061,13.585,30,13.585v192H205.999z M486,260c0,11.028-8.972,20-20,20
	s-20-8.972-20-20v-80h20c11.028,0,20,8.972,20,20V260z"/>
<path d="M416,332H276c-16.542,0-30,13.458-30,30v40c0,16.542,13.458,30,30,30h140c16.542,0,30-13.458,30-30v-40
	C446,345.458,432.543,332,416,332z M426,402c0,5.514-4.486,10-10,10H276c-5.514,0-10-4.486-10-10v-40c0-5.514,4.486-10,10-10h140
	c5.514,0,10,4.486,10,10V402z"/>
<path d="M131.676,136.977H132c5.523,0,10-4.477,10-10s-4.477-10-10-10h-0.324c-5.522,0-10,4.478-10,10
	S126.154,136.977,131.676,136.977z"/>
<path d="M380,136.977h0.323c5.522,0,10-4.477,10-10s-4.478-10-10-10H380c-5.522,0-10,4.478-10,10S374.478,136.977,380,136.977z"/>
<g>
</g>
<g>
</g>
<g>
</g>
<g>
</g>
<g>
</g>
<g>
</g>
<g>
</g>
<g>
</g>
<g>
</g>
<g>
</g>
<g>
</g>
<g>
</g>
<g>
</g>
<g>
</g>
<g>
</g>
</svg>
