<?xml version="1.0" encoding="iso-8859-1"?>
<!-- Generator: Adobe Illustrator 19.0.0, SVG Export Plug-In . SVG Version: 6.00 Build 0)  -->
<svg version="1.1" id="Capa_1" xmlns="http://www.w3.org/2000/svg" xmlns:xlink="http://www.w3.org/1999/xlink" x="0px" y="0px"
	 viewBox="0 0 511.999 511.999" style="enable-background:new 0 0 511.999 511.999;" xml:space="preserve">
<g>
	<path style="fill:#F0F0F0;" d="M92.359,10.058C55.287,7.212,42.471,108.586,58.446,168.24
		c8.776-11.105,18.743-21.436,29.741-30.849C84.05,42.657,108.581,36.96,166.401,92.644c11.769-4.146,23.999-7.501,36.605-9.986
		C190.984,61.853,127.106,11.22,92.359,10.058z"/>
	<g>
		<path style="fill:#FF8D8D;" d="M166.401,92.644C108.581,36.96,84.049,42.657,88.187,137.39
			C110.477,118.312,136.997,103.005,166.401,92.644z"/>
		<path style="fill:#FF8D8D;" d="M423.812,137.391c4.137-94.733-20.394-100.431-78.214-44.745
			C375.002,103.005,401.523,118.312,423.812,137.391z"/>
	</g>
	<path style="fill:#FFA655;" d="M345.598,92.644c57.82-55.685,82.351-49.987,78.214,44.745c10.997,9.412,20.965,19.742,29.74,30.849
		c15.975-59.653,3.159-161.027-33.913-158.182c-34.746,1.162-98.625,51.796-110.647,72.601
		C321.598,85.144,333.829,88.498,345.598,92.644z"/>
	<g>
		<path style="fill:#F0F0F0;" d="M423.812,137.391c-22.289-19.077-48.809-34.385-78.214-44.745c-11.769-4.146-24-7.501-36.607-9.986
			c-7.942-1.566-16.033-2.788-24.253-3.646c13.002,30.985,35.379,107.368,194.692,131.677c-6.779-15.08-15.494-29.308-25.878-42.449
			C444.776,157.133,434.809,146.803,423.812,137.391z"/>
		<path style="fill:#F0F0F0;" d="M479.43,210.688C320.118,186.379,297.74,109.997,284.738,79.011
			c-9.422-0.983-19.013-1.49-28.738-1.49c-18.208,0-35.943,1.774-52.992,5.137c0.002,0.003,0.004,0.006,0.006,0.01
			c2.873,10.722,6.611,22.04,11.543,33.557c29.107,67.98,99.772,142.875,279.267,142.875
			C491.215,242.247,486.324,226.026,479.43,210.688z"/>
	</g>
	<path style="fill:#FFA655;" d="M493.822,259.101c-179.494,0-250.158-74.897-279.267-142.875
		c-4.932-11.517-8.67-22.835-11.543-33.557c-0.002-0.004-0.004-0.007-0.006-0.01c-12.606,2.485-24.837,5.84-36.605,9.986
		c-29.404,10.36-55.926,25.668-78.214,44.745c-10.998,9.413-20.965,19.743-29.741,30.849
		c-26.768,33.879-42.448,74.98-42.448,119.284c0,86.765,60.139,161.234,145.93,193.25c-16.814-11.832-26.887-29.401-26.887-54.61
		c0-24.013,9.14-51.219,24.541-74.944c5.819-8.963,12.533-17.431,19.985-25.04c11.697-11.944,25.214-21.776,39.951-28.103
		c-0.171-1.103-0.26-2.218-0.26-3.338c0-17.754,16.449-23.034,36.74-23.034c20.29,0,36.739,5.28,36.739,23.034
		c0,1.12-0.089,2.234-0.26,3.338c14.736,6.326,28.254,16.158,39.95,28.103c7.453,7.609,14.166,16.076,19.985,25.04
		c15.401,23.725,24.541,50.932,24.541,74.944c0,25.208-10.071,42.777-26.886,54.61C435.86,448.757,496,374.288,496,287.523
		C496.001,277.884,495.259,268.396,493.822,259.101z"/>
	<path style="fill:#FF8D8D;" d="M292.739,294.738c0-17.754-16.449-23.034-36.739-23.034c-20.291,0-36.74,5.28-36.74,23.034
		c0,1.12,0.089,2.234,0.259,3.338c2.525,16.393,22.967,30.588,36.481,30.588s33.955-14.195,36.48-30.588
		C292.65,296.973,292.739,295.858,292.739,294.738z"/>
	<path style="fill:#F0F0F0;" d="M292.48,298.076c-2.524,16.393-22.966,30.588-36.479,30.588c-13.515,0-33.956-14.195-36.48-30.588
		c-14.737,6.326-28.254,16.158-39.951,28.103c-7.452,7.609-14.166,16.077-19.985,25.04c-15.401,23.725-24.541,50.932-24.541,74.944
		c0,25.208,10.072,42.777,26.887,54.61C184.105,496.376,218.008,502,256.002,502c37.993,0,71.897-5.623,94.071-21.227
		c16.815-11.832,26.886-29.401,26.886-54.61c0-24.013-9.14-51.219-24.541-74.944c-5.819-8.964-12.532-17.431-19.985-25.04
		C320.734,314.234,307.217,304.402,292.48,298.076z"/>
</g>
<path d="M115.118,147.727c-0.012,0.009-0.104,0.076-0.115,0.085c-4.432,3.282-5.329,9.502-2.057,13.94
	c1.954,2.65,4.984,4.047,8.055,4.047c2.07,0,4.16-0.635,5.95-1.949c0.012-0.009,0.104-0.076,0.115-0.085
	c4.432-3.282,5.329-9.502,2.057-13.94C125.852,145.387,119.564,144.464,115.118,147.727z"/>
<path d="M506.002,287.523c0-43.946-14.523-85.888-41.56-121.616c11.326-48.42,6.334-123.516-17.909-152.722
	c-9.716-11.706-20.244-13.61-27.435-13.114c-36.017,1.369-95.004,46.204-114.638,71.561c-6.163-1.059-12.39-1.913-18.668-2.564
	c-0.045-0.005-0.09-0.009-0.135-0.014c-9.772-1.01-19.669-1.532-29.657-1.532c-16.452,0-32.662,1.395-48.46,4.11
	C187.904,46.274,128.918,1.439,92.901,0.07c-7.188-0.496-17.719,1.408-27.435,13.114C41.223,42.393,36.23,117.486,47.558,165.907
	c-27.036,35.729-41.56,77.67-41.56,121.616c0,88.148,59.318,167.365,151.231,202.158c2.684,1.822,5.524,3.542,8.54,5.147
	c21.404,11.394,51.763,17.171,90.231,17.171s68.825-5.777,90.229-17.171c3.015-1.605,5.854-3.325,8.538-5.147
	C446.682,454.889,506.002,375.673,506.002,287.523z M461.29,197.404C346.973,175.177,314.937,123.673,300.669,91.32
	C370.937,103.395,429.802,143.385,461.29,197.404z M364.206,89.078c26.35-23.158,36.057-22.969,39.175-21.562
	c3.463,1.563,10.723,9.639,10.87,49.645C398.767,105.986,381.974,96.592,364.206,89.078z M419.973,20.052
	c0.145-0.005,0.288-0.013,0.432-0.023c1.348-0.106,5.466-0.423,10.739,5.93c16.339,19.684,23.33,75.566,16.673,120.428
	c-4.379-4.592-8.99-9.048-13.827-13.361c1.759-50.751-5.008-75.897-22.381-83.738c-16.152-7.29-36.8,2.28-68.478,31.918
	c-5.411-1.767-10.895-3.368-16.444-4.8C347.787,54.371,394.794,20.894,419.973,20.052z M277.781,88.424
	c6.789,16.801,18.165,44.689,47.328,70.59c33.543,29.788,83.071,50.189,147.264,60.682c3.931,9.451,7.058,19.232,9.323,29.279
	c-133.608-2.588-220.115-48.357-257.785-136.263c-0.096-0.256-0.204-0.504-0.319-0.748c-2.914-6.87-5.542-13.987-7.862-21.369
	c13.079-2.017,26.534-3.072,40.268-3.072C263.346,87.521,270.608,87.836,277.781,88.424z M80.854,25.959
	c5.271-6.351,9.389-6.036,10.739-5.931c0.144,0.011,0.287,0.019,0.432,0.023c25.178,0.842,72.186,34.318,93.286,56.354
	c-5.549,1.432-11.032,3.033-16.443,4.8C137.189,51.567,116.541,42,100.39,49.287c-17.373,7.841-24.139,32.987-22.38,83.738
	c-4.837,4.313-9.448,8.77-13.827,13.362C57.524,101.524,64.515,45.644,80.854,25.959z M97.749,117.161
	c0.146-40.006,7.405-48.081,10.868-49.645c3.115-1.409,12.827-1.595,39.175,21.562C130.024,96.592,113.231,105.986,97.749,117.161z
	 M168.164,472.946c-0.298-0.236-0.61-0.458-0.939-0.661c-22.172-15.713-22.184-36.602-22.184-46.121
	c0-38.316,27.318-90.864,68.939-114.19c2.779,4.991,6.731,9.736,11.773,14.013c6.246,5.298,13.358,9.161,20.248,11.151v34.784
	c-9.688,2.694-18.137,9.233-23.245,18.367c-2.696,4.82-0.974,10.913,3.847,13.608c4.821,2.697,10.914,0.973,13.608-3.847
	c3.276-5.858,9.326-9.497,15.79-9.497c6.463,0,12.512,3.639,15.787,9.496c1.832,3.276,5.232,5.122,8.737,5.122
	c1.652,0,3.327-0.41,4.871-1.273c4.821-2.695,6.544-8.788,3.849-13.608c-5.107-9.136-13.557-15.674-23.244-18.368v-34.784
	c6.89-1.991,14.002-5.854,20.248-11.151c5.041-4.276,8.993-9.022,11.772-14.013c9.902,5.55,18.99,12.752,27.098,21.026
	c0.001,0.002,0.002,0.003,0.004,0.005c0.003,0.003,0.006,0.005,0.009,0.008c25.959,26.502,41.826,63.956,41.826,93.151
	c0,9.52-0.012,30.409-22.186,46.122c-0.327,0.202-0.638,0.423-0.935,0.658C327.961,483.784,301.18,492,256.001,492
	C210.824,492,184.043,483.785,168.164,472.946z M256,318.664c-9.352,0-26.74-12.299-26.74-23.926c0-3.564,0-13.034,26.74-13.034
	c26.739,0,26.739,9.47,26.739,13.034C282.739,306.365,265.352,318.664,256,318.664z M382.381,454.659
	c3.04-8.585,4.576-18.087,4.576-28.495c0-12.591-2.342-26.146-6.718-39.729c12.874-1.697,25.783,0.358,38.507,6.179
	c1.349,0.617,2.763,0.91,4.155,0.91c3.791-0.001,7.418-2.168,9.099-5.842c2.299-5.021,0.091-10.956-4.932-13.254
	c-17.866-8.177-36.102-10.528-54.325-7.052c-1.935-4.164-4.057-8.285-6.349-12.342c24.575-12.075,51.472-15.583,80.1-10.403
	c5.439,0.978,10.637-2.627,11.621-8.061c0.982-5.436-2.626-10.638-8.061-11.621c-33.772-6.105-65.525-1.677-94.529,13.155
	c-2.795-3.847-5.719-7.542-8.758-11.073c20.206-16.073,44.274-24.768,71.705-25.839c5.52-0.215,9.818-4.863,9.602-10.382
	c-0.21-5.387-4.643-9.61-9.985-9.61c-0.132,0-0.265,0.002-0.397,0.008c-32.539,1.269-61.072,11.831-84.956,31.418
	c-9.42-8.515-19.572-15.565-30.123-20.852c-1.011-12.418-9.054-30.069-46.614-30.069s-45.605,17.651-46.615,30.068
	c-10.551,5.287-20.703,12.338-30.123,20.853c-23.883-19.588-52.417-30.149-84.957-31.419c-5.511-0.257-10.167,4.084-10.382,9.602
	c-0.216,5.519,4.083,10.167,9.603,10.382c27.431,1.071,51.499,9.766,71.705,25.839c-3.039,3.531-5.963,7.227-8.758,11.073
	c-29.004-14.832-60.756-19.262-94.529-13.155c-5.435,0.983-9.043,6.186-8.061,11.621c0.983,5.434,6.183,9.041,11.621,8.061
	c28.624-5.181,55.523-1.672,80.1,10.403c-2.292,4.057-4.413,8.178-6.348,12.342c-18.224-3.477-36.459-1.127-54.326,7.052
	c-5.022,2.298-7.23,8.232-4.932,13.254c1.681,3.674,5.308,5.842,9.099,5.842c1.393,0,2.807-0.293,4.155-0.91
	c12.724-5.821,25.634-7.876,38.507-6.179c-4.376,13.582-6.718,27.138-6.718,39.729c0,10.407,1.536,19.91,4.576,28.494
	c-63.992-36.57-103.618-98.98-103.618-167.134c0-92.233,72.178-170.071,169.991-193.082c1.494,4.883,3.116,9.669,4.857,14.361
	c-21.133,4.819-41.348,12.421-60.234,22.687c-4.852,2.638-6.648,8.71-4.01,13.563c1.813,3.335,5.248,5.226,8.795,5.226
	c1.613,0,3.25-0.392,4.768-1.216c18.287-9.941,37.948-17.158,58.54-21.513c14.702,31.319,35.521,57.765,62.226,78.926
	c50.813,40.268,122.806,61.3,214.08,62.564c0.645,6.089,0.991,12.252,0.991,18.484C486.001,355.677,446.375,418.087,382.381,454.659
	z"/>
<path d="M226.123,203.716c-4.821-2.692-10.914-0.968-13.607,3.854c-4.227,7.568-12.051,12.27-20.418,12.27
	c-8.367,0-16.191-4.701-20.419-12.27c-2.694-4.822-8.789-6.546-13.607-3.854c-4.821,2.694-6.547,8.786-3.853,13.607
	c7.759,13.889,22.273,22.516,37.88,22.516c15.606,0,30.121-8.628,37.879-22.516C232.67,212.501,230.944,206.409,226.123,203.716z"/>
<g>
</g>
<g>
</g>
<g>
</g>
<g>
</g>
<g>
</g>
<g>
</g>
<g>
</g>
<g>
</g>
<g>
</g>
<g>
</g>
<g>
</g>
<g>
</g>
<g>
</g>
<g>
</g>
<g>
</g>
</svg>
