<?xml version="1.0" encoding="iso-8859-1"?>
<!-- Generator: Adobe Illustrator 19.0.0, SVG Export Plug-In . SVG Version: 6.00 Build 0)  -->
<svg version="1.1" id="Capa_1" xmlns="http://www.w3.org/2000/svg" xmlns:xlink="http://www.w3.org/1999/xlink" x="0px" y="0px"
	 viewBox="0 0 512.001 512.001" style="enable-background:new 0 0 512.001 512.001;" xml:space="preserve">
<g>
	<g>
		<ellipse style="fill:#9D7463;" cx="85.861" cy="149.157" rx="22.404" ry="22.624"/>
		<ellipse style="fill:#9D7463;" cx="148.02" cy="84.8" rx="22.405" ry="22.625"/>
	</g>
	<path style="fill:#E0AC91;" d="M148.018,107.424c-12.375,0-22.406-10.13-22.406-22.625c0-12.495,10.031-22.624,22.406-22.624
		c12.373,0,22.404,10.129,22.404,22.624S160.39,107.424,148.018,107.424L148.018,107.424z M45.091,214.888l41.152,41.153
		L256.002,86.285l-41.154-41.154c-46.684-46.684-123.075-46.684-169.757,0C-1.594,91.814-1.594,168.205,45.091,214.888
		L45.091,214.888z M85.861,126.535c12.374,0,22.404,10.129,22.404,22.624c0,12.495-10.03,22.624-22.404,22.624
		s-22.405-10.129-22.405-22.624C63.456,136.663,73.487,126.535,85.861,126.535z"/>
	<path style="fill:#FFCEAC;" d="M256.002,86.285L86.243,256.042L45.09,297.196c-46.684,46.685-46.684,123.075,0,169.759
		s123.074,46.684,169.758,0l41.154-41.155l169.757-169.758l41.155-41.153c46.684-46.684,46.684-123.074-0.001-169.757
		c-46.684-46.685-123.074-46.685-169.757,0L256.002,86.285L256.002,86.285z M152.932,273.375l120.403-120.403
		c7.772-7.772,20.489-7.772,28.261,0l57.475,57.475c7.771,7.772,7.772,20.489,0,28.261L238.668,359.112
		c-7.772,7.772-20.489,7.772-28.261,0l-57.475-57.475C145.159,293.865,145.16,281.147,152.932,273.375z"/>
	<path style="fill:#FEC478;" d="M273.335,152.972L152.932,273.375c-7.772,7.772-7.773,20.489,0,28.261l57.475,57.475
		c7.772,7.772,20.489,7.772,28.261,0L359.07,238.708c7.772-7.772,7.771-20.489,0-28.261l-57.475-57.475
		C293.824,145.2,281.107,145.2,273.335,152.972z"/>
	<path style="fill:#E0AC91;" d="M425.759,256.042L256.002,425.799l41.154,41.154c46.684,46.685,123.074,46.685,169.757,0
		c46.684-46.684,46.684-123.074,0-169.758L425.759,256.042L425.759,256.042z M363.985,404.661c12.374,0,22.405,10.13,22.405,22.624
		s-10.031,22.624-22.405,22.624c-12.374,0-22.404-10.13-22.404-22.624C341.582,414.789,351.612,404.661,363.985,404.661
		L363.985,404.661z M426.142,340.301c12.374,0,22.404,10.13,22.404,22.624c0,12.496-10.03,22.625-22.404,22.625
		s-22.405-10.13-22.405-22.625S413.769,340.301,426.142,340.301z"/>
	<g>
		<ellipse style="fill:#9D7463;" cx="426.141" cy="362.922" rx="22.405" ry="22.624"/>
		<ellipse style="fill:#9D7463;" cx="363.982" cy="427.279" rx="22.404" ry="22.624"/>
	</g>
</g>
<path d="M366.137,245.774c11.686-11.686,11.686-30.704,0-42.392l-57.475-57.475c-5.646-5.645-13.174-8.756-21.197-8.756
	c-8.021,0-15.549,3.109-21.196,8.756L145.866,266.31c-5.646,5.646-8.756,13.174-8.756,21.196c0,8.022,3.109,15.55,8.756,21.197
	l57.475,57.475c5.645,5.645,13.173,8.756,21.196,8.756c8.022,0,15.55-3.109,21.196-8.756L366.137,245.774z M224.538,354.949
	c-2.685,0-5.194-1.031-7.065-2.903l-57.476-57.475c-1.871-1.871-2.903-4.38-2.903-7.064s1.031-5.194,2.903-7.065L280.4,160.039
	c1.871-1.871,4.38-2.903,7.064-2.903c2.686,0,5.194,1.031,7.065,2.903l57.476,57.474c3.895,3.896,3.896,10.236,0,14.131
	L231.603,352.046C229.732,353.917,227.222,354.949,224.538,354.949z"/>
<path d="M473.978,290.131l-34.088-34.088l34.089-34.088c24.465-24.465,37.939-57.119,37.939-91.945s-13.474-67.479-37.94-91.944
	c-24.465-24.465-57.118-37.94-91.945-37.94c-34.825,0-67.479,13.474-91.945,37.94l-34.088,34.088l-34.089-34.088
	c-50.697-50.698-133.191-50.698-183.888,0C13.558,62.531,0.085,95.186,0.085,130.01c0,34.826,13.473,67.479,37.939,91.945
	l34.088,34.088l-34.088,34.088c-50.698,50.698-50.698,133.192,0,183.889c24.465,24.465,57.118,37.939,91.944,37.939
	s67.479-13.473,91.945-37.939l34.089-34.089l34.088,34.088c24.465,24.465,57.118,37.94,91.945,37.94
	c34.825,0,67.479-13.474,91.945-37.94C524.676,423.319,524.676,340.829,473.978,290.131z M52.154,207.823
	c-20.691-20.69-32.086-48.324-32.086-77.813c0-29.488,11.395-57.122,32.086-77.813c42.907-42.908,112.721-42.908,155.628,0
	l34.088,34.088L86.243,241.912L52.154,207.823z M207.783,459.888c-20.691,20.691-48.326,32.086-77.814,32.086
	s-57.122-11.395-77.813-32.086c-42.906-42.906-42.906-112.721,0-155.627L304.22,52.197c0.001-0.001-0.001,0.001,0,0
	c0.001-0.001-0.001,0.001,0,0l0,0c20.691-20.692,48.325-32.087,77.813-32.087c29.488,0,57.122,11.395,77.814,32.087
	c42.907,42.906,42.907,112.721,0,155.626l0,0c-0.004,0.003-41.151,41.15-41.155,41.154s41.157-41.156,41.155-41.154L207.783,459.888
	c-0.003,0.004-1.181,1.156-1.184,1.159S207.786,459.885,207.783,459.888L207.783,459.888z M459.847,459.887
	c-20.691,20.692-48.325,32.087-77.813,32.087c-29.489,0-57.123-11.395-77.813-32.087l-34.088-34.088l155.626-155.626l34.088,34.088
	C502.755,347.168,502.755,416.982,459.847,459.887z"/>
<path d="M85.86,116.543c-17.863,0-32.395,14.631-32.395,32.616c0,17.984,14.532,32.616,32.395,32.616s32.396-14.631,32.396-32.616
	C118.256,131.175,103.723,116.543,85.86,116.543z M85.86,161.791c-6.844,0-12.412-5.666-12.412-12.633
	c0-6.966,5.567-12.633,12.412-12.633s12.413,5.666,12.413,12.633C98.272,156.125,92.704,161.791,85.86,161.791z"/>
<path d="M148.017,52.184c-17.863,0-32.396,14.632-32.396,32.616s14.533,32.616,32.396,32.616s32.396-14.632,32.396-32.616
	S165.88,52.184,148.017,52.184z M148.017,97.432c-6.844,0-12.413-5.666-12.413-12.633s5.568-12.633,12.413-12.633
	s12.413,5.666,12.413,12.633S154.861,97.432,148.017,97.432z"/>
<path d="M426.142,330.31c-17.863,0-32.396,14.631-32.396,32.616c0,17.985,14.533,32.617,32.396,32.617
	c17.862,0,32.395-14.632,32.395-32.617C458.538,344.941,444.005,330.31,426.142,330.31z M426.142,375.559
	c-6.844,0-12.413-5.667-12.413-12.634s5.568-12.633,12.413-12.633s12.412,5.666,12.412,12.633S432.986,375.559,426.142,375.559z"/>
<path d="M363.985,394.669c-17.862,0-32.395,14.632-32.395,32.616c0,17.985,14.533,32.616,32.395,32.616
	c17.863,0,32.396-14.631,32.396-32.616S381.849,394.669,363.985,394.669z M363.985,439.918c-6.844,0-12.412-5.667-12.412-12.633
	c0-6.966,5.567-12.633,12.412-12.633s12.413,5.666,12.413,12.633C376.398,434.25,370.83,439.918,363.985,439.918z"/>
<path d="M365.479,171.933c1.951,1.95,4.508,2.927,7.065,2.927c2.557,0,5.114-0.976,7.065-2.927c3.902-3.902,3.902-10.229,0-14.131
	l-46.598-46.598c-3.903-3.901-10.228-3.901-14.131,0c-3.902,3.902-3.902,10.229,0,14.131L365.479,171.933z"/>
<path d="M386.725,193.175c1.949,1.941,4.499,2.912,7.05,2.912c2.564,0,5.129-0.981,7.08-2.942c3.894-3.91,3.881-10.237-0.03-14.13
	l-0.229-0.229c-3.91-3.894-10.238-3.881-14.13,0.03c-3.894,3.91-3.881,10.237,0.03,14.13L386.725,193.175z"/>
<path d="M125.294,318.923c-3.902-3.901-10.228-3.901-14.13,0c-3.902,3.902-3.902,10.229,0,14.13l0.229,0.23
	c1.951,1.95,4.508,2.927,7.065,2.927s5.114-0.976,7.065-2.927c3.902-3.902,3.902-10.229,0-14.131L125.294,318.923z"/>
<path d="M146.523,340.152c-3.902-3.901-10.228-3.901-14.13,0c-3.902,3.902-3.902,10.229,0,14.131l46.598,46.598
	c1.951,1.95,4.508,2.927,7.065,2.927c2.557,0,5.114-0.976,7.065-2.927c3.902-3.902,3.902-10.229,0-14.131L146.523,340.152z"/>
<g>
</g>
<g>
</g>
<g>
</g>
<g>
</g>
<g>
</g>
<g>
</g>
<g>
</g>
<g>
</g>
<g>
</g>
<g>
</g>
<g>
</g>
<g>
</g>
<g>
</g>
<g>
</g>
<g>
</g>
</svg>
