<?xml version="1.0" encoding="iso-8859-1"?>
<!-- Generator: Adobe Illustrator 19.0.0, SVG Export Plug-In . SVG Version: 6.00 Build 0)  -->
<svg version="1.1" id="Capa_1" xmlns="http://www.w3.org/2000/svg" xmlns:xlink="http://www.w3.org/1999/xlink" x="0px" y="0px"
	 viewBox="0 0 512 512" style="enable-background:new 0 0 512 512;" xml:space="preserve">
<g>
	<path style="fill:#FFA655;" d="M407.375,87.289c0,9.248-1.551,25.946-3.474,47.188l82.04-35.858l-84.677-41.766
		C405.182,66.283,407.375,76.597,407.375,87.289z"/>
	<path style="fill:#66E2E7;" d="M403.902,134.476c1.923-21.241,3.474-37.94,3.474-47.188c0-10.691-2.192-21.006-6.111-30.436
		C375.199-5.89,227.138-27.333,204.031,133.138c-0.737,5.121-1.517,10.143-2.332,15.076c55.955-31.775,130.825,3.617,125.79,79.171
		c-14.996,104.549-130.704,131.913-210.194,130.749c-7.552,13.577-13.996,22.831-19.052,29.889
		c19.486,10.784,44.252,17.37,71.156,19.597c31.636,2.618,66.227-0.791,98.668-10.487c68.507-20.476,127.43-68.991,128.674-147.991
		C397.399,207.249,401.056,165.893,403.902,134.476z"/>
	<path style="fill:#00A2BB;" d="M327.488,227.385c5.035-75.554-69.836-110.947-125.79-79.171
		c-22.216,12.617-41.451,35.822-51.517,71.305c-27.339,96.362-88.812,97.765-106.352,115.166
		c-10.811,10.725,22.161,22.038,69.137,23.356c1.43,0.04,2.873,0.071,4.328,0.093C196.784,359.298,312.491,331.934,327.488,227.385z
		"/>
	<path style="fill:#66E2E7;" d="M169.397,407.62c-26.904-2.226-51.67-8.812-71.156-19.597l-49.779,69.495
		C100.736,470.014,156.079,446.493,169.397,407.62z"/>
	<path style="fill:#00A2BB;" d="M169.397,407.62c-13.318,38.874-68.661,62.395-120.935,49.898L26.06,488.793
		c106.655,37.474,226.93-8.264,242.005-91.662C235.624,406.829,201.032,410.238,169.397,407.62z"/>
</g>
<path d="M490.363,89.652l-81.481-40.189c-7.637-15.651-21.856-29.077-40.462-38.079C348.693,1.841,325.673-1.883,303.6,0.899
	c-26.434,3.331-50.17,15.611-68.643,35.512c-21.283,22.928-35.018,54.992-40.822,95.302c-0.493,3.425-1.025,6.878-1.573,10.323
	c-21.894,13.767-41.449,37.569-51.998,74.754c-19.304,68.043-56.421,85.554-80.983,97.142c-9.237,4.357-17.214,8.121-22.793,13.655
	c-4.75,4.713-6.237,10.936-3.979,16.645c3.067,7.756,12.334,13.349,29.162,17.6c10.656,2.692,23.904,4.617,38.178,5.596
	c-3.574,5.626-6.894,10.392-10.033,14.773l-49.689,69.37c-0.014,0.019-0.027,0.038-0.041,0.057l-22.452,31.345
	c-1.833,2.558-2.353,5.829-1.407,8.83c0.947,3.001,3.251,5.382,6.22,6.424c26.273,9.231,54.042,13.774,81.354,13.773
	c39.218-0.001,77.485-9.373,108.956-27.687c33.519-19.506,55.886-47.527,63.576-79.401c16.559-5.358,32.207-12.211,46.369-20.41
	c25.104-14.533,45.028-32.772,59.218-54.212c15.797-23.867,24.045-51.117,24.516-80.992c0.613-38.93,3.878-77.835,6.591-108.031
	l76.618-33.488c3.564-1.559,5.9-5.042,5.99-8.931C496.025,94.961,493.851,91.374,490.363,89.652z M55.124,338.616
	c3.419-2.086,7.977-4.237,12.988-6.601c26.144-12.335,69.901-32.978,91.686-109.767c15.833-55.811,54.647-75.697,85.69-75.697
	c20.476,0,39.881,8.189,53.238,22.467c13.745,14.691,20.246,34.509,18.81,57.327c-6.204,42.429-30.766,74.704-73.006,95.92
	c-44.876,22.541-95.95,25.907-122.403,25.907c-0.002,0-0.004,0-0.005,0c-1.572,0-3.145-0.014-4.715-0.037c-0.003,0-0.007,0-0.01,0
	c-1.392-0.021-2.779-0.049-4.151-0.087C83.346,347.209,63.549,342.394,55.124,338.616z M101.376,400.815
	c15.379,7.245,33.277,12.354,52.783,15.148c-15.808,23.709-51.974,37.845-88.237,34.347L101.376,400.815z M203,467.032
	c-44.965,26.167-105.476,32.123-160.801,16.4l10.596-14.793c8.111,1.5,16.262,2.229,24.313,2.229
	c43.197,0,83.457-20.717,98.774-52.779c4.688,0.25,9.439,0.382,14.246,0.382c4.404,0,8.857-0.105,13.345-0.319
	c17.029-0.811,33.947-3.168,50.279-6.928C245.234,433.236,227.679,452.67,203,467.032z M312.984,367.198
	c-14.497,8.394-30.496,15.132-47.191,20.201c-0.429,0.101-0.846,0.236-1.255,0.391c-30.106,8.97-62.417,12.475-92.314,10.255
	c-1.326-0.393-2.67-0.498-3.971-0.347c-20.07-1.848-38.95-6.297-55.19-13.477c3.135-4.675,6.46-9.923,10.023-16.058
	c28.486-0.082,82.395-3.91,130.417-28.032c22.434-11.269,40.813-25.674,54.626-42.815c15.682-19.462,25.523-42.512,29.252-68.511
	c0.036-0.251,0.063-0.503,0.079-0.755c1.909-28.64-6.437-53.776-24.135-72.692c-17.125-18.304-41.851-28.802-67.839-28.802
	c-9.962,0-20.557,1.605-31.113,5.14c10.078-64.476,43.389-104.869,91.724-110.959c36.944-4.654,74.691,12.893,85.933,39.952
	c3.547,8.538,5.347,17.487,5.347,26.6c0,8.395-1.406,23.912-3.186,43.556c-0.083,0.91-0.166,1.832-0.25,2.76
	c-0.001,0.016-0.003,0.031-0.004,0.047c-2.827,31.233-6.529,73.119-7.194,115.332C385.751,311.97,346.085,348.035,312.984,367.198z
	 M415.37,118.554c1.185-13.495,2.003-24.259,2.003-31.264c0-3.943-0.284-7.858-0.802-11.738l45.659,22.52L415.37,118.554z"/>
<path d="M203.199,321.982c0.943,0,1.902-0.134,2.851-0.417l0.252-0.076c5.287-1.594,8.281-7.17,6.687-12.457
	c-1.594-5.287-7.175-8.282-12.457-6.686c-0.012,0.003-0.111,0.033-0.123,0.037l-0.058,0.018c-5.289,1.579-8.302,7.146-6.726,12.435
	C194.919,319.174,198.892,321.982,203.199,321.982z"/>
<path d="M232.745,310.327c1.512,0,3.046-0.344,4.488-1.07c37.041-18.648,59.62-47.676,65.294-83.942
	c0.853-5.456-2.877-10.569-8.332-11.423c-5.455-0.855-10.569,2.876-11.423,8.332c-4.702,30.051-23.048,53.324-54.53,69.174
	c-4.932,2.482-6.917,8.493-4.434,13.425C225.565,308.312,229.087,310.327,232.745,310.327z"/>
<path d="M324.395,56.671c-16.679-1.228-31.689,7.224-37.356,21.021c-2.097,5.107,0.342,10.948,5.449,13.047
	c5.109,2.097,10.948-0.342,13.047-5.449c2.727-6.639,10.935-9.147,17.397-8.679c3.272,0.24,11.091,1.635,13.012,9.375
	c1.129,4.551,5.209,7.592,9.695,7.592c0.797,0,1.608-0.096,2.416-0.297c5.359-1.33,8.625-6.752,7.295-12.11
	C351.884,67.205,340.023,57.817,324.395,56.671z"/>
<g>
</g>
<g>
</g>
<g>
</g>
<g>
</g>
<g>
</g>
<g>
</g>
<g>
</g>
<g>
</g>
<g>
</g>
<g>
</g>
<g>
</g>
<g>
</g>
<g>
</g>
<g>
</g>
<g>
</g>
</svg>
