<?xml version="1.0" encoding="iso-8859-1"?>
<!-- Generator: Adobe Illustrator 19.0.0, SVG Export Plug-In . SVG Version: 6.00 Build 0)  -->
<svg version="1.1" id="Capa_1" xmlns="http://www.w3.org/2000/svg" xmlns:xlink="http://www.w3.org/1999/xlink" x="0px" y="0px"
	 viewBox="0 0 511.998 511.998" style="enable-background:new 0 0 511.998 511.998;" xml:space="preserve">
<g>
	<path style="fill:#F0F0F0;" d="M211.205,59.597v62.401h46.787V59.587h86.546l11.557,22.974
		c15.79,31.388,53.628,10.31,43.446-12.572l-19.3-43.375c-7.782-17.49-11.567-16.957-36.352-16.442H241.53h-83.59h-21.203
		c-31.867,0-39.016,49.957,4.752,49.414L211.205,59.597z"/>
	<path style="fill:#FD4A4A;" d="M257.993,121.998h-46.787h-35.207c-11,0-20,9-20,20v20h200v-20c0-11-9-20-20-20
		C335.999,121.998,257.993,121.998,257.993,121.998z"/>
	<path style="fill:#66E2E7;" d="M355.998,161.998h-200h-30c-11,0-20,9-20,20v19.061v37.502h300v-56.563c0-11-9-20-20-20H355.998z"/>
	<path style="fill:#FFA655;" d="M405.998,238.561h-300v226.875h300V238.561L405.998,238.561z M234.065,293.511h43.867v36.555h36.556
		v43.867h-36.556v36.556h-43.867v-36.556H197.51v-43.867h36.555L234.065,293.511L234.065,293.511z"/>
	<polygon style="fill:#FD4A4A;" points="277.932,293.511 234.065,293.511 234.065,330.065 197.51,330.065 197.51,373.933 
		234.065,373.933 234.065,410.488 277.932,410.488 277.932,373.933 314.488,373.933 314.488,330.065 277.932,330.065 	"/>
	<path style="fill:#66E2E7;" d="M405.998,465.436h-300v16.563c0,11,9,19.999,20,19.999h260c11,0,20-8.999,20-19.999V465.436z"/>
</g>
<path d="M385.998,151.998h-20v-10c0-16.542-13.458-30-30-30h-68.006V69.587h70.382l8.787,17.468
	c11.109,22.084,31.518,24.874,45.779,18.119c15.633-7.405,22.398-24.279,15.736-39.251l-19.3-43.375
	c-3.716-8.351-7.784-16.161-16.629-19.946c-6.777-2.899-14.485-2.734-27.251-2.466L136.737,0.172
	c-13.189,0-24.874,6.663-31.257,17.824c-6.213,10.864-6.33,23.973-0.306,34.21c3.842,6.529,13.547,17.386,35.595,17.384
	c0.256,0,0.519-0.001,0.778-0.004l59.659,0.009v42.403h-25.207c-16.542,0-30,13.458-30,30v10h-20c-16.542,0-30,13.458-30,30v300.001
	c0,16.541,13.458,29.999,30,29.999h260c16.542,0,30-13.458,30-29.999V181.998C415.998,165.456,402.54,151.998,385.998,151.998z
	 M115.998,248.561h280v206.875h-280C115.998,455.436,115.998,248.561,115.998,248.561z M211.207,49.597l-69.717-0.011
	c-0.042,0-0.083,0-0.126,0.001c-9.268,0.104-16.031-2.556-18.954-7.523c-2.358-4.008-2.189-9.558,0.431-14.139
	c1.656-2.896,5.663-7.753,13.896-7.753h207.152c0.069,0,0.138-0.001,0.207-0.002l1.825-0.039c9.379-0.199,16.154-0.343,18.958,0.858
	c1.228,0.525,2.832,2.063,6.226,9.69l19.3,43.375c2.962,6.658-2.646,11.444-6.025,13.045c-2.805,1.33-12.491,4.606-19.352-9.032
	l-11.557-22.974c-1.698-3.376-5.154-5.506-8.933-5.506h-86.546c-5.523,0-10,4.478-10,10v52.411h-26.787V59.597
	C221.205,54.074,216.729,49.597,211.207,49.597z M165.998,141.998c0-5.514,4.486-10,10-10h160c5.514,0,10,4.486,10,10v10h-180
	V141.998z M125.998,171.998h260c5.514,0,10,4.486,10,10v46.563h-280v-17.502h55.953c5.523,0,10-4.477,10-10c0-5.522-4.477-10-10-10
	h-55.953v-9.061C115.998,176.484,120.484,171.998,125.998,171.998z M385.998,491.998h-260c-5.514,0-10-4.485-10-9.999v-6.563h280
	v6.563C395.998,487.513,391.513,491.998,385.998,491.998z"/>
<path d="M314.488,320.065h-26.556V293.51c0-5.522-4.477-10-10-10h-43.867c-5.523,0-10,4.478-10,10v26.555H197.51
	c-5.523,0-10,4.478-10,10v43.867c0,5.522,4.477,10,10,10h26.555v26.556c0,5.522,4.477,10,10,10h43.867c5.523,0,10-4.478,10-10
	v-26.556h26.556c5.523,0,10-4.478,10-10v-43.867C324.488,324.543,320.011,320.065,314.488,320.065z M304.488,363.933h-26.556
	c-5.523,0-10,4.478-10,10v26.556h-23.867v-26.556c0-5.522-4.477-10-10-10H207.51v-23.867h26.555c5.523,0,10-4.477,10-10v-26.555
	h23.867v26.555c0,5.523,4.477,10,10,10h26.556V363.933z"/>
<path d="M201.674,211.059h0.324c5.523,0,10-4.477,10-10c0-5.522-4.477-10-10-10h-0.324c-5.523,0-10,4.478-10,10
	C191.674,206.582,196.151,211.059,201.674,211.059z"/>
<g>
</g>
<g>
</g>
<g>
</g>
<g>
</g>
<g>
</g>
<g>
</g>
<g>
</g>
<g>
</g>
<g>
</g>
<g>
</g>
<g>
</g>
<g>
</g>
<g>
</g>
<g>
</g>
<g>
</g>
</svg>
