<?xml version="1.0" encoding="iso-8859-1"?>
<!-- Generator: Adobe Illustrator 19.0.0, SVG Export Plug-In . SVG Version: 6.00 Build 0)  -->
<svg version="1.1" id="Capa_1" xmlns="http://www.w3.org/2000/svg" xmlns:xlink="http://www.w3.org/1999/xlink" x="0px" y="0px"
	 viewBox="0 0 512.002 512.002" style="enable-background:new 0 0 512.002 512.002;" xml:space="preserve">
<g>
	<path style="fill:#F0F0F0;" d="M200.091,106.02l111.818-0.001V58.01V25.798C311.91,17.108,304.8,10,296.111,10H215.89
		c-8.689,0-15.799,7.108-15.799,15.798V106.02z"/>
	<path style="fill:#FFA655;" d="M311.91,106.019l-111.818,0.001l-32.608-0.001c-5.828,0-10.597,4.769-10.597,10.597v54.404h198.229
		v-54.404c0-5.829-4.769-10.597-10.597-10.597C344.52,106.019,311.91,106.019,311.91,106.019z"/>
	<path style="fill:#00A2BB;" d="M355.115,171.02H156.886h-11.073c-21.897,0-39.812,17.915-39.812,39.813V462.19
		c0,21.896,17.915,39.812,39.812,39.812H366.19c21.897,0,39.811-17.916,39.811-39.812V210.833c0-21.897-17.915-39.813-39.811-39.813
		L355.115,171.02L355.115,171.02z M256.707,250.67c12.033,0,21.787,10.572,21.787,23.613s-9.754,23.612-21.787,23.612
		s-21.788-10.571-21.788-23.612S244.673,250.67,256.707,250.67L256.707,250.67z M256,335.352c23.928,0,43.325,19.476,43.325,43.501
		c0,24.024-19.397,43.5-43.325,43.5c-23.927,0-43.324-19.476-43.324-43.5C212.676,354.827,232.074,335.352,256,335.352L256,335.352z
		 M319.955,280.186c12.032,0,21.787,10.572,21.787,23.613s-9.755,23.613-21.787,23.613c-12.033,0-21.788-10.572-21.788-23.613
		S307.921,280.186,319.955,280.186L319.955,280.186z M192.048,280.186c12.032,0,21.787,10.572,21.787,23.613
		s-9.755,23.613-21.787,23.613c-12.033,0-21.789-10.572-21.789-23.613S180.015,280.186,192.048,280.186z"/>
	<g>
		<ellipse style="fill:#FFCEAC;" cx="192.05" cy="303.8" rx="21.788" ry="23.613"/>
		<ellipse style="fill:#FFCEAC;" cx="256.71" cy="274.28" rx="21.788" ry="23.612"/>
		<ellipse style="fill:#FFCEAC;" cx="319.951" cy="303.8" rx="21.788" ry="23.613"/>
		<ellipse style="fill:#FFCEAC;" cx="256" cy="378.85" rx="43.33" ry="43.501"/>
	</g>
</g>
<path d="M366.189,161.02h-1.074v-44.404c0-11.358-9.239-20.597-20.597-20.597H321.91V25.798C321.91,11.573,310.336,0,296.111,0
	H215.89c-14.226,0-25.799,11.573-25.799,25.798v70.221h-22.608c-11.357,0-20.597,9.24-20.597,20.597v44.404h-1.073
	c-27.466,0-49.812,22.346-49.812,49.813V462.19c0,27.466,22.346,49.812,49.812,49.812H366.19c27.466,0,49.811-22.345,49.811-49.812
	V210.833C416,183.366,393.655,161.02,366.189,161.02z M210.091,25.798c0-3.143,2.655-5.798,5.799-5.798h80.221
	c3.143,0,5.799,2.655,5.799,5.798V48.01h-26c-5.522,0-10,4.477-10,10s4.478,10,10,10h26v28.009h-91.818V25.798H210.091z
	 M166.886,116.616c0-0.307,0.29-0.597,0.597-0.597l0,0c0.004,0-0.003,0,0,0s-0.004,0,0,0h177.035c0.307,0,0.597,0.29,0.597,0.597
	v44.404H166.886V116.616z M366.189,181.02c16.439,0,29.811,13.374,29.811,29.813V452.19h-55.952c-5.522,0-10,4.477-10,10
	s4.478,10,10,10h54.222c-4.12,11.533-15.15,19.812-28.081,19.812H145.813c-16.439,0-29.812-13.374-29.812-29.812V220.833h55.952
	c5.523,0,10-4.477,10-10s-4.477-10-10-10h-54.222c4.119-11.534,15.149-19.813,28.081-19.813L366.189,181.02"/>
<path d="M256,325.352c-29.403,0-53.324,24.001-53.324,53.501s23.921,53.5,53.324,53.5s53.325-24,53.325-53.5
	C309.326,349.352,285.404,325.352,256,325.352z M256,412.353c-18.375,0-33.324-15.028-33.324-33.5
	c0-18.473,14.949-33.501,33.324-33.501c18.376,0,33.325,15.028,33.325,33.501C289.326,397.325,274.376,412.353,256,412.353z"/>
<path d="M319.955,337.412c17.527,0,31.787-15.079,31.787-33.613s-14.26-33.613-31.787-33.613c-17.528,0-31.788,15.079-31.788,33.613
	C288.167,322.333,302.426,337.412,319.955,337.412z M319.955,290.186c6.499,0,11.787,6.107,11.787,13.613
	s-5.288,13.613-11.787,13.613c-6.5,0-11.788-6.107-11.788-13.613S313.455,290.186,319.955,290.186z"/>
<path d="M256.707,307.896c17.527,0,31.787-15.079,31.787-33.612c0-18.534-14.26-33.613-31.787-33.613
	c-17.528,0-31.788,15.079-31.788,33.613C224.919,292.817,239.178,307.896,256.707,307.896z M256.707,260.67
	c6.499,0,11.787,6.107,11.787,13.613s-5.288,13.612-11.787,13.612c-6.5,0-11.788-6.107-11.788-13.612
	C244.919,266.777,250.207,260.67,256.707,260.67z"/>
<path d="M223.835,303.799c0-18.534-14.26-33.613-31.787-33.613c-17.528,0-31.789,15.079-31.789,33.613s14.261,33.613,31.789,33.613
	C209.576,337.412,223.835,322.333,223.835,303.799z M192.048,317.412c-6.501,0-11.789-6.107-11.789-13.613
	s5.288-13.613,11.789-13.613c6.499,0,11.787,6.107,11.787,13.613S198.547,317.412,192.048,317.412z"/>
<path d="M201.676,220.833H202c5.522,0,10-4.477,10-10s-4.478-10-10-10h-0.324c-5.523,0-10,4.477-10,10
	C191.676,216.355,196.154,220.833,201.676,220.833z"/>
<path d="M310.326,452.19h-0.324c-5.522,0-10,4.477-10,10s4.478,10,10,10h0.324c5.522,0,10-4.477,10-10
	C320.326,456.668,315.848,452.19,310.326,452.19z"/>
<g>
</g>
<g>
</g>
<g>
</g>
<g>
</g>
<g>
</g>
<g>
</g>
<g>
</g>
<g>
</g>
<g>
</g>
<g>
</g>
<g>
</g>
<g>
</g>
<g>
</g>
<g>
</g>
<g>
</g>
</svg>
