<?xml version="1.0" encoding="iso-8859-1"?>
<!-- Generator: Adobe Illustrator 19.0.0, SVG Export Plug-In . SVG Version: 6.00 Build 0)  -->
<svg version="1.1" id="Capa_1" xmlns="http://www.w3.org/2000/svg" xmlns:xlink="http://www.w3.org/1999/xlink" x="0px" y="0px"
	 viewBox="0 0 512.002 512.002" style="enable-background:new 0 0 512.002 512.002;" xml:space="preserve">
<g>
	<path style="fill:#FD4A4A;" d="M174.567,65.887h162.866c11.001,0,20-9,20-20V30c0-11-8.999-20-20-20H174.567
		c-11.001,0-20,8.999-20,20v15.888C154.567,56.887,163.566,65.887,174.567,65.887z"/>
	<path style="fill:#F0F0F0;" d="M337.434,65.887H174.567c-11.001,0-20-9-20-20V30H95.199c-16.06,0-29.198,13.139-29.198,29.199
		v413.604c0,16.06,13.14,29.199,29.198,29.199h321.603c16.059,0,29.199-13.141,29.199-29.199V59.199
		c0-16.059-13.14-29.199-29.199-29.199h-59.368v15.888C357.434,56.887,348.435,65.887,337.434,65.887L337.434,65.887z
		 M185.999,151.293c0-12.426,8.954-22.5,20-22.5s20,10.074,20,22.5c0,12.427-8.954,22.501-20,22.501
		C194.953,173.794,185.999,163.72,185.999,151.293L185.999,151.293z M221.001,192.233c0-20.711,15.669-37.5,35-37.5
		c19.33,0,35,16.79,35,37.5c0,20.711-15.67,37.5-35,37.5C236.67,229.733,221.001,212.944,221.001,192.233L221.001,192.233z
		 M236.001,121.292c0-12.426,8.954-22.5,20-22.5c11.045,0,19.999,10.074,19.999,22.5c0,12.427-8.954,22.5-19.999,22.5
		C244.955,143.792,236.001,133.719,236.001,121.292L236.001,121.292z M286.002,151.293c0-12.426,8.954-22.5,20-22.5
		s20,10.074,20,22.5c0,12.427-8.954,22.501-20,22.501C294.956,173.794,286.002,163.72,286.002,151.293z"/>
	<g>
		<ellipse style="fill:#FFCEAC;" cx="206" cy="151.29" rx="20" ry="22.5"/>
		<ellipse style="fill:#FFCEAC;" cx="256" cy="121.29" rx="20" ry="22.5"/>
		<ellipse style="fill:#FFCEAC;" cx="306" cy="151.29" rx="20" ry="22.5"/>
		<ellipse style="fill:#FFCEAC;" cx="256" cy="192.23" rx="35" ry="37.5"/>
	</g>
</g>
<path d="M416.802,20h-51.088c-4.129-11.639-15.244-20-28.28-20H174.567c-13.036,0-24.151,8.361-28.279,20H95.199
	c-21.614,0-39.198,17.585-39.198,39.199v413.604c0,21.614,17.584,39.199,39.198,39.199h321.603
	c21.614,0,39.199-17.585,39.199-39.199V59.199C456.001,37.584,438.416,20,416.802,20z M174.567,20h162.866c5.514,0,10,4.486,10,10
	v15.888c0,5.514-4.486,10-10,10H174.567c-5.514,0-10-4.486-10-10V30C164.567,24.486,169.054,20,174.567,20z M436.001,472.803
	c0,10.586-8.612,19.199-19.199,19.199H95.199c-10.586,0-19.198-8.613-19.198-19.199V59.199C76.001,48.612,84.613,40,95.199,40
	h49.368v5.888c0,16.542,13.458,30,30,30h162.866c16.542,0,30-13.458,30-30V40h49.368C427.388,40,436,48.613,436,59.199v413.604
	H436.001z"/>
<path d="M180.122,401.833l-24.558,25.159l-4.683-4.683c-3.906-3.905-10.236-3.905-14.143,0c-3.905,3.905-3.905,10.237,0,14.142
	l11.84,11.84c1.876,1.876,4.42,2.929,7.071,2.929c0.02,0,0.04,0,0.061,0c2.673-0.016,5.229-1.102,7.096-3.015l31.628-32.402
	c3.857-3.952,3.781-10.283-0.171-14.141C190.31,397.803,183.979,397.881,180.122,401.833z"/>
<path d="M256.001,239.733c24.814,0,45-21.309,45-47.5c0-3.099-0.292-6.126-0.831-9.061c1.888,0.405,3.837,0.622,5.832,0.622
	c16.542,0,30-14.58,30-32.501c0-17.92-13.458-32.5-30-32.5c-7.966,0-15.211,3.388-20.589,8.895c0.383-2.068,0.587-4.206,0.587-6.396
	c0-17.92-13.458-32.5-29.999-32.5c-16.542,0-30,14.58-30,32.5c0,2.189,0.204,4.327,0.586,6.396
	c-5.377-5.507-12.622-8.895-20.588-8.895c-16.542,0-30,14.58-30,32.5c0,17.921,13.458,32.501,30,32.501
	c1.996,0,3.945-0.217,5.833-0.622c-0.539,2.935-0.831,5.962-0.831,9.061C211.001,218.425,231.188,239.733,256.001,239.733z
	 M256.001,219.733c-13.785,0-25-12.336-25-27.5c0-15.163,11.215-27.5,25-27.5s25,12.337,25,27.5
	C281.001,207.397,269.786,219.733,256.001,219.733z M306.002,138.793c5.421,0,10,5.724,10,12.5s-4.579,12.501-10,12.501
	s-10-5.725-10-12.501S300.581,138.793,306.002,138.793z M276.589,144.898c-0.291,1.57-0.478,3.18-0.55,4.822
	c-1.05-0.554-2.124-1.064-3.218-1.531C274.159,147.203,275.416,146.099,276.589,144.898z M256.001,108.792
	c5.42,0,9.999,5.724,9.999,12.5c0,6.776-4.579,12.5-9.999,12.5c-5.421,0-10-5.725-10-12.5
	C246.001,114.516,250.58,108.792,256.001,108.792z M239.181,148.189c-1.095,0.468-2.168,0.978-3.219,1.532
	c-0.072-1.643-0.259-3.253-0.549-4.823C236.585,146.099,237.842,147.203,239.181,148.189z M195.999,151.293
	c0-6.776,4.579-12.5,10-12.5s10,5.724,10,12.5s-4.579,12.501-10,12.501C200.578,163.794,195.999,158.069,195.999,151.293z"/>
<path d="M368.191,349.082h-145.85c-5.522,0-10,4.477-10,10s4.478,10,10,10h145.851c5.522,0,10-4.477,10-10
	C378.191,353.559,373.714,349.082,368.191,349.082z"/>
<path d="M180.122,341.832l-24.558,25.159l-4.683-4.683c-3.906-3.905-10.236-3.905-14.143,0c-3.905,3.905-3.905,10.237,0,14.142
	l11.84,11.84c1.876,1.876,4.42,2.929,7.071,2.929c0.02,0,0.04,0,0.061-0.001c2.673-0.016,5.229-1.102,7.096-3.015l31.628-32.402
	c3.857-3.952,3.781-10.283-0.171-14.141C190.31,337.801,183.979,337.879,180.122,341.832z"/>
<path d="M180.122,281.83l-24.558,25.159l-4.683-4.683c-3.906-3.905-10.236-3.905-14.143,0c-3.905,3.905-3.905,10.237,0,14.142
	l11.84,11.84c1.876,1.876,4.42,2.929,7.071,2.929c0.02,0,0.04,0,0.061,0c2.673-0.016,5.229-1.102,7.096-3.015l31.628-32.402
	c3.857-3.952,3.781-10.283-0.171-14.141C190.31,277.799,183.979,277.877,180.122,281.83z"/>
<path d="M288.293,409.084h-65.952c-5.522,0-10,4.477-10,10s4.478,10,10,10h65.952c5.522,0,10-4.477,10-10
	S293.815,409.084,288.293,409.084z"/>
<path d="M318.34,409.084h-0.323c-5.522,0-10,4.477-10,10s4.478,10,10,10h0.323c5.522,0,10-4.477,10-10
	S323.862,409.084,318.34,409.084z"/>
<path d="M368.191,289.08h-0.324c-5.522,0-10,4.477-10,10s4.478,10,10,10h0.324c5.522,0,10-4.477,10-10
	C378.191,293.557,373.714,289.08,368.191,289.08z"/>
<path d="M212.341,299.08c0,5.523,4.478,10,10,10h115.803c5.522,0,10-4.477,10-10s-4.478-10-10-10H222.341
	C216.818,289.08,212.341,293.557,212.341,299.08z"/>
<g>
</g>
<g>
</g>
<g>
</g>
<g>
</g>
<g>
</g>
<g>
</g>
<g>
</g>
<g>
</g>
<g>
</g>
<g>
</g>
<g>
</g>
<g>
</g>
<g>
</g>
<g>
</g>
<g>
</g>
</svg>
