<?xml version="1.0" encoding="iso-8859-1"?>
<!-- Generator: Adobe Illustrator 19.0.0, SVG Export Plug-In . SVG Version: 6.00 Build 0)  -->
<svg version="1.1" id="Capa_1" xmlns="http://www.w3.org/2000/svg" xmlns:xlink="http://www.w3.org/1999/xlink" x="0px" y="0px"
	 viewBox="0 0 512 512" style="enable-background:new 0 0 512 512;" xml:space="preserve">
<g>
	<path style="fill:#FD4A4A;" d="M371.812,199.249H418.9h47.087L291.125,24.511c-19.319-19.306-50.934-19.306-70.252,0
		L46.014,199.249H93.1h47.087L256,83.437L371.812,199.249z"/>
	<path style="fill:#FFCEAC;" d="M371.812,199.249L256,83.437L140.187,199.249H93.1l6.712,39.875h92.872
		c11.208-23.809,35.347-40.28,63.316-40.28s52.107,16.471,63.316,40.28h92.871l6.713-39.875H371.812z"/>
	<path style="fill:#9D7463;" d="M319.316,239.124c-11.209-23.809-35.348-40.28-63.316-40.28c-27.97,0-52.108,16.471-63.316,40.28
		c-4.284,9.099-6.68,19.269-6.68,30c0,10.731,2.395,20.9,6.679,29.998c11.209,23.809,35.348,40.281,63.317,40.281
		s52.107-16.472,63.316-40.281c4.284-9.098,6.68-19.267,6.68-29.998C325.995,258.392,323.6,248.224,319.316,239.124z"/>
	<g>
		<path style="fill:#FFA655;" d="M186.004,269.124c0-10.731,2.395-20.901,6.68-30H99.812l10.098,59.998h82.773
			C188.4,290.024,186.004,279.855,186.004,269.124z"/>
		<path style="fill:#FFA655;" d="M325.995,269.124c0,10.731-2.395,20.9-6.68,29.998h82.773l10.097-59.998h-92.871
			C323.6,248.224,325.995,258.392,325.995,269.124z"/>
	</g>
	<path style="fill:#FFCEAC;" d="M319.316,299.122c-11.209,23.809-35.348,40.281-63.316,40.281c-27.97,0-52.108-16.472-63.317-40.281
		h-82.773l13.949,82.887h264.28l5.914-35.134l8.036-47.753H319.316z"/>
	<path style="fill:#E0AC91;" d="M388.14,382.008h-264.28h-17.85c-10.999,0-19.999,8.999-19.999,19.999v24.997v15
		c0,11,8.999,19.999,19.999,19.999h59.996h179.988h59.996c10.999,0,19.999-8.998,19.999-19.999v-39.997
		c0-10.999-8.999-19.999-19.999-19.999H388.14z"/>
	<path style="fill:#FD4A4A;" d="M345.994,462.003H166.006v19.999c0,11,8.999,20,19.999,20h139.991c10.999,0,19.999-8.999,19.999-20
		V462.003z"/>
</g>
<path d="M473.989,205.225c0.105-0.141,0.215-0.278,0.313-0.424c0.096-0.144,0.179-0.292,0.267-0.439
	c0.079-0.133,0.163-0.263,0.236-0.4c0.08-0.15,0.148-0.304,0.22-0.456c0.067-0.143,0.139-0.284,0.199-0.43
	c0.061-0.149,0.111-0.3,0.165-0.451c0.057-0.157,0.117-0.312,0.166-0.473c0.046-0.152,0.079-0.306,0.118-0.46
	c0.041-0.162,0.086-0.322,0.119-0.488c0.035-0.179,0.057-0.36,0.082-0.54c0.021-0.143,0.047-0.283,0.062-0.427
	c0.032-0.324,0.049-0.649,0.049-0.974c0-0.004,0.001-0.008,0.001-0.012l0,0c0-0.33-0.018-0.66-0.05-0.989
	c-0.015-0.142-0.041-0.28-0.062-0.42c-0.025-0.183-0.047-0.366-0.083-0.547c-0.032-0.165-0.078-0.325-0.119-0.487
	c-0.039-0.154-0.072-0.309-0.118-0.461c-0.049-0.16-0.109-0.314-0.165-0.471c-0.055-0.151-0.104-0.304-0.166-0.453
	c-0.06-0.145-0.131-0.284-0.198-0.426c-0.072-0.154-0.141-0.31-0.222-0.461c-0.072-0.136-0.155-0.264-0.234-0.396
	c-0.088-0.148-0.172-0.298-0.268-0.443c-0.099-0.147-0.208-0.285-0.315-0.426c-0.089-0.12-0.172-0.243-0.268-0.359
	c-0.209-0.255-0.43-0.499-0.662-0.732c-0.001,0-0.002-0.001-0.002-0.001L298.194,17.437c-23.266-23.249-61.123-23.249-84.388,0
	L38.945,192.175c-0.009,0.009-0.016,0.019-0.025,0.028c-0.223,0.225-0.436,0.46-0.637,0.705c-0.099,0.12-0.185,0.247-0.277,0.371
	c-0.103,0.138-0.21,0.272-0.305,0.415c-0.097,0.145-0.181,0.295-0.27,0.444c-0.079,0.131-0.162,0.26-0.234,0.395
	c-0.08,0.15-0.148,0.305-0.22,0.458c-0.067,0.143-0.139,0.283-0.199,0.43c-0.062,0.148-0.111,0.299-0.165,0.45
	c-0.057,0.158-0.117,0.313-0.166,0.475c-0.045,0.15-0.079,0.303-0.117,0.455c-0.042,0.164-0.087,0.326-0.121,0.493
	c-0.036,0.178-0.057,0.358-0.083,0.538c-0.02,0.143-0.048,0.284-0.062,0.429c-0.032,0.328-0.05,0.658-0.05,0.988v0.001
	c0,0.011,0.001,0.021,0.001,0.031c0.001,0.319,0.017,0.637,0.048,0.955c0.014,0.145,0.042,0.285,0.062,0.427
	c0.025,0.18,0.047,0.361,0.083,0.54c0.032,0.163,0.077,0.322,0.118,0.483c0.039,0.156,0.073,0.312,0.12,0.466
	c0.047,0.158,0.106,0.309,0.162,0.464c0.055,0.154,0.106,0.309,0.168,0.46c0.06,0.144,0.13,0.282,0.196,0.422
	c0.073,0.156,0.142,0.313,0.224,0.465c0.072,0.133,0.153,0.26,0.23,0.39c0.089,0.15,0.175,0.303,0.273,0.45
	c0.093,0.139,0.197,0.27,0.296,0.403c0.095,0.127,0.184,0.258,0.286,0.382c0.179,0.218,0.371,0.426,0.567,0.628
	c0.032,0.033,0.06,0.069,0.092,0.102c0.009,0.009,0.019,0.017,0.028,0.025c0.225,0.223,0.459,0.436,0.704,0.637
	c0.121,0.1,0.249,0.186,0.374,0.279c0.137,0.102,0.27,0.208,0.413,0.304c0.145,0.097,0.295,0.181,0.444,0.27
	c0.131,0.078,0.26,0.161,0.395,0.233c0.151,0.081,0.306,0.149,0.459,0.221c0.143,0.067,0.282,0.138,0.428,0.199
	c0.149,0.062,0.302,0.111,0.453,0.166c0.156,0.056,0.31,0.116,0.471,0.165c0.151,0.046,0.305,0.079,0.458,0.118
	c0.164,0.041,0.325,0.087,0.492,0.12c0.176,0.035,0.353,0.056,0.53,0.081c0.146,0.021,0.289,0.048,0.437,0.063
	c0.328,0.032,0.658,0.05,0.987,0.05h38.631l27.393,162.76h-6.027c-16.541,0-29.998,13.457-29.998,29.998v39.997
	c0,16.541,13.457,29.998,29.998,29.998h49.997v9.999c0,16.542,13.457,29.999,29.998,29.999h139.991
	c16.541,0,29.998-13.457,29.998-29.999v-9.999h49.997c16.541,0,29.998-13.457,29.998-29.998v-39.997
	c0-16.541-13.457-29.998-29.998-29.998h-6.027l27.393-162.76h38.629c0.331,0,0.662-0.018,0.992-0.05
	c0.135-0.014,0.266-0.039,0.399-0.058c0.189-0.026,0.38-0.049,0.568-0.087c0.158-0.031,0.311-0.075,0.467-0.114
	c0.161-0.04,0.323-0.076,0.482-0.124c0.153-0.046,0.301-0.104,0.45-0.158c0.158-0.056,0.317-0.109,0.474-0.173
	c0.139-0.058,0.272-0.126,0.407-0.189c0.16-0.075,0.322-0.147,0.479-0.231c0.129-0.069,0.251-0.148,0.376-0.223
	c0.155-0.092,0.312-0.18,0.462-0.281c0.138-0.092,0.268-0.196,0.4-0.294c0.128-0.096,0.26-0.185,0.385-0.288
	c0.254-0.208,0.498-0.429,0.73-0.661c0,0,0-0.001,0.001-0.001c0.016-0.015,0.028-0.032,0.043-0.047
	c0.216-0.219,0.423-0.446,0.618-0.684C473.815,205.469,473.899,205.345,473.989,205.225z M227.941,31.584
	c15.47-15.461,40.644-15.461,56.116,0L441.833,189.25h-65.88L263.071,76.365c-1.876-1.875-4.419-2.929-7.071-2.929
	s-5.196,1.054-7.071,2.929L136.045,189.25H70.167L227.941,31.584z M393.633,289.123h-60.152c1.641-6.396,2.514-13.097,2.514-20
	s-0.873-13.603-2.514-20h66.885L393.633,289.123z M315.996,269.123c0,33.239-26.914,60.281-59.996,60.281
	s-59.996-27.042-59.996-60.281s26.914-60.281,59.996-60.281S315.996,235.885,315.996,269.123z M178.519,289.123h-60.152
	l-6.732-39.999h66.885c-1.64,6.396-2.514,13.097-2.514,20C176.005,276.026,176.879,282.726,178.519,289.123z M335.994,482.001
	c0,5.515-4.486,10-9.999,10H186.004c-5.514,0-9.999-4.486-9.999-10v-9.999h159.989V482.001z M415.989,402.007v39.997
	c0,5.514-4.486,9.999-9.999,9.999H106.01c-5.514,0-9.999-4.486-9.999-9.999v-5.001h55.948c5.523,0,9.999-4.477,9.999-9.999
	s-4.477-9.999-9.999-9.999H96.01v-14.998c0-5.514,4.486-9.999,9.999-9.999l0,0c0.011,0-0.011,0,0,0c0.012,0-0.012,0,0,0h299.98
	c0.012,0-0.012,0,0,0c0.011,0-0.011,0,0,0l0,0C411.503,392.007,415.989,396.493,415.989,402.007z M132.316,372.009l-10.583-62.888
	h64.954c13.833,24.049,39.711,40.281,69.313,40.281s55.48-16.232,69.313-40.281h64.953l-4.671,27.754h-27.492
	c-5.522,0-9.999,4.477-9.999,9.999s4.478,9.999,9.999,9.999h24.126l-2.547,15.135H132.316z M403.731,229.125h-78.418
	c-13.833-24.048-39.712-40.281-69.313-40.281c-29.602,0-55.48,16.232-69.313,40.281h-78.418l-3.345-19.877h35.264
	c0.329,0,0.659-0.018,0.986-0.05c0.148-0.015,0.293-0.042,0.439-0.063c0.177-0.025,0.354-0.046,0.528-0.081
	c0.167-0.033,0.328-0.079,0.491-0.12c0.153-0.039,0.307-0.072,0.458-0.118c0.16-0.048,0.314-0.108,0.469-0.164
	c0.152-0.054,0.305-0.104,0.455-0.166c0.145-0.06,0.284-0.131,0.426-0.197c0.154-0.073,0.31-0.142,0.461-0.222
	c0.134-0.072,0.261-0.153,0.391-0.231c0.15-0.09,0.303-0.175,0.449-0.273c0.139-0.093,0.27-0.197,0.404-0.297
	c0.127-0.095,0.258-0.184,0.381-0.285c0.23-0.189,0.449-0.389,0.661-0.598c0.022-0.022,0.047-0.041,0.07-0.063L255.998,97.578
	l108.741,108.743c0.031,0.032,0.066,0.058,0.099,0.089c0.204,0.198,0.413,0.391,0.632,0.571c0.122,0.1,0.251,0.188,0.376,0.281
	c0.137,0.102,0.27,0.208,0.411,0.302c0.144,0.096,0.293,0.179,0.439,0.267c0.134,0.08,0.264,0.163,0.401,0.237
	c0.148,0.079,0.301,0.146,0.452,0.218c0.145,0.068,0.287,0.14,0.435,0.202c0.147,0.061,0.298,0.11,0.448,0.164
	c0.158,0.057,0.314,0.117,0.475,0.166c0.151,0.046,0.305,0.079,0.457,0.118c0.164,0.041,0.325,0.087,0.492,0.12
	c0.178,0.035,0.358,0.056,0.537,0.082c0.144,0.021,0.284,0.048,0.43,0.062c0.33,0.033,0.662,0.05,0.993,0.05h35.259L403.731,229.125
	z"/>
<path d="M182.005,417.005h-0.324c-5.523,0-9.999,4.477-9.999,9.999s4.477,9.999,9.999,9.999h0.324c5.523,0,9.999-4.477,9.999-9.999
	C192.004,421.482,187.527,417.005,182.005,417.005z"/>
<path d="M328.383,336.876h-0.324c-5.522,0-9.999,4.477-9.999,9.999s4.478,9.999,9.999,9.999h0.324c5.522,0,9.999-4.477,9.999-9.999
	S333.904,336.876,328.383,336.876z"/>
<g>
</g>
<g>
</g>
<g>
</g>
<g>
</g>
<g>
</g>
<g>
</g>
<g>
</g>
<g>
</g>
<g>
</g>
<g>
</g>
<g>
</g>
<g>
</g>
<g>
</g>
<g>
</g>
<g>
</g>
</svg>
