<?xml version="1.0" encoding="iso-8859-1"?>
<!-- Generator: Adobe Illustrator 19.0.0, SVG Export Plug-In . SVG Version: 6.00 Build 0)  -->
<svg version="1.1" id="Capa_1" xmlns="http://www.w3.org/2000/svg" xmlns:xlink="http://www.w3.org/1999/xlink" x="0px" y="0px"
	 viewBox="0 0 512.001 512.001" style="enable-background:new 0 0 512.001 512.001;" xml:space="preserve">
<g>
	<polygon style="fill:#66E2E7;" points="186.307,104.571 315.803,104.571 319.45,87.298 328.345,45.179 249.188,10 174.418,43.364 
		183.251,88.836 	"/>
	<path style="fill:#9D7463;" d="M315.803,104.571H186.307l-3.057-15.735c-69.815,54.416-60.165,184.297-51.551,190.805
		c13.441,9.649,57.723,19.063,82.76,24.486c4.169,0.904,9.016,1.715,13.963,2.369c0.008,0.002,0.016,0.002,0.023,0.004
		c-26.552-15.087-45.415-48.737-52.608-75.395c-5.673-16.458-3.218-45.053-3.218-62.977c25.276-4.604,38.633-10.066,56.338-28.971
		c40.278,21.154,67.641,27.745,104.086,28.971l0.008,46.039c0,27.004-23.478,70.284-51.928,89.869
		c34.387-6.247,82.577-17.921,93.578-23.311c0,0,16.718-147.261-55.252-193.426L315.803,104.571z"/>
	<path style="fill:#FFCEAC;" d="M333.044,168.128c-36.445-1.226-63.808-7.816-104.086-28.971
		c-17.705,18.904-31.062,24.367-56.338,28.971c0,17.925-2.455,46.52,3.218,62.977c7.193,26.657,26.057,60.308,52.608,75.395
		c-0.008-0.002-0.016-0.002-0.023-0.003c7.432,4.215,15.529,7.012,24.077,7.757c9.282,0,19.704-4.285,28.624-10.218
		c28.45-19.585,51.928-62.865,51.928-89.869L333.044,168.128z"/>
	<polygon style="fill:#FD4A4A;" points="343.708,377.915 311.581,377.915 311.581,404.687 284.809,404.687 284.809,436.813 
		311.581,436.813 311.581,463.586 343.708,463.586 343.708,436.813 370.479,436.813 370.479,404.687 343.708,404.687 	"/>
	<path style="fill:#66E2E7;" d="M284.809,436.813v-32.126h26.772v-26.772h32.127v26.772h26.771v32.126h-26.771v26.773h-32.127
		v-26.773H284.809L284.809,436.813z M352.329,328.618h-45.535l-51.729,34.744l-52.313-34.677l0.032-0.067h-46.268
		c-13.485-0.091-52.437,11.841-64.532,49.357L52.03,501.893l105.335,0.028l302.606,0.08l-45.007-126.766
		C403.802,343.795,383.201,328.618,352.329,328.618z"/>
	<path style="fill:#FFCEAC;" d="M255.065,363.362l51.729-34.744l-10.748-27.454c-5.148,1.041-10.167,2.008-14.922,2.872
		c-8.92,5.933-19.342,10.218-28.624,10.218c-8.548-0.745-16.646-3.542-24.077-7.757c-4.947-0.655-9.794-1.466-13.963-2.37
		l-11.675,24.491l-0.032,0.067L255.065,363.362z"/>
	<path d="M469.395,498.656L424.388,371.89c-12.55-35.349-36.794-53.272-72.059-53.272h-38.711l-3.954-10.101
		c28.026-6.032,59.588-13.986,69.439-18.813c3.064-1.501,5.151-4.462,5.536-7.852c0.693-6.103,15.715-146.414-54.04-198.944
		l7.531-35.663c0.975-4.617-1.411-9.288-5.723-11.204l-79.158-35.18c-2.59-1.151-5.547-1.148-8.136,0.006l-74.77,33.364
		c-4.249,1.896-6.629,6.472-5.742,11.039l7.699,39.634c-53.133,46.016-56.765,129.893-56.575,155.088
		c0.081,10.797,0.811,20.756,2.109,28.798c2.085,12.919,4.999,16.684,7.837,18.828c0.065,0.049,0.13,0.097,0.196,0.145
		c12.305,8.833,42.454,16.433,74.138,23.443l-3.533,7.411h-39.889c-17.472-0.115-60.448,13.892-74.117,56.287l-39.953,123.92
		c-0.981,3.042-0.448,6.371,1.433,8.954c1.882,2.585,4.885,4.113,8.082,4.114l105.33,0.028c0.003,0,0.005,0,0.007,0s0.004,0,0.006,0
		l302.598,0.081c0,0,0.001,0,0.002,0c3.248,0,6.294-1.578,8.168-4.231C470.014,505.117,470.482,501.718,469.395,498.656z
		 M294.557,324.791l-39.528,26.55l-39.512-26.192l4.658-9.771c1.66,0.275,3.37,0.538,5.121,0.784
		c8.527,4.549,17.374,7.273,26.336,8.054c0.288,0.025,0.578,0.038,0.868,0.038c9.959,0,21.386-3.805,32.375-10.739
		c1.584-0.293,3.221-0.603,4.904-0.928L294.557,324.791z M275.513,295.757c-7.969,5.286-16.169,8.365-22.598,8.493
		c-6.518-0.638-13.049-2.785-19.422-6.378c-0.036-0.021-0.069-0.045-0.106-0.066c-23.818-13.534-41.217-44.56-47.894-69.306
		c-0.06-0.22-0.127-0.438-0.201-0.653c-3.848-11.162-3.331-30.735-2.916-46.463c0.045-1.708,0.089-3.382,0.127-5.014
		c19.258-4.149,32.97-10.066,48.418-24.954c33.216,16.748,58.955,24.114,92.124,26.239l0.006,36.512
		C323.052,236.748,302.29,277.284,275.513,295.757z M249.197,20.946l67.692,30.084l-9.195,43.541H194.552l-8.802-45.313
		L249.197,20.946z M139.075,272.518c-2.33-7.099-5.999-36.828-0.377-74.118c4.185-27.759,14.267-64.16,38.29-90.205
		c1.47,3.787,5.139,6.376,9.32,6.376h129.495c4.727,0,8.808-3.31,9.784-7.934l0.314-1.484
		c45.557,44.127,41.283,143.383,39.382,168.563c-10.259,3.523-30.991,8.874-52.689,13.705c17.782-22.47,30.458-51.289,30.458-73.254
		l-0.008-46.039c-0.001-5.392-4.276-9.811-9.664-9.993c-36.904-1.241-63.013-8.523-99.772-27.83
		c-3.984-2.092-8.873-1.266-11.949,2.018c-16.018,17.103-27.244,21.672-50.831,25.968c-4.753,0.866-8.208,5.006-8.208,9.838
		c0,3.771-0.115,8.122-0.236,12.728c-0.478,18.104-1.02,38.606,3.886,53.173c4.584,16.816,13.971,37.813,27.993,55.393
		C173.617,284.68,148.851,278.318,139.075,272.518z M167.365,491.924v-43.316c0-5.523-4.477-10-10-10s-10,4.477-10,10v43.311
		l-81.605-0.021l35.743-110.854c10.343-32.08,44.16-42.425,54.905-42.425c0.037,0,0.074,0,0.11,0.001h43.121l49.902,33.079
		c1.675,1.11,3.6,1.665,5.525,1.665c1.945,0,3.89-0.567,5.576-1.699l49.199-33.045h42.489c26.623,0,43.532,12.699,53.212,39.964
		L445.81,492L167.365,491.924z"/>
	<path d="M235.343,71.882h4.604v4.604c0,5.523,4.477,10,10,10s10-4.477,10-10v-4.604h4.603c5.523,0,10-4.477,10-10
		c0-5.523-4.477-10-10-10h-4.603v-4.604c0-5.523-4.477-10-10-10s-10,4.477-10,10v4.604h-4.604c-5.523,0-10,4.477-10,10
		C225.343,67.405,229.82,71.882,235.343,71.882z"/>
	<path d="M370.479,394.687h-16.771v-16.772c0-5.523-4.477-10-10-10h-32.127c-5.523,0-10,4.477-10,10v16.772h-16.772
		c-5.523,0-10,4.477-10,10v32.126c0,5.523,4.477,10,10,10h16.772v16.773c0,5.523,4.477,10,10,10h32.127c5.523,0,10-4.477,10-10
		v-16.773h16.771c5.523,0,10-4.477,10-10v-32.126C380.479,399.164,376.002,394.687,370.479,394.687z M360.479,426.813h-16.771
		c-5.523,0-10,4.477-10,10v16.773h-12.127v-16.773c0-5.523-4.477-10-10-10h-16.772v-12.126h16.772c5.523,0,10-4.477,10-10v-16.772
		h12.127v16.772c0,5.523,4.477,10,10,10h16.771V426.813z"/>
	<path d="M157.365,408.56c-5.523,0-10,4.477-10,10v0.324c0,5.523,4.477,10,10,10s10-4.477,10-10v-0.324
		C167.365,413.037,162.888,408.56,157.365,408.56z"/>
	<path d="M284.273,199.159c-5.508,0-10,4.492-10,10s4.492,10,10,10s10.001-4.492,10.001-10
		C294.274,203.651,289.781,199.159,284.273,199.159z"/>
	<path d="M225.273,199.159c-5.508,0-10,4.492-10,10s4.492,10,10,10s10.001-4.492,10.001-10S230.781,199.159,225.273,199.159z"/>
</g>
<g>
</g>
<g>
</g>
<g>
</g>
<g>
</g>
<g>
</g>
<g>
</g>
<g>
</g>
<g>
</g>
<g>
</g>
<g>
</g>
<g>
</g>
<g>
</g>
<g>
</g>
<g>
</g>
<g>
</g>
</svg>
