<?xml version="1.0" encoding="iso-8859-1"?>
<!-- Generator: Adobe Illustrator 19.0.0, SVG Export Plug-In . SVG Version: 6.00 Build 0)  -->
<svg version="1.1" id="Capa_1" xmlns="http://www.w3.org/2000/svg" xmlns:xlink="http://www.w3.org/1999/xlink" x="0px" y="0px"
	 viewBox="0 0 512.001 512.001" style="enable-background:new 0 0 512.001 512.001;" xml:space="preserve">
<g>
	<g>
		<path style="fill:#E0AC91;" d="M76.329,236.573c22.55-118.582,57.376-179.96,103.45-207.564
			c-8.918-6.157-16.526-11.269-18.623-12.235C109.531-7.032,82.588,35.572,37.92,87.612
			C-10.717,144.279,30.316,213.386,76.329,236.573z"/>
		<path style="fill:#E0AC91;" d="M332.221,29.009c27.916,16.725,51.701,45.848,71.131,92.581
			c8.153,19.612,15.539,42.326,22.141,68.526c3.631,14.409,7.025,29.874,10.178,46.457c46.014-23.187,87.047-92.294,38.41-148.961
			c-44.668-52.04-71.612-94.645-123.237-70.838C348.747,17.74,341.139,22.852,332.221,29.009z"/>
	</g>
	<path style="fill:#F0F0F0;" d="M334.482,107.572c-84.564-30.215-105.458-95.699-105.458-95.699
		c-17.615,2.596-34.042,8.028-49.245,17.136c0.006,0.004,0.011,0.008,0.016,0.012c0,0,78.866,185.533,245.697,161.096
		c-6.602-26.2-13.987-48.914-22.141-68.526C376.69,119.592,353.906,114.513,334.482,107.572z"/>
	<path style="fill:#E0AC91;" d="M194.007,273.658c-64.492-12.575-104.994,9.273-123.211,41.494
		C35.166,378.17,84.787,480.863,206.909,443.277c15.243-4.691,31.615-11.567,49.092-20.979l-0.001,0.188
		c17.477,9.412,33.85,16.288,49.093,20.98c184.56,56.802,203.527-206.79,12.9-169.62c-0.046,5.447-2.123,10.885-6.241,15.074
		l-40.215,41.085c-8.618,8.624-22.431,8.73-31.011,0l-39.105-39.951C196.876,286.054,194.007,280.191,194.007,273.658z"/>
	<path style="fill:#9D7463;" d="M194.007,273.658c0,6.533,2.869,12.396,7.414,16.396l39.105,39.951c8.58,8.73,22.393,8.624,31.011,0
		l40.215-41.085c4.118-4.19,6.195-9.627,6.241-15.074c0.049-5.693-2.121-11.398-6.497-15.705c-4.235-4.17-9.743-6.247-15.249-6.246
		l-80.43-0.065C203.77,251.83,194.007,261.604,194.007,273.658z"/>
	<path style="fill:#FF8D8D;" d="M305.092,443.466c-15.243-4.691-31.616-11.567-49.093-20.98l0.001-0.188
		c-17.477,9.412-33.849,16.288-49.092,20.979v9.594c0,27.022,22.092,49.131,49.092,49.131s49.092-22.109,49.092-49.131V443.466z"/>
	<path style="fill:#FFCEAC;" d="M70.795,315.152c18.217-32.221,58.719-54.069,123.211-41.494c0-12.055,9.765-21.828,21.811-21.828
		l80.43,0.065c5.506-0.001,11.014,2.076,15.249,6.246c4.376,4.307,6.546,10.012,6.497,15.705
		c64.493-12.575,104.996,9.274,123.212,41.496l0.017-0.582c1.133-27.864-1.58-57.185-5.349-77.122
		c-0.067-0.355-0.134-0.71-0.202-1.064c-3.152-16.583-6.547-32.048-10.178-46.457C258.661,214.553,179.796,29.021,179.796,29.021
		c-0.005-0.004-0.01-0.008-0.016-0.012c-46.074,27.605-80.9,88.982-103.45,207.564c-0.067,0.354-0.135,0.709-0.202,1.064
		C72.342,257.668,69.62,287.171,70.795,315.152z"/>
	<path style="fill:#F0F0F0;" d="M403.351,121.59c-19.43-46.732-43.215-75.855-71.131-92.581C309.506,15.4,284.058,10,256,10
		c-9.279,0-18.273,0.591-26.976,1.873C229.024,11.873,260.617,110.895,403.351,121.59z"/>
</g>
<path d="M226.123,170.038c-4.822-2.693-10.914-0.967-13.607,3.854c-4.227,7.567-12.051,12.268-20.418,12.268
	s-16.191-4.701-20.418-12.268c-2.693-4.821-8.785-6.545-13.607-3.854c-4.821,2.694-6.547,8.786-3.854,13.607
	c7.758,13.887,22.272,22.514,37.879,22.514c15.606,0,30.121-8.627,37.879-22.514C232.671,178.824,230.945,172.732,226.123,170.038z"
	/>
<path d="M481.668,81.099c-4.826-5.623-9.461-11.154-13.942-16.504c-18.894-22.553-35.21-42.03-53.482-53.584
	c-21.222-13.42-43.331-14.504-67.586-3.32c-1.484,0.684-4.049,2.094-15.037,9.598C309.687,5.583,284.625,0,256,0
	c-9.59,0-18.778,0.628-27.585,1.902c-0.613,0.038-1.23,0.133-1.845,0.29c-16.758,2.612-32.122,7.589-46.191,15.097
	c-10.973-7.494-13.543-8.908-15.035-9.596c-24.258-11.187-46.366-10.101-67.587,3.319c-18.271,11.554-34.588,31.03-53.482,53.582
	c-4.482,5.35-9.116,10.882-13.943,16.505c-20.56,23.954-28.319,52.157-22.439,81.56c6.363,31.813,28.524,62.16,57.338,79.222
	c-2.955,18.11-5.409,44.407-4.532,70.915c-9.661,18.4-13.232,40.239-10.045,61.546c3.241,21.673,13.377,41.903,28.541,56.966
	c18.514,18.391,43.628,28.733,72.627,29.909c1.895,0.077,3.802,0.115,5.722,0.115c12.616,0,25.794-1.659,39.478-4.956
	c1.82,30.978,27.572,55.625,58.978,55.625c31.343,0,57.052-24.549,58.964-55.44c13.688,3.299,26.87,4.958,39.49,4.958
	c1.918,0,3.83-0.038,5.723-0.115c28.999-1.176,54.113-11.518,72.626-29.909c15.164-15.063,25.299-35.293,28.541-56.966
	c3.188-21.314-0.386-43.159-10.052-61.561c0.894-26.577-1.567-52.961-4.524-71.088c28.815-17.061,50.976-47.409,57.339-79.223
	C509.987,133.257,502.228,105.054,481.668,81.099z M357.706,63.662c10.799,12.43,20.591,27.791,29.443,46.197
	c-48.375-6.418-87.548-24.333-116.601-53.389c-13.628-13.63-22.044-26.988-26.805-36.08C247.729,20.132,251.811,20,256,20
	C299.509,20,331.827,33.874,357.706,63.662z M325.905,262.358c-1.571-4.15-4.031-8.034-7.394-11.344
	c-5.975-5.881-13.88-9.12-22.257-9.12l-80.437-0.065c-13.497,0-25.048,8.458-29.662,20.35c-28.838-4.304-54.408-2.091-76.105,6.649
	c-11.032,4.444-20.848,10.545-29.22,18.07c0.778-18.672,2.902-35.652,5.123-47.405c0.068-0.36,0.139-0.711,0.207-1.07
	c0.017-0.091,0.038-0.182,0.053-0.273c15.779-82.834,38.052-139.927,68.08-174.489c6.682-7.691,13.796-14.312,21.418-19.916
	c1.892,3.753,4.31,8.347,7.267,13.582c-10.298,8.03-19.885,18.436-28.56,31.034c-3.132,4.549-1.984,10.776,2.565,13.908
	c1.732,1.193,3.707,1.765,5.663,1.765c3.179,0,6.306-1.513,8.245-4.33c6.969-10.121,14.512-18.525,22.492-25.091
	c9.841,15.386,22.928,33.363,39.399,50.954c24.46,26.122,51.313,45.905,79.816,58.798c26.428,11.955,54.248,17.96,83.043,17.96
	c7.356,0,14.778-0.399,22.255-1.185c2.794,11.722,5.424,24.064,7.895,37.037c0.009,0.056,0.022,0.11,0.032,0.166
	c0.073,0.387,0.15,0.764,0.223,1.152c2.226,11.775,4.361,28.845,5.133,47.601c-8.374-7.529-18.193-13.633-29.23-18.08
	C380.267,260.282,354.718,258.065,325.905,262.358z M215.809,261.83l80.441,0.064c3.098,0,6.021,1.198,8.231,3.372
	c4.623,4.551,4.685,12.017,0.122,16.658l-40.172,41.042c-2.3,2.287-5.306,3.546-8.466,3.546c-3.128,0-6.079-1.25-8.293-3.503
	l-39.106-39.951c-0.173-0.177-0.353-0.348-0.54-0.512c-2.555-2.249-4.02-5.489-4.02-8.889
	C204.007,267.136,209.304,261.83,215.809,261.83z M247.779,112.321c-29.151-31.01-47.433-64.082-54.907-79.038
	c9.25-4.58,19.194-7.941,29.938-10.137c4.583,10.071,14.434,28.048,32.733,46.598c24.011,24.339,67.773,54.361,140.838,61.282
	c5.999,15.143,11.506,31.948,16.535,50.506C351.75,187.114,296.241,163.873,247.779,112.321z M27.506,158.736
	c-4.63-23.151,1.595-45.494,18.003-64.61c4.904-5.714,9.578-11.292,14.097-16.688c39.376-47.002,59.964-68.829,97.275-51.625
	c0.348,0.176,1.523,0.84,5.172,3.248c-43.398,32.963-72.879,95.035-92.774,191.627C48.414,206.008,32.253,182.472,27.506,158.736z
	 M295.091,452.871c0,21.577-17.536,39.131-39.091,39.131s-39.091-17.554-39.091-39.131v-2.32c9.487-3.255,19.19-7.249,29.091-11.967
	v17.313c0,5.523,4.477,10,10,10c5.523,0,10-4.477,10-10v-17.124c9.901,4.719,19.604,8.712,29.091,11.967V452.871z M418.708,417.307
	c-33.546,33.321-90.543,32.242-156.536-2.874c-0.113-0.089-0.231-0.169-0.347-0.252c-0.093-0.067-0.182-0.138-0.277-0.201
	c-0.145-0.096-0.295-0.182-0.444-0.27c-0.134-0.08-0.265-0.163-0.403-0.237c-0.117-0.062-0.238-0.115-0.357-0.172
	c-0.175-0.085-0.35-0.172-0.531-0.247c-0.094-0.039-0.191-0.069-0.287-0.105c-0.207-0.079-0.415-0.157-0.628-0.222
	c-0.096-0.029-0.194-0.048-0.29-0.074c-0.213-0.058-0.426-0.117-0.644-0.16c-0.196-0.039-0.394-0.063-0.592-0.09
	c-0.121-0.017-0.239-0.042-0.361-0.054c-0.665-0.068-1.339-0.068-2.012,0c-0.084,0.008-0.165,0.025-0.248,0.036
	c-0.241,0.03-0.481,0.061-0.72,0.11c-0.162,0.032-0.318,0.078-0.477,0.118c-0.156,0.039-0.313,0.073-0.467,0.12
	c-0.235,0.071-0.463,0.158-0.69,0.246c-0.077,0.03-0.156,0.053-0.232,0.085c-0.325,0.135-0.643,0.285-0.949,0.453
	c-66.583,35.846-124.144,37.16-157.925,3.603c-24.77-24.604-30.977-64.672-14.76-95.273c17.672-33.348,56.334-47.577,106.67-39.577
	c1.611,5.731,4.808,10.957,9.308,15.021l38.884,39.725c6.02,6.126,14.036,9.499,22.572,9.499c8.52,0,16.562-3.353,22.645-9.439
	c0.024-0.024,0.048-0.049,0.073-0.074l40.199-41.07c3.832-3.899,6.451-8.545,7.861-13.465c50.364-8.019,89.046,6.208,106.725,39.568
	C449.684,352.634,443.477,392.702,418.708,417.307z M484.494,158.736c-4.747,23.737-20.91,47.273-41.774,61.953
	c-19.895-96.593-49.376-158.665-92.774-191.628c3.64-2.404,4.79-3.055,5.085-3.207c37.402-17.246,57.988,4.583,97.364,51.585
	c4.52,5.395,9.193,10.973,14.097,16.687C482.9,113.243,489.125,135.585,484.494,158.736z"/>
<path d="M157.195,123.157l0.112-0.22c2.507-4.921,0.55-10.942-4.372-13.45c-4.919-2.507-10.942-0.551-13.45,4.371
	c-0.009,0.018-0.037,0.074-0.046,0.092c-2.542,4.903-0.629,10.938,4.274,13.48c1.471,0.763,3.044,1.124,4.595,1.124
	C151.924,128.556,155.414,126.588,157.195,123.157z"/>
<path d="M143.251,318.898c-5.508,0-10,4.493-10,10c0,5.508,4.492,10.001,10,10.001s10-4.493,10-10.001
	C153.251,323.392,148.758,318.898,143.251,318.898z"/>
<path d="M122.25,373.898c-5.508,0-10,4.493-10,10.001s4.492,10,10,10s10-4.492,10-10
	C132.251,378.392,127.758,373.898,122.25,373.898z"/>
<path d="M181.751,359.898c-5.508,0-10,4.493-10,10.001s4.492,10,10,10s10-4.492,10-10
	C191.751,364.392,187.258,359.898,181.751,359.898z"/>
<path d="M368.75,318.898c-5.508,0-10,4.493-10,10c0,5.508,4.492,10.001,10,10.001s10-4.493,10-10.001
	C378.75,323.392,374.258,318.898,368.75,318.898z"/>
<path d="M389.75,373.898c-5.508,0-10,4.493-10,10.001s4.492,10,10,10s10-4.492,10-10C399.75,378.392,395.258,373.898,389.75,373.898
	z"/>
<path d="M330.25,359.898c-5.508,0-10,4.493-10,10.001s4.492,10,10,10s10-4.492,10-10C340.25,364.392,335.758,359.898,330.25,359.898
	z"/>
<g>
</g>
<g>
</g>
<g>
</g>
<g>
</g>
<g>
</g>
<g>
</g>
<g>
</g>
<g>
</g>
<g>
</g>
<g>
</g>
<g>
</g>
<g>
</g>
<g>
</g>
<g>
</g>
<g>
</g>
</svg>
