<?xml version="1.0" encoding="iso-8859-1"?>
<!-- Generator: Adobe Illustrator 19.0.0, SVG Export Plug-In . SVG Version: 6.00 Build 0)  -->
<svg version="1.1" id="Capa_1" xmlns="http://www.w3.org/2000/svg" xmlns:xlink="http://www.w3.org/1999/xlink" x="0px" y="0px"
	 viewBox="0 0 512.001 512.001" style="enable-background:new 0 0 512.001 512.001;" xml:space="preserve">
<g>
	<g>
		<circle style="fill:#66E2E7;" cx="35.35" cy="47.329" r="25.355"/>
		<circle style="fill:#66E2E7;" cx="255.62" cy="47.329" r="25.355"/>
	</g>
	<path style="fill:#00A2BB;" d="M206.185,213.356c-34.094,22.754-78.839,23.694-114.21,2.82l10.594,19.488l45.744,84.139
		l45.744-84.139L206.185,213.356z"/>
	<g>
		<ellipse style="fill:#FFCEAC;" cx="231.06" cy="321.159" rx="21.787" ry="23.613"/>
		<ellipse style="fill:#FFCEAC;" cx="295.71" cy="291.639" rx="21.788" ry="23.613"/>
		<ellipse style="fill:#FFCEAC;" cx="358.96" cy="321.159" rx="21.787" ry="23.613"/>
		<ellipse style="fill:#FFCEAC;" cx="295.01" cy="396.209" rx="43.33" ry="43.501"/>
	</g>
	<path style="fill:#66E2E7;" d="M441.703,220.592c-12.285,0-22.244-10-22.244-22.335c0-12.335,9.959-22.335,22.244-22.335
		c12.286,0,22.245,9.999,22.245,22.335C463.948,210.592,453.989,220.592,441.703,220.592L441.703,220.592z M381.406,198.258
		c0,33.436,26.996,60.542,60.297,60.542c33.302,0,60.297-27.105,60.297-60.542s-26.995-60.543-60.297-60.543
		C408.402,137.715,381.406,164.821,381.406,198.258z"/>
	<ellipse style="fill:#00A2BB;" cx="441.7" cy="198.259" rx="22.245" ry="22.335"/>
</g>
<path d="M441.703,333.332c-5.523,0-10,4.477-10,10c0,75.374-61.321,136.695-136.695,136.695s-136.695-61.321-136.695-136.695
	v-20.985l55.521-102.123c39.874-27.859,58.832-78.039,52.807-139.308c14.112-4.644,24.333-17.94,24.333-33.587
	c0-19.495-15.86-35.355-35.355-35.355s-35.355,15.86-35.355,35.355c0,16.38,11.199,30.19,26.34,34.187
	c5.838,55.884-11.075,100.89-46.989,124.195c-31.41,20.382-72.446,20.638-104.542,0.651c-37.149-23.134-55.348-68.392-50.547-124.89
	c15.063-4.049,26.187-17.819,26.187-34.143c0-19.495-15.86-35.355-35.355-35.355S0,27.833,0,47.328
	c0,15.709,10.301,29.051,24.5,33.644c-5.102,63.695,16.47,115.246,59.978,142.353l53.834,99.021v20.986
	c0,41.692,16.344,80.997,46.021,110.674s68.982,46.021,110.674,46.021c41.693,0,80.998-16.344,110.675-46.021
	s46.021-68.981,46.021-110.674C451.703,337.809,447.226,333.332,441.703,333.332z M240.262,47.328
	c0-8.467,6.888-15.355,15.355-15.355s15.355,6.888,15.355,15.355s-6.888,15.356-15.355,15.356S240.262,55.795,240.262,47.328z
	 M35.355,31.973c8.467,0,15.355,6.888,15.355,15.355s-6.888,15.356-15.355,15.356S20,55.795,20,47.328S26.888,31.973,35.355,31.973z
	 M182.702,235.613l-34.389,63.254l-33.843-62.251c10.622,3.028,21.575,4.546,32.516,4.545
	C159.065,241.161,171.124,239.3,182.702,235.613z"/>
<path d="M441.703,305.864c-5.523,0-10,4.477-10,10v0.14c0,5.523,4.477,10,10,10s10-4.477,10-10v-0.14
	C451.703,310.341,447.226,305.864,441.703,305.864z"/>
<path d="M512.001,198.257c0-38.897-31.535-70.542-70.297-70.542s-70.297,31.645-70.297,70.542c0,35.489,26.256,64.928,60.296,69.816
	v20.12c0,5.523,4.477,10,10,10s10-4.477,10-10v-20.119C485.744,263.186,512.001,233.747,512.001,198.257z M441.704,210.592
	c-6.752,0-12.245-5.533-12.245-12.335s5.493-12.335,12.245-12.335c6.752,0,12.245,5.534,12.245,12.335
	C453.949,205.059,448.456,210.592,441.704,210.592z M451.703,247.793v-18.8c12.899-4.23,22.246-16.406,22.246-30.736
	c0-17.83-14.465-32.335-32.245-32.335s-32.245,14.506-32.245,32.335c0,14.329,9.346,26.504,22.244,30.735v18.8
	c-22.959-4.673-40.296-25.106-40.296-49.535c0-27.869,22.563-50.542,50.297-50.542s50.297,22.673,50.297,50.542
	C492.001,222.687,474.663,243.121,451.703,247.793z"/>
<path d="M295.008,449.711c29.403,0,53.325-24,53.325-53.5c0-29.501-23.922-53.501-53.325-53.501s-53.324,24-53.324,53.501
	C241.684,425.71,265.605,449.711,295.008,449.711z M295.008,362.709c18.375,0,33.325,15.028,33.325,33.501
	c0,18.472-14.95,33.5-33.325,33.5s-33.324-15.028-33.324-33.5S276.633,362.709,295.008,362.709z"/>
<path d="M358.961,354.77c17.528,0,31.789-15.079,31.789-33.613s-14.261-33.612-31.789-33.612c-17.527,0-31.787,15.079-31.787,33.612
	C327.174,339.691,341.434,354.77,358.961,354.77z M358.961,307.544c6.5,0,11.789,6.107,11.789,13.612
	c0,7.506-5.289,13.613-11.789,13.613s-11.787-6.107-11.787-13.613C347.174,313.651,352.461,307.544,358.961,307.544z"/>
<path d="M263.926,291.641c0,18.534,14.26,33.613,31.787,33.613c17.528,0,31.788-15.079,31.788-33.613s-14.26-33.613-31.788-33.613
	S263.926,273.107,263.926,291.641z M295.713,278.028c6.5,0,11.788,6.107,11.788,13.613s-5.288,13.613-11.788,13.613
	c-6.499,0-11.787-6.106-11.787-13.613C283.926,284.135,289.213,278.028,295.713,278.028z"/>
<path d="M231.055,287.544c-17.527,0-31.787,15.079-31.787,33.612c0,18.534,14.26,33.613,31.787,33.613
	c17.528,0,31.788-15.079,31.788-33.613C262.843,302.623,248.583,287.544,231.055,287.544z M231.055,334.77
	c-6.499,0-11.787-6.107-11.787-13.613s5.288-13.612,11.787-13.612c6.5,0,11.788,6.107,11.788,13.612
	C242.843,328.663,237.555,334.77,231.055,334.77z"/>
<g>
</g>
<g>
</g>
<g>
</g>
<g>
</g>
<g>
</g>
<g>
</g>
<g>
</g>
<g>
</g>
<g>
</g>
<g>
</g>
<g>
</g>
<g>
</g>
<g>
</g>
<g>
</g>
<g>
</g>
</svg>
