<?xml version="1.0" encoding="iso-8859-1"?>
<!-- Generator: Adobe Illustrator 19.0.0, SVG Export Plug-In . SVG Version: 6.00 Build 0)  -->
<svg version="1.1" id="Capa_1" xmlns="http://www.w3.org/2000/svg" xmlns:xlink="http://www.w3.org/1999/xlink" x="0px" y="0px"
	 viewBox="0 0 512.001 512.001" style="enable-background:new 0 0 512.001 512.001;" xml:space="preserve">
<g>
	<path style="fill:#00A2BB;" d="M247.69,291.208l189.83-191.108l-32.065-31.656c-20.259-20.408-41.713-12.852-56.752,2.111
		c-59.914,59.614-103.632,103.046-163.566,162.642L19.426,401.588c-26.297,31.195,6.735,73.779,45.045,44.729l131.025-134.228
		L247.69,291.208z"/>
	<polygon style="fill:#E0AC91;" points="405.932,132.027 470.348,195.991 502,164.125 437.585,100.163 	"/>
	<polygon style="fill:#FFCEAC;" points="470.348,195.991 405.932,132.027 374.28,163.891 438.696,227.855 	"/>
	<polygon style="fill:#E0AC91;" points="438.696,227.855 374.28,163.891 342.629,195.756 407.043,259.719 	"/>
	<polygon style="fill:#FFCEAC;" points="407.043,259.719 342.629,195.756 310.977,227.62 375.392,291.584 	"/>
	<polygon style="fill:#E0AC91;" points="375.392,291.584 310.977,227.62 279.324,259.485 343.739,323.447 	"/>
	<polygon style="fill:#FFCEAC;" points="343.739,323.447 279.324,259.485 247.672,291.349 312.087,355.312 	"/>
</g>
<path d="M509.046,157.029l-64.415-63.962c-0.013-0.013-0.026-0.023-0.039-0.035c-0.016-0.016-0.029-0.033-0.045-0.049
	l-32.028-31.619c-10.139-10.199-21.411-15.371-33.505-15.371c-12.955,0-25.875,6.042-37.363,17.473
	c-39.519,39.321-71.991,71.603-106.721,106.127l-56.844,56.514c-0.025,0.025-0.051,0.051-0.077,0.077L12.297,394.574
	c-0.18,0.183-0.353,0.372-0.518,0.569c-12.082,14.333-15.126,32.836-7.941,48.288c6.474,13.925,19.975,22.577,35.23,22.577
	c10.458,0,21.331-4.053,31.443-11.722c0.396-0.299,0.768-0.628,1.114-0.982l129.547-132.714l44.017-17.61l59.851,59.429
	c1.95,1.937,4.498,2.904,7.046,2.904c2.57-0.001,5.14-0.985,7.095-2.953l31.653-31.864l31.647-31.86
	c0.002-0.001,0.004-0.003,0.005-0.004l31.652-31.865c0.003-0.003,0.006-0.007,0.01-0.01l31.642-31.853l31.643-31.855
	c0.003-0.004,0.007-0.006,0.01-0.009l31.651-31.865c1.869-1.882,2.914-4.429,2.905-7.081
	C511.99,161.438,510.928,158.898,509.046,157.029z M343.691,309.306l-50.224-49.871l17.557-17.675l50.224,49.871L343.691,309.306z
	 M375.343,277.442l-50.224-49.871l17.558-17.675l50.224,49.871L375.343,277.442z M406.994,245.577l-50.223-49.87l17.558-17.675
	l50.223,49.871L406.994,245.577z M438.648,213.714l-50.223-49.871l17.557-17.675l50.224,49.87L438.648,213.714z M191.779,302.804
	c-1.295,0.518-2.467,1.301-3.441,2.299L57.856,438.776c-6.42,4.733-12.903,7.23-18.788,7.23c-7.499,0-13.89-4.115-17.096-11.008
	c-3.882-8.35-2.061-18.302,4.866-26.687l165.387-168.062l56.804-56.473c34.73-34.525,67.205-66.809,106.728-106.133
	c7.55-7.512,15.81-11.649,23.256-11.649c5.198,0,10.35,2.001,15.368,5.942l-39.894,39.694c-3.914,3.896-3.931,10.227-0.035,14.142
	c1.954,1.964,4.521,2.947,7.089,2.947c2.551,0,5.102-0.97,7.054-2.911l40.208-40.007l14.553,14.367L242.055,282.691L191.779,302.804
	z M312.038,341.171l-50.223-49.87l17.558-17.676l50.224,49.871L312.038,341.171z M470.3,181.849l-50.224-49.871l17.558-17.675
	l50.223,49.871L470.3,181.849z"/>
<path d="M340.293,149.86c2.538,0,5.077-0.96,7.025-2.884l0.23-0.228c3.931-3.88,3.971-10.212,0.091-14.142
	c-3.883-3.932-10.214-3.971-14.142-0.091l-0.23,0.227c-3.931,3.88-3.971,10.212-0.091,14.142
	C335.133,148.867,337.713,149.86,340.293,149.86z"/>
<g>
</g>
<g>
</g>
<g>
</g>
<g>
</g>
<g>
</g>
<g>
</g>
<g>
</g>
<g>
</g>
<g>
</g>
<g>
</g>
<g>
</g>
<g>
</g>
<g>
</g>
<g>
</g>
<g>
</g>
</svg>
