<?xml version="1.0" encoding="iso-8859-1"?>
<!-- Generator: Adobe Illustrator 19.0.0, SVG Export Plug-In . SVG Version: 6.00 Build 0)  -->
<svg version="1.1" id="Capa_1" xmlns="http://www.w3.org/2000/svg" xmlns:xlink="http://www.w3.org/1999/xlink" x="0px" y="0px"
	 viewBox="0 0 512.004 512.004" style="enable-background:new 0 0 512.004 512.004;" xml:space="preserve">
<g>
	<path style="fill:#66E2E7;" d="M33.683,379.26c105.681,82.134,363.595,69.546,454.642-1.148
		c17.739-13.773,14.266-15.467,11.506-36.642l-13.885-106.553c-22.286,35.132-108.239,74.772-228.48,74.772
		c-120.24,0-219.919-37.087-225.127-83.593l-10.186,53.211l-4.575,23.9l-5.868,30.656C6.816,359.433,12.115,362.499,33.683,379.26z"
		/>
	<path style="fill:#E0AC91;" d="M32.34,226.096c5.207,46.506,104.887,83.593,225.127,83.593c120.24,0,206.193-39.639,228.48-74.772
		c-1.829-26.663-11.74-60.892-62.857-76.374c-14.396-61.965-92.573-84.915-137.872-31.676
		c-30.568-75.934-128.424-59.298-139.805-0.697c-32.764-15.283-82.815,16.238-82.304,62.823
		c-18.048,4.7-30.874,16.776-30.807,29.715L32.34,226.096L32.34,226.096z M133.646,199.541c11.052,0,20.012,8.959,20.012,20.012
		c0,11.052-8.96,20.012-20.012,20.012c-11.053,0-20.012-8.96-20.012-20.012C113.633,208.501,122.593,199.541,133.646,199.541
		L133.646,199.541z M306.434,226.492c0-13.828,11.211-25.039,25.038-25.039c13.828,0,25.039,11.211,25.039,25.039
		c0,13.828-11.211,25.038-25.039,25.038C317.645,251.531,306.434,240.32,306.434,226.492L306.434,226.492z M250.357,160.475
		c0,11.053-8.959,20.012-20.012,20.012s-20.012-8.959-20.012-20.012c0-11.053,8.959-20.012,20.012-20.012
		S250.357,149.423,250.357,160.475z"/>
	<g>
		<circle style="fill:#9D7463;" cx="331.477" cy="226.49" r="25.035"/>
		<circle style="fill:#9D7463;" cx="230.345" cy="160.479" r="20.012"/>
		<circle style="fill:#9D7463;" cx="133.646" cy="219.556" r="20.012"/>
	</g>
</g>
<path d="M510.853,347.729c-0.343-2.215-0.732-4.726-1.101-7.552l-13.854-106.322c-1.329-18.646-6.084-33.967-14.539-46.819
	c-10.771-16.37-27.576-28.575-50.003-36.331c-11.27-37.715-45.286-63.578-84.603-63.578c-21.617,0-42.031,7.948-58.741,22.644
	c-16.016-27.736-43.054-43.886-74.654-43.886c-34.258,0-63.932,19.442-74.681,47.563c-3.708-0.785-7.559-1.18-11.527-1.18
	c-18.189,0-37.554,8.599-51.802,23.002c-12.73,12.87-20.369,29.093-21.949,46.316c-18.961,7.158-31.191,21.467-31.11,37.173
	l0.034,6.422l-9.988,52.181c-0.005,0.022-0.009,0.043-0.013,0.065L1.88,331.981c-2.473,12.916-3.056,22.751,1.668,31.862
	c4.086,7.882,11.149,13.358,21.837,21.647l2.152,1.671c26.425,20.532,62.331,36.098,106.729,46.264
	c36.428,8.342,77.803,12.692,120.349,12.692c4.012,0,8.037-0.039,12.068-0.117c95.208-1.835,182.488-24.82,227.777-59.985
	C512.839,371.746,513.523,364.971,510.853,347.729z M65.628,198.675c4.448-1.158,7.535-5.197,7.484-9.793
	c-0.159-14.598,5.689-28.641,16.469-39.539c10.568-10.685,24.614-17.063,37.573-17.063c5.104,0,9.822,0.995,14.028,2.956
	c2.793,1.302,6.027,1.246,8.773-0.153c2.745-1.399,4.692-3.983,5.279-7.007c5.378-27.691,33.312-42.179,58.128-42.179
	c27.913,0,51.304,16.712,62.573,44.705c1.308,3.249,4.22,5.577,7.677,6.14c3.46,0.563,6.955-0.724,9.227-3.392
	c14.382-16.902,33.531-26.211,53.918-26.211c31.866,0,59.246,22.068,66.588,53.667c0.81,3.486,3.42,6.275,6.846,7.312
	c44.128,13.364,53.308,40.711,55.5,64.073c-11.511,15.609-37.557,31.833-70.67,43.882c-29.598,10.771-79.224,23.608-147.551,23.608
	c-123.162,0-210.364-38.281-215.124-74.217l-0.036-6.81C42.265,210.737,52.291,202.148,65.628,198.675z M491.848,360.938
	c-0.969,2.523-7.281,7.426-9.659,9.272c-45.85,35.601-136.782,55.994-227.73,55.991c-82.946-0.002-165.908-16.97-214.635-54.841
	l-2.17-1.684c-19.318-14.98-19.687-15.266-16.114-33.933l7.151-37.361c12.134,9.474,26.386,17.731,43.163,25.008
	c1.297,0.563,2.648,0.829,3.977,0.829c3.865,0,7.548-2.253,9.185-6.027c2.199-5.069-0.128-10.963-5.197-13.161
	c-19.15-8.307-34.511-17.891-46.811-29.196l3.628-18.956c12.77,14.497,33.681,27.441,61.647,37.831
	c43.362,16.111,99.894,24.983,159.185,24.983c71.243,0,123.283-13.494,154.394-24.814c27.99-10.184,51.22-23.123,66.986-37.008
	l11.062,84.89c0.4,3.064,0.807,5.701,1.168,8.027C491.856,355.82,492.418,359.453,491.848,360.938z"/>
<path d="M106.878,315.159c-0.181-0.056-0.376-0.111-0.556-0.156c-5.357-1.34-10.794,1.919-12.134,7.28
	c-1.308,5.231,1.763,10.529,6.893,12.028c0.948,0.281,1.905,0.415,2.848,0.415c4.305,0,8.279-2.799,9.58-7.133
	C115.088,322.327,112.123,316.778,106.878,315.159z"/>
<path d="M350.059,142.302c0.643,0.069,1.295,0.16,1.935,0.269c1.715,0.292,3.453,0.731,5.165,1.309
	c11.237,3.783,19.281,12.842,22.072,24.852c1.073,4.622,5.189,7.744,9.738,7.744c0.749,0,1.512-0.085,2.272-0.261
	c5.383-1.251,8.733-6.628,7.483-12.01c-4.331-18.643-17.482-33.331-35.175-39.29c-2.698-0.909-5.455-1.606-8.197-2.072
	c-1.041-0.177-2.099-0.324-3.147-0.437c-5.495-0.585-10.428,3.382-11.021,8.876C340.59,136.776,344.564,141.71,350.059,142.302z"/>
<path d="M323.689,149.129c1.864,0,3.751-0.517,5.432-1.599l0.063-0.04c4.67-2.955,6.06-9.137,3.104-13.805
	c-2.955-4.669-9.136-6.06-13.806-3.105l-0.326,0.21c-4.606,3.022-5.872,9.179-2.87,13.797
	C317.199,147.531,320.411,149.129,323.689,149.129z"/>
<path d="M133.646,249.572c16.552,0,30.018-13.466,30.018-30.018s-13.466-30.018-30.018-30.018s-30.018,13.466-30.018,30.018
	S117.094,249.572,133.646,249.572z M133.646,209.547c5.517,0,10.006,4.489,10.006,10.006s-4.489,10.006-10.006,10.006
	s-10.006-4.489-10.006-10.006C123.64,214.036,128.129,209.547,133.646,209.547z"/>
<path d="M331.473,261.537c19.325,0,35.045-15.722,35.045-35.045c0-19.325-15.722-35.045-35.045-35.045
	c-19.324,0-35.044,15.722-35.044,35.045C296.428,245.816,312.15,261.537,331.473,261.537z M331.473,211.459
	c8.289,0,15.033,6.744,15.033,15.033s-6.744,15.033-15.033,15.033s-15.032-6.744-15.032-15.033
	C316.44,218.203,323.184,211.459,331.473,211.459z"/>
<path d="M230.345,190.494c16.552,0,30.018-13.466,30.018-30.018s-13.466-30.018-30.018-30.018s-30.018,13.466-30.018,30.018
	C200.326,177.028,213.793,190.494,230.345,190.494z M230.345,150.469c5.517,0,10.006,4.489,10.006,10.006
	s-4.489,10.006-10.006,10.006s-10.006-4.489-10.006-10.006S224.827,150.469,230.345,150.469z"/>
<g>
</g>
<g>
</g>
<g>
</g>
<g>
</g>
<g>
</g>
<g>
</g>
<g>
</g>
<g>
</g>
<g>
</g>
<g>
</g>
<g>
</g>
<g>
</g>
<g>
</g>
<g>
</g>
<g>
</g>
</svg>
