<?xml version="1.0" encoding="iso-8859-1"?>
<!-- Generator: Adobe Illustrator 19.0.0, SVG Export Plug-In . SVG Version: 6.00 Build 0)  -->
<svg version="1.1" id="Capa_1" xmlns="http://www.w3.org/2000/svg" xmlns:xlink="http://www.w3.org/1999/xlink" x="0px" y="0px"
	 viewBox="0 0 512.002 512.002" style="enable-background:new 0 0 512.002 512.002;" xml:space="preserve">
<g>
	<path style="fill:#FD4A4A;" d="M226.001,76.001h60c11,0,20-9,20-20.001c0-0.993-0.073-1.971-0.215-2.926
		C304.359,43.448,296.008,36,286.001,36h-60c-11,0-20,9-20,20C206.001,67.001,215.001,76.001,226.001,76.001z"/>
	<path style="fill:#66E2E7;" d="M356.001,117.075h-200H90.999c-18.306,0-30.842,9.633-35.763,27.997L36.71,222.824h119.291h100h100
		h119.291l-18.526-77.753c-4.921-18.363-17.457-27.997-35.763-27.997L356.001,117.075L356.001,117.075z"/>
	<path style="fill:#FEC478;" d="M256.001,222.824h-100H36.71h-7.54c-10.544,0-19.17,8.65-19.17,19.222v15.778v15.778
		c0,10.571,8.626,19.222,19.17,19.222h7.679h438.306h7.678c10.543,0,19.17-8.65,19.17-19.222v-15.778v-15.778
		c0-10.572-8.627-19.222-19.17-19.222h-7.54H356.001L256.001,222.824L256.001,222.824z"/>
	<path style="fill:#00A2BB;" d="M475.154,292.824H36.849l20.863,152.507c2.289,16.736,14.98,30.67,33.287,30.67h330.004
		c18.307,0,30.998-13.935,33.288-30.67L475.154,292.824L475.154,292.824z M236.001,364.365c0-11,9-20,20-20s20,9,20,20v40
		c0,11-9,20-20,20s-20-9-20-20V364.365L236.001,364.365z M336.001,364.365c0-11,9-20,20-20s20,9,20,20v40c0,11-9,20-20,20
		s-20-9-20-20V364.365L336.001,364.365z M156.001,344.366c11,0,20,9,20,20v40c0,11-9,20-20,20s-20-9-20-20v-40
		C136.001,353.365,145.001,344.366,156.001,344.366z"/>
	<g>
		<path style="fill:#9D7463;" d="M176.001,404.366v-40c0-11-9-20-20-20s-20,9-20,20v40c0,11,9,20,20,20
			S176.001,415.366,176.001,404.366z"/>
		<path style="fill:#9D7463;" d="M236.001,364.365v40c0,11,9,20,20,20s20-9,20-20v-40c0-11-9-20-20-20
			S236.001,353.365,236.001,364.365z"/>
		<path style="fill:#9D7463;" d="M336.001,364.365v40c0,11,9,20,20,20s20-9,20-20v-40c0-11-9-20-20-20
			S336.001,353.365,336.001,364.365z"/>
	</g>
</g>
<path d="M483.191,212.833l-16.698-70.08c-0.022-0.09-0.044-0.181-0.068-0.271c-6.03-22.502-22.586-35.408-45.422-35.408h-55.002v-39
	c0-13.785-11.215-25-25-25h-27.932C308.231,32.985,297.917,26,286.001,26h-60c-11.916,0-22.231,6.984-27.068,17.074h-27.932
	c-13.785,0-25,11.215-25,25v39H90.999c-22.836,0-39.392,12.906-45.422,35.408c-0.024,0.09-0.047,0.18-0.068,0.271l-16.698,70.08
	C12.892,213.028,0,226.054,0,242.046v31.557c0,15.76,12.52,28.638,28.12,29.195l19.684,143.889
	c3.166,23.148,20.928,39.315,43.195,39.315h330.004c22.265,0,40.028-16.167,43.196-39.314l19.684-143.889
	c15.599-0.557,28.119-13.435,28.119-29.195v-31.557C512.002,226.054,499.11,213.028,483.191,212.833z M226.001,46.001h60
	c4.074,0,7.581,2.452,9.138,5.955c-0.041,0.368-0.066,0.74-0.066,1.119c0,1.443,0.311,2.811,0.861,4.049
	c-0.561,4.987-4.799,8.877-9.933,8.877h-60c-5.514,0-10-4.486-10-10.001C216.001,50.487,220.487,46.001,226.001,46.001z
	 M166.001,68.075c0-2.71,2.29-5,5-5h25.85c3.189,13.139,15.045,22.926,29.15,22.926h60c14.105,0,25.961-9.788,29.15-22.926h25.85
	c2.71,0,5,2.29,5,5v39h-180V68.075z M64.93,147.531c3.73-13.764,12.259-20.456,26.069-20.456h65.002h200h65.002
	c13.81,0,22.339,6.692,26.069,20.456l15.558,65.293h-96.628v-16.366c0-5.523-4.477-10-10-10s-10,4.477-10,10v16.366h-80v-16.366
	c0-5.523-4.477-10-10-10c-5.523,0-10,4.477-10,10v16.366h-80v-16.366c0-5.523-4.477-10-10-10s-10,4.477-10,10v16.366H49.373
	L64.93,147.531z M444.383,443.975c-1.5,10.963-9.311,22.026-23.38,22.026H90.999c-14.069,0-21.88-11.062-23.379-22.025
	L48.31,302.824h415.384L444.383,443.975z M482.832,282.824H29.17c-5.057,0-9.17-4.137-9.17-9.222v-5.778h55.952
	c5.523,0,10-4.477,10-10c0-5.523-4.477-10-10-10H20v-5.778c0-5.085,4.113-9.222,9.17-9.222h7.515c0.011,0,0.023,0.002,0.034,0.002
	c0.016,0,0.031-0.002,0.046-0.002H154.7c0.427,0.056,0.859,0.094,1.302,0.094c0.442,0,0.874-0.039,1.302-0.094H254.7
	c0.427,0.056,0.859,0.094,1.302,0.094c0.442,0,0.874-0.039,1.302-0.094H354.7c0.427,0.056,0.859,0.094,1.302,0.094
	c0.442,0,0.874-0.039,1.302-0.094h117.935c0.015,0,0.03,0.002,0.046,0.002c0.011,0,0.022-0.002,0.034-0.002h7.515
	c5.057,0,9.17,4.137,9.17,9.222v5.778H436.05c-5.523,0-10,4.477-10,10c0,5.523,4.477,10,10,10h55.952v5.778
	C492.002,278.687,487.889,282.824,482.832,282.824z"/>
<path d="M156.001,334.366c-16.542,0-30,13.458-30,30v40c0,16.542,13.458,30,30,30s30-13.458,30-30v-40
	C186.001,347.824,172.543,334.366,156.001,334.366z M166.001,404.366c0,5.514-4.486,10-10,10s-10-4.486-10-10v-40
	c0-5.514,4.486-10,10-10s10,4.486,10,10V404.366z"/>
<path d="M356.001,334.366c-16.542,0-30,13.458-30,30v40c0,16.542,13.458,30,30,30s30-13.458,30-30v-40
	C386.001,347.824,372.543,334.366,356.001,334.366z M366.001,404.366c0,5.514-4.486,10-10,10s-10-4.486-10-10v-40
	c0-5.514,4.486-10,10-10s10,4.486,10,10V404.366z"/>
<path d="M256.001,334.366c-16.542,0-30,13.458-30,30v40c0,16.542,13.458,30,30,30s30-13.458,30-30v-40
	C286.001,347.824,272.543,334.366,256.001,334.366z M266.001,404.366c0,5.514-4.486,10-10,10s-10-4.486-10-10v-40
	c0-5.514,4.486-10,10-10s10,4.486,10,10V404.366z"/>
<path d="M106,247.824h-0.324c-5.523,0-10,4.477-10,10c0,5.523,4.477,10,10,10H106c5.523,0,10-4.477,10-10
	S111.523,247.824,106,247.824z"/>
<path d="M406.326,247.824h-0.324c-5.523,0-10,4.477-10,10c0,5.523,4.477,10,10,10h0.324c5.523,0,10-4.477,10-10
	S411.849,247.824,406.326,247.824z"/>
<g>
</g>
<g>
</g>
<g>
</g>
<g>
</g>
<g>
</g>
<g>
</g>
<g>
</g>
<g>
</g>
<g>
</g>
<g>
</g>
<g>
</g>
<g>
</g>
<g>
</g>
<g>
</g>
<g>
</g>
</svg>
