<?xml version="1.0" encoding="iso-8859-1"?>
<!-- Generator: Adobe Illustrator 19.0.0, SVG Export Plug-In . SVG Version: 6.00 Build 0)  -->
<svg version="1.1" id="Capa_1" xmlns="http://www.w3.org/2000/svg" xmlns:xlink="http://www.w3.org/1999/xlink" x="0px" y="0px"
	 viewBox="0 0 511.999 511.999" style="enable-background:new 0 0 511.999 511.999;" xml:space="preserve">
<g>
	<g>
		<path style="fill:#66E2E7;" d="M110.643,437.374L74.629,401.36l-34.212-34.212c-6.934-6.933-18.277-6.933-25.211,0
			c-6.932,6.933-6.932,18.277,0,25.21l104.439,104.439c6.934,6.933,18.277,6.933,25.21,0c6.933-6.933,6.933-18.277,0-25.21
			L110.643,437.374z"/>
		<path style="fill:#66E2E7;" d="M161.061,314.544l104.346,104.344c8.444,8.445,22.264,8.445,30.708,0
			c8.445-8.444,8.444-22.266,0-30.71l-24.489-24.491l-0.181-0.179l28.819-28.747l28.818-28.747l28.819-28.746l28.818-28.747
			l28.817-28.746c17.616-17.572,17.593-46.388,0-63.979l-15.262-15.263l-14.163-14.163l-14.648-14.648l-15.262-15.263
			c-17.593-17.592-46.409-17.614-63.979,0L148.491,240.556l-24.67-24.67c-8.444-8.444-22.265-8.445-30.709,0
			c-8.445,8.446-8.445,22.265,0,30.71L161.061,314.544z"/>
	</g>
	<g>
		<path style="fill:#00A2BB;" d="M386.112,126.375l14.163,14.163l28.811-28.811c7.923-7.923,7.923-20.888,0-28.812
			c-7.924-7.923-20.889-7.923-28.811,0l-28.811,28.812L386.112,126.375z"/>
		
			<rect x="110.484" y="314.803" transform="matrix(-0.7071 -0.7071 0.7071 -0.7071 -33.833 738.0981)" style="fill:#00A2BB;" width="50.93" height="122.507"/>
	</g>
</g>
<path d="M285.597,363.52l137.002-136.661l0,0c0.004-0.003,0.007-0.006,0.01-0.009c0.009-0.009,0.016-0.018,0.025-0.027
	c10.376-10.369,16.097-24.21,16.106-38.978c0.009-14.812-5.72-28.703-16.132-39.114l-8.191-8.191l21.742-21.741
	c9.365-9.365,11.316-23.372,5.869-34.68l67.043-67.044c3.905-3.905,3.905-10.237,0-14.142c-3.905-3.905-10.237-3.905-14.142,0
	L427.89,69.971c-4.063-1.959-8.554-2.997-13.21-2.997c-8.129,0-15.756,3.151-21.477,8.871l-21.74,21.741l-8.191-8.191
	c-10.403-10.402-24.282-16.131-39.08-16.131c-14.8,0-28.668,5.732-39.049,16.14L148.482,226.406l-17.59-17.59
	c-5.973-5.973-13.937-9.263-22.425-9.263c-8.489,0-16.453,3.29-22.426,9.263c-12.365,12.366-12.365,32.486,0.001,44.851
	l61.069,61.069L74.63,387.218l-27.143-27.143c-5.242-5.241-12.23-8.128-19.676-8.128s-14.434,2.887-19.677,8.129
	c-10.847,10.849-10.847,28.502,0,39.351l104.44,104.439c5.242,5.242,12.23,8.128,19.676,8.128c7.446,0,14.434-2.887,19.676-8.129
	c10.849-10.849,10.849-28.502,0-39.351l-27.143-27.143l72.482-72.482l61.07,61.07c5.973,5.973,13.937,9.263,22.425,9.263
	c8.488,0,16.453-3.29,22.426-9.263s9.263-13.938,9.263-22.426c0-8.489-3.29-16.453-9.263-22.426L285.597,363.52 M137.783,489.726
	c-1.463,1.464-3.428,2.27-5.532,2.27c-2.105,0-4.07-0.807-5.534-2.271L22.278,385.286c-3.051-3.052-3.051-8.018-0.001-11.068
	c1.464-1.465,3.43-2.271,5.535-2.271s4.07,0.806,5.534,2.271l104.438,104.438C140.835,481.709,140.835,486.674,137.783,489.726z
	 M110.644,423.231l-21.873-21.872l72.482-72.482l21.873,21.872L110.644,423.231z M414.517,204.616L399.29,189.39
	c-3.905-3.905-10.237-3.905-14.142,0s-3.905,10.237,0,14.142l16.238,16.237l-14.659,14.623l-39.535-39.536
	c-3.905-3.905-10.237-3.905-14.142,0s-3.905,10.237,0,14.142l39.518,39.519l-14.659,14.622l-16.183-16.183
	c-3.905-3.905-10.236-3.905-14.142,0c-3.905,3.905-3.905,10.237,0,14.142l16.165,16.165l-14.659,14.622l-39.466-39.465
	c-3.905-3.904-10.237-3.905-14.142,0s-3.905,10.237,0.001,14.142l39.448,39.447l-14.66,14.623l-16.112-16.112
	c-3.905-3.905-10.236-3.905-14.142,0c-3.905,3.905-3.905,10.237,0,14.142l16.095,16.095l-14.659,14.623l-39.393-39.393
	c-3.905-3.905-10.236-3.905-14.142,0c-3.905,3.905-3.905,10.237,0,14.142l71.124,71.125c0.006,0.006-0.006-0.006,0,0l0,0
	c2.195,2.196,3.404,5.138,3.404,8.284c0.001,3.147-1.208,6.088-3.404,8.284c-2.196,2.196-5.138,3.405-8.284,3.405
	s-6.087-1.209-8.283-3.405L100.184,239.526c-4.567-4.568-4.567-12,0-16.569c2.195-2.195,5.137-3.404,8.283-3.404
	s6.088,1.209,8.284,3.404l24.669,24.67c1.875,1.875,4.419,2.929,7.071,2.929c0.002,0,0.004,0,0.006,0
	c2.654-0.002,5.199-1.059,7.073-2.938l143.734-144.09c6.603-6.619,15.443-10.265,24.891-10.265c9.457,0,18.314,3.648,24.939,10.273
	l15.25,15.25c0.004,0.004,0.007,0.009,0.011,0.013l28.81,28.81c0.003,0.003,0.005,0.004,0.008,0.007l15.255,15.256
	c6.631,6.631,10.28,15.495,10.274,24.96C418.737,193.808,417.269,199.539,414.517,204.616z M422.016,104.657l-21.742,21.74
	l-14.668-14.668l21.741-21.741c1.943-1.943,4.547-3.013,7.334-3.013c2.787,0,5.392,1.07,7.335,3.013
	C426.059,94.032,426.059,100.613,422.016,104.657z"/>
<path d="M325.929,173.595c-3.913-3.897-10.245-3.883-14.142,0.03c-3.897,3.914-3.883,10.245,0.03,14.142l0.23,0.229
	c1.952,1.943,4.504,2.914,7.056,2.914c2.566,0,5.132-0.982,7.086-2.944c3.897-3.914,3.883-10.245-0.03-14.142L325.929,173.595z"/>
<path d="M268.38,231.174c-3.905-3.905-10.236-3.905-14.142,0c-3.905,3.905-3.905,10.237,0,14.142l0.229,0.229
	c1.953,1.953,4.512,2.929,7.071,2.929c2.559,0,5.118-0.976,7.071-2.929c3.905-3.905,3.905-10.237,0-14.142L268.38,231.174z"/>
<path d="M210.825,288.746c-3.901-3.909-10.233-3.917-14.142-0.015c-3.909,3.901-3.916,10.233-0.015,14.142l0.229,0.229
	c1.954,1.958,4.516,2.937,7.079,2.937c2.556,0,5.112-0.974,7.064-2.921c3.909-3.901,3.916-10.233,0.015-14.142L210.825,288.746z"/>
<g>
</g>
<g>
</g>
<g>
</g>
<g>
</g>
<g>
</g>
<g>
</g>
<g>
</g>
<g>
</g>
<g>
</g>
<g>
</g>
<g>
</g>
<g>
</g>
<g>
</g>
<g>
</g>
<g>
</g>
</svg>
