<?xml version="1.0" encoding="iso-8859-1"?>
<!-- Generator: Adobe Illustrator 19.0.0, SVG Export Plug-In . SVG Version: 6.00 Build 0)  -->
<svg version="1.1" id="Capa_1" xmlns="http://www.w3.org/2000/svg" xmlns:xlink="http://www.w3.org/1999/xlink" x="0px" y="0px"
	 viewBox="0 0 512 512" style="enable-background:new 0 0 512 512;" xml:space="preserve">
<g>
	<path style="fill:#FD4A4A;" d="M379,59.217C379,32.147,356.854,10,329.783,10H182.217C155.148,10,133,32.147,133,59.217V133H59.217
		C32.147,133,10,155.147,10,182.217v147.566C10,356.853,32.147,379,59.217,379H133v73.783C133,479.852,155.148,502,182.217,502
		h147.566c27.07,0,49.217-22.148,49.217-49.217V379h73.783c27.07,0,49.217-22.147,49.217-49.217V182.217
		c0-27.07-22.147-49.217-49.217-49.217H379V59.217L379,59.217z M256,145.436c16.113,0,29.176,14.157,29.176,31.62
		s-13.063,31.62-29.176,31.62s-29.176-14.157-29.176-31.62S239.887,145.436,256,145.436L256,145.436z M256,258.831
		c32.041,0,58.016,26.08,58.016,58.251S288.041,375.333,256,375.333s-58.016-26.08-58.016-58.251
		C197.984,284.911,223.959,258.831,256,258.831L256,258.831z M170.361,184.96c16.113,0,29.176,14.157,29.176,31.62
		s-13.063,31.619-29.176,31.619s-29.176-14.156-29.176-31.619S154.248,184.96,170.361,184.96L170.361,184.96z M341.639,184.96
		c16.113,0,29.176,14.157,29.176,31.62s-13.063,31.619-29.176,31.619s-29.176-14.156-29.176-31.619S325.525,184.96,341.639,184.96z"
		/>
	<g>
		<ellipse style="fill:#FFCEAC;" cx="170.36" cy="216.58" rx="29.18" ry="31.62"/>
		<ellipse style="fill:#FFCEAC;" cx="256" cy="177.06" rx="29.18" ry="31.62"/>
		<ellipse style="fill:#FFCEAC;" cx="341.64" cy="216.58" rx="29.18" ry="31.619"/>
		<ellipse style="fill:#FFCEAC;" cx="256" cy="317.08" rx="58.02" ry="58.25"/>
	</g>
</g>
<path d="M256,248.831c-37.504,0-68.016,30.617-68.016,68.251s30.512,68.251,68.016,68.251s68.016-30.618,68.016-68.251
	S293.504,248.831,256,248.831z M256,365.333c-26.476,0-48.016-21.646-48.016-48.251c0-26.606,21.539-48.251,48.016-48.251
	s48.016,21.645,48.016,48.251C304.016,343.688,282.476,365.333,256,365.333z"/>
<path d="M256,135.436c-21.602,0-39.176,18.671-39.176,41.62s17.574,41.62,39.176,41.62s39.176-18.67,39.176-41.62
	S277.602,135.436,256,135.436z M256,198.675c-10.574,0-19.176-9.698-19.176-21.62c0-11.921,8.602-21.62,19.176-21.62
	c10.574,0,19.176,9.698,19.176,21.62S266.574,198.675,256,198.675z"/>
<path d="M341.639,174.96c-21.602,0-39.176,18.67-39.176,41.62c0,22.949,17.574,41.619,39.176,41.619s39.176-18.67,39.176-41.619
	C380.815,193.63,363.24,174.96,341.639,174.96z M341.639,238.199c-10.574,0-19.176-9.698-19.176-21.619s8.602-21.62,19.176-21.62
	s19.176,9.698,19.176,21.62C360.814,228.501,352.212,238.199,341.639,238.199z"/>
<path d="M209.537,216.58c0-22.949-17.574-41.62-39.176-41.62s-39.176,18.67-39.176,41.62c0,22.949,17.574,41.619,39.176,41.619
	S209.537,239.528,209.537,216.58z M170.361,238.199c-10.574,0-19.176-9.698-19.176-21.619s8.602-21.62,19.176-21.62
	c10.574,0,19.176,9.698,19.176,21.62C189.537,228.501,180.935,238.199,170.361,238.199z"/>
<path d="M452.783,123H389V59.217C389,26.565,362.436,0,329.783,0H182.217C149.564,0,123,26.565,123,59.217V123H59.217
	C26.565,123,0,149.564,0,182.217v147.566C0,362.435,26.565,389,59.217,389H123v63.783C123,485.435,149.564,512,182.217,512h147.566
	C362.436,512,389,485.435,389,452.783V389h63.783C485.435,389,512,362.435,512,329.783V182.217C512,149.564,485.435,123,452.783,123
	z M492,329.783C492,351.407,474.407,369,452.783,369H379c-5.523,0-10,4.477-10,10v73.783C369,474.407,351.407,492,329.783,492
	H182.217C160.593,492,143,474.407,143,452.783V379c0-5.523-4.477-10-10-10H59.217C37.593,369,20,351.407,20,329.783V182.217
	C20,160.593,37.593,143,59.217,143H133c5.523,0,10-4.477,10-10V59.217C143,37.593,160.593,20,182.217,20h147.566
	C351.407,20,369,37.593,369,59.217V133c0,5.523,4.477,10,10,10h73.783C474.407,143,492,160.593,492,182.217V329.783z"/>
<path d="M304,442.783h-65.953c-5.523,0-10,4.477-10,10s4.477,10,10,10H304c5.523,0,10-4.477,10-10
	C314,447.26,309.523,442.783,304,442.783z"/>
<path d="M208.324,442.783H208c-5.523,0-10,4.477-10,10s4.477,10,10,10h0.324c5.523,0,10-4.477,10-10
	C218.324,447.26,213.847,442.783,208.324,442.783z"/>
<path d="M303.676,69.217H304c5.523,0,10-4.477,10-10s-4.477-10-10-10h-0.324c-5.523,0-10,4.477-10,10S298.153,69.217,303.676,69.217
	z"/>
<path d="M208,69.217h65.953c5.523,0,10-4.477,10-10s-4.477-10-10-10H208c-5.523,0-10,4.477-10,10S202.477,69.217,208,69.217z"/>
<g>
</g>
<g>
</g>
<g>
</g>
<g>
</g>
<g>
</g>
<g>
</g>
<g>
</g>
<g>
</g>
<g>
</g>
<g>
</g>
<g>
</g>
<g>
</g>
<g>
</g>
<g>
</g>
<g>
</g>
</svg>
